<svg xmlns="http://www.w3.org/2000/svg" width="50" height="50" viewBox="0 0 50 50" fill="none"><path d="M22.9167 49.1459V41.6459C12.4792 41.1042 4.16667 32.4375 4.16667 21.875C4.16667 10.9584 13.0417 2.08337 23.9583 2.08337C34.875 2.08337 43.75 10.9584 43.75 21.875C43.75 32.1875 36.5833 42.5625 25.8958 47.7084L22.9167 49.1459ZM23.9583 6.25004C15.3333 6.25004 8.33334 13.25 8.33334 21.875C8.33334 30.5 15.3333 37.5 23.9583 37.5H27.0833V42.2917C34.6667 37.5 39.5833 29.625 39.5833 21.875C39.5833 13.25 32.5833 6.25004 23.9583 6.25004ZM21.875 30.2084H26.0417V34.375H21.875V30.2084ZM26.0417 27.0834H21.875C21.875 20.3125 28.125 20.8334 28.125 16.6667C28.125 14.375 26.25 12.5 23.9583 12.5C21.6667 12.5 19.7917 14.375 19.7917 16.6667H15.625C15.625 12.0625 19.3542 8.33337 23.9583 8.33337C28.5625 8.33337 32.2917 12.0625 32.2917 16.6667C32.2917 21.875 26.0417 22.3959 26.0417 27.0834Z" fill="url(#paint0_linear_109_56)"></path><defs><linearGradient id="paint0_linear_109_56" x1="43.5264" y1="3.23124" x2="-2.41851" y2="11.7106" gradientUnits="userSpaceOnUse"><stop stop-color="#06E8FF"></stop><stop offset="0.495946" stop-color="#B11AFF"></stop><stop offset="1" stop-color="#FF00B8"></stop></linearGradient></defs></svg>