<svg xmlns="http://www.w3.org/2000/svg" width="181" height="185" viewBox="0 0 181 185" fill="none"><path d="M176.157 122.723C170.237 125.519 160.641 125.519 154.716 122.723C148.792 119.926 148.797 115.33 154.716 112.506C160.636 109.681 170.228 109.686 176.157 112.506C182.086 115.326 182.072 119.903 176.157 122.723Z" fill="#E0E0E0"></path><path d="M156.882 176.333C150.962 179.13 141.365 179.13 135.441 176.333C129.517 173.537 129.522 168.941 135.441 166.117C141.361 163.292 150.953 163.297 156.882 166.117C162.81 168.937 162.796 173.514 156.882 176.333Z" fill="#E0E0E0"></path><path d="M22.2012 139.055C22.2012 139.055 22.6673 132.184 20.2762 126.349C17.8851 120.513 13.886 116.412 9.65857 115.284C5.43109 114.156 1.2409 117.47 5.33321 121.026C9.42552 124.582 17.0788 128.838 18.9758 139.67L22.2012 139.055Z" fill="url(#paint0_linear_305_1511)"></path><path opacity="0.2" d="M22.2012 139.055C22.2012 139.055 22.6673 132.184 20.2762 126.349C17.8851 120.513 13.886 116.412 9.65857 115.284C5.43109 114.156 1.2409 117.47 5.33321 121.026C9.42552 124.582 17.0788 128.838 18.9758 139.67L22.2012 139.055Z" fill="black"></path><path d="M20.6397 139.572C20.5787 139.57 20.5211 139.543 20.4793 139.499C20.4375 139.455 20.4147 139.395 20.416 139.334C20.7003 131.234 14.8695 119.73 6.93188 117.036C6.90281 117.026 6.87601 117.011 6.85301 116.99C6.83001 116.97 6.81127 116.945 6.79785 116.917C6.78444 116.89 6.77661 116.859 6.77481 116.829C6.77302 116.798 6.77729 116.767 6.78739 116.738C6.79749 116.709 6.81322 116.682 6.83367 116.659C6.85413 116.636 6.87892 116.618 6.90662 116.604C6.93432 116.591 6.96439 116.583 6.99511 116.581C7.02584 116.579 7.05662 116.584 7.08569 116.594C15.2051 119.353 21.1711 131.089 20.8821 139.348C20.8809 139.379 20.8737 139.409 20.8608 139.437C20.848 139.465 20.8298 139.49 20.8073 139.511C20.7848 139.531 20.7584 139.547 20.7296 139.558C20.7009 139.569 20.6703 139.573 20.6397 139.572Z" fill="white"></path><path d="M20.9194 155.554C20.2205 155.935 19.4405 156.143 18.6448 156.16C17.7092 156.217 16.7722 156.076 15.8949 155.746C14.3381 155.158 13.0331 154.263 12.6322 152.576C12.3199 151.248 12.814 149.752 12.2314 148.479C11.6488 147.207 9.90091 146.452 8.72169 146.074C7.88738 145.808 7.01113 145.678 6.1908 145.37C5.77143 145.238 5.38308 145.023 5.04908 144.737C4.71508 144.451 4.44232 144.1 4.24719 143.706C3.45949 141.777 5.60818 139.586 4.90438 137.619C4.55481 136.645 3.59931 136.044 2.72772 135.489C1.85612 134.934 0.923931 134.268 0.681562 133.261C0.60504 132.796 0.644078 132.318 0.795244 131.871C0.946411 131.424 1.20508 131.021 1.5485 130.698C3.11458 129.085 5.74335 128.927 7.84077 129.728C8.48753 130.022 9.15046 130.279 9.82634 130.497C12.4738 131.192 15.289 129.458 17.9457 130.082C18.8009 130.297 19.581 130.742 20.2007 131.369C20.8204 131.996 21.256 132.781 21.4601 133.639C21.5859 134.217 21.6045 134.818 21.7397 135.396C22.08 136.845 23.6041 137.153 23.977 138.659C24.3079 140.001 23.8884 141.418 23.6554 142.746C23.3011 144.783 22.9003 146.811 22.4761 148.833C22.2493 149.933 22.0147 151.033 21.7723 152.133C21.5486 153.14 21.8423 154.249 21.3901 155.177C21.2408 155.312 21.0837 155.438 20.9194 155.554V155.554Z" fill="url(#paint1_linear_305_1511)"></path><path d="M21.6652 148.377C21.6094 148.376 21.5557 148.356 21.5138 148.319C21.4719 148.282 21.4446 148.231 21.4368 148.176C20.3181 140.938 10.134 132.376 3.63196 131.509C3.57015 131.501 3.51407 131.468 3.47604 131.419C3.43802 131.37 3.42117 131.307 3.42921 131.245C3.43724 131.184 3.4695 131.127 3.51889 131.089C3.56828 131.051 3.63074 131.035 3.69255 131.043C10.3437 131.933 20.7516 140.695 21.8935 148.106C21.8989 148.136 21.8981 148.167 21.8913 148.197C21.8845 148.227 21.8719 148.255 21.8541 148.279C21.8362 148.304 21.8137 148.325 21.7876 148.341C21.7616 148.357 21.7326 148.367 21.7024 148.372L21.6652 148.377Z" fill="white"></path><path d="M15.7178 138.467C15.6567 138.462 15.6005 138.432 15.5612 138.385C15.522 138.338 15.5028 138.277 15.508 138.216C15.9182 133.513 17.6148 131.714 17.7127 131.648C17.7334 131.624 17.759 131.604 17.7878 131.59C17.8166 131.576 17.848 131.567 17.8801 131.566C17.9122 131.565 17.9442 131.57 17.9742 131.581C18.0042 131.593 18.0314 131.61 18.0543 131.633C18.0772 131.655 18.0951 131.682 18.1071 131.712C18.119 131.742 18.1246 131.774 18.1236 131.806C18.1226 131.838 18.115 131.87 18.1012 131.899C18.0875 131.928 18.0678 131.954 18.0436 131.975C18.0436 131.975 16.389 133.746 15.9741 138.267C15.9649 138.327 15.9333 138.381 15.8856 138.418C15.838 138.455 15.778 138.473 15.7178 138.467Z" fill="white"></path><path d="M8.47932 142.243C8.43345 142.242 8.38881 142.228 8.35076 142.202C8.31272 142.177 8.2829 142.141 8.26492 142.098C8.25279 142.07 8.24643 142.04 8.24622 142.009C8.24601 141.979 8.25195 141.948 8.26369 141.92C8.27543 141.892 8.29273 141.866 8.31456 141.845C8.33639 141.823 8.3623 141.807 8.39077 141.795C8.60517 141.702 13.6809 139.577 18.1182 140.779C18.1488 140.787 18.1775 140.801 18.2027 140.82C18.228 140.839 18.2492 140.863 18.2652 140.89C18.2812 140.918 18.2917 140.948 18.2961 140.979C18.3004 141.01 18.2986 141.042 18.2906 141.073C18.2827 141.104 18.2688 141.132 18.2497 141.157C18.2306 141.183 18.2068 141.204 18.1795 141.22C18.1522 141.236 18.1221 141.246 18.0908 141.251C18.0595 141.255 18.0276 141.253 17.997 141.245C13.7182 140.085 8.62381 142.22 8.57254 142.243C8.54163 142.247 8.51024 142.247 8.47932 142.243Z" fill="white"></path><path d="M21.269 60.6996V155.815C21.2848 156.095 21.366 156.368 21.5061 156.61C21.6461 156.853 21.8411 157.06 22.0753 157.214L24.238 158.468C24.488 158.594 24.7642 158.66 25.0444 158.66C25.3245 158.66 25.6007 158.594 25.8507 158.468L126.485 100.369C126.719 100.215 126.914 100.008 127.054 99.7655C127.194 99.5227 127.276 99.2504 127.292 98.9706V3.85934C127.264 3.17837 127.077 2.51336 126.745 1.91818C126.413 1.323 125.946 0.814392 125.381 0.433547C124.769 0.136843 124.096 -0.0114575 123.417 0.000690468C122.737 0.0128384 122.07 0.185093 121.47 0.503462L23.3058 57.2039C22.7138 57.5837 22.2204 58.0986 21.8663 58.7063C21.5122 59.3141 21.3075 59.9972 21.269 60.6996Z" fill="#455A64"></path><path d="M26.932 61.655L21.8563 58.714C21.4945 59.315 21.2923 59.9985 21.269 60.6995V155.815C21.2848 156.095 21.366 156.368 21.5061 156.61C21.6461 156.853 21.8411 157.06 22.0753 157.214L24.238 158.468C24.488 158.594 24.7642 158.66 25.0444 158.66C25.3245 158.66 25.6007 158.594 25.8507 158.468L26.9367 157.838L26.932 61.655Z" fill="#37474F"></path><path d="M125.273 2.69412L27.0718 59.4038C26.484 59.7865 25.9949 60.3026 25.6442 60.9101C25.2935 61.5175 25.0912 62.1991 25.0536 62.8995V158.001C25.0536 158.514 25.4172 158.724 25.86 158.468L126.485 100.369C126.719 100.215 126.914 100.008 127.054 99.7655C127.194 99.5227 127.276 99.2505 127.291 98.9706V3.85935C127.291 2.57293 126.387 2.07421 125.273 2.69412Z" fill="#37474F"></path><path d="M125.273 2.69412L27.0718 59.4038C26.484 59.7865 25.9949 60.3026 25.6442 60.9101C25.2935 61.5175 25.0912 62.1991 25.0536 62.8995V158.001C25.0536 158.514 25.4172 158.724 25.86 158.468L126.485 100.369C126.719 100.215 126.914 100.008 127.054 99.7655C127.194 99.5227 127.276 99.2505 127.291 98.9706V3.85935C127.291 2.57293 126.387 2.07421 125.273 2.69412Z" fill="#263238"></path><path d="M127.291 8.08679V3.85465C127.291 2.57289 126.387 2.05086 125.273 2.69407L27.0718 59.4038C26.484 59.7865 25.9949 60.3026 25.6442 60.91C25.2935 61.5175 25.0912 62.1991 25.0536 62.8995V67.127L127.291 8.08679Z" fill="#37474F"></path><path d="M123.199 8.73464C123.175 8.74164 123.149 8.74164 123.125 8.73464C123.104 8.72562 123.085 8.71244 123.069 8.6959C123.054 8.67937 123.041 8.65982 123.034 8.63846C123.026 8.61709 123.022 8.59436 123.024 8.57163C123.025 8.5489 123.031 8.52666 123.041 8.50625L123.758 6.98213C123.782 6.94687 123.817 6.92124 123.858 6.9099C123.899 6.89855 123.943 6.90224 123.981 6.9203C124.02 6.93836 124.05 6.96958 124.067 7.00829C124.085 7.04701 124.088 7.09065 124.075 7.13128L123.358 8.6554C123.34 8.68103 123.316 8.70177 123.289 8.71564C123.261 8.72951 123.23 8.73605 123.199 8.73464Z" fill="#FAFAFA"></path><path d="M123.153 8.83262C123.125 8.83883 123.096 8.83883 123.069 8.83262C123.039 8.81685 123.014 8.79239 122.998 8.76244C122.983 8.73249 122.976 8.69846 122.98 8.66483L123.05 7.66738C123.052 7.64471 123.058 7.62261 123.068 7.60235C123.079 7.5821 123.093 7.56409 123.11 7.54936C123.128 7.53463 123.148 7.52347 123.169 7.51653C123.191 7.50959 123.214 7.507 123.236 7.50891C123.26 7.51065 123.282 7.51702 123.303 7.52766C123.323 7.53829 123.342 7.55296 123.356 7.5708C123.371 7.58864 123.382 7.60927 123.389 7.63147C123.395 7.65367 123.398 7.67698 123.395 7.70001L123.344 8.25L123.614 8.03094C123.651 8.00335 123.697 7.99089 123.743 7.99609C123.789 8.00128 123.831 8.02374 123.861 8.0589C123.893 8.09197 123.911 8.13628 123.911 8.18242C123.911 8.22855 123.893 8.27287 123.861 8.30593L123.264 8.77203C123.251 8.78952 123.234 8.80398 123.215 8.81443C123.196 8.82488 123.174 8.83108 123.153 8.83262Z" fill="#FAFAFA"></path><path d="M124.206 6.6C124.181 6.60426 124.156 6.60426 124.131 6.6C124.11 6.59049 124.091 6.57685 124.076 6.55988C124.06 6.54292 124.048 6.52297 124.04 6.50124C124.032 6.4795 124.029 6.45641 124.03 6.43334C124.031 6.41027 124.037 6.3877 124.048 6.36695L124.77 4.84748C124.779 4.82659 124.792 4.80775 124.809 4.79211C124.825 4.77647 124.845 4.76435 124.866 4.75651C124.887 4.74866 124.91 4.74524 124.933 4.74646C124.956 4.74767 124.978 4.7535 124.998 4.76359C125.019 4.77309 125.038 4.78673 125.054 4.8037C125.07 4.82066 125.082 4.84061 125.09 4.86235C125.097 4.88408 125.101 4.90717 125.1 4.93024C125.098 4.95331 125.092 4.97589 125.082 4.99663L124.364 6.5161C124.348 6.54327 124.325 6.56547 124.297 6.58026C124.269 6.59506 124.238 6.60189 124.206 6.6Z" fill="#FAFAFA"></path><path d="M124.882 5.94276C124.859 5.94102 124.836 5.93465 124.816 5.92401C124.795 5.91338 124.777 5.89871 124.762 5.88087C124.747 5.86304 124.736 5.8424 124.73 5.8202C124.723 5.798 124.721 5.77469 124.723 5.75166L124.775 5.20167L124.504 5.42073C124.468 5.4504 124.421 5.46437 124.374 5.45956C124.328 5.45475 124.285 5.43156 124.255 5.3951C124.225 5.35863 124.211 5.31187 124.216 5.26511C124.221 5.21834 124.244 5.1754 124.281 5.14574L124.877 4.67964C124.905 4.6602 124.939 4.64978 124.973 4.64978C125.007 4.64978 125.04 4.6602 125.068 4.67964C125.098 4.69541 125.123 4.71987 125.139 4.74982C125.154 4.77977 125.161 4.8138 125.157 4.84744L125.059 5.80293C125.05 5.84319 125.028 5.87918 124.996 5.9047C124.963 5.93022 124.923 5.94368 124.882 5.94276Z" fill="#FAFAFA"></path><path d="M29.7892 60.0051C29.5162 60.1865 29.2896 60.4294 29.1277 60.7144C28.9658 60.9994 28.873 61.3184 28.857 61.6458C28.857 62.2517 29.2811 62.4941 29.7892 62.1911C30.0621 62.0107 30.2887 61.7686 30.4506 61.4844C30.6126 61.2002 30.7053 60.8818 30.7214 60.5551C30.7354 59.9492 30.2972 59.7068 29.7892 60.0051Z" fill="#FAFAFA"></path><path d="M33.5599 57.8284C33.2869 58.0098 33.0603 58.2527 32.8984 58.5377C32.7365 58.8227 32.6437 59.1417 32.6277 59.4691C32.6277 60.0703 33.0518 60.3174 33.5599 60.0144C33.8329 59.833 34.0595 59.5901 34.2214 59.3051C34.3833 59.0201 34.476 58.7011 34.4921 58.3737C34.52 57.7725 34.0959 57.5394 33.5599 57.8284Z" fill="#FAFAFA"></path><path d="M37.3586 55.6471C37.0861 55.829 36.8599 56.0721 36.698 56.3569C36.5362 56.6418 36.4432 56.9605 36.4264 57.2877C36.4264 57.8937 36.8505 58.136 37.3586 57.8331C37.6317 57.653 37.8585 57.4109 38.0205 57.1267C38.1825 56.8424 38.2751 56.5239 38.2908 56.1971C38.3094 55.5911 37.8853 55.3488 37.3586 55.6471Z" fill="#FAFAFA"></path><path d="M159.033 64.6707H169.287C169.464 64.6707 169.64 64.6357 169.804 64.5678C169.968 64.4998 170.117 64.4003 170.242 64.2748C170.368 64.1493 170.467 64.0002 170.535 63.8363C170.603 63.6723 170.638 63.4965 170.638 63.319V45.076C170.638 43.3553 169.955 41.7051 168.738 40.4883C167.521 39.2716 165.871 38.588 164.15 38.588C162.43 38.588 160.779 39.2716 159.563 40.4883C158.346 41.7051 157.662 43.3553 157.662 45.076V63.319C157.662 63.4981 157.698 63.6754 157.767 63.8406C157.836 64.0058 157.937 64.1557 158.065 64.2814C158.192 64.4072 158.343 64.5064 158.51 64.5732C158.676 64.64 158.853 64.6731 159.033 64.6707Z" fill="#263238"></path><path d="M169.193 41.147L170.764 40.3033C170.714 40.1974 170.643 40.1028 170.555 40.0252C170.468 39.9477 170.365 39.8888 170.254 39.8521C170.143 39.8155 170.025 39.8019 169.909 39.8122C169.792 39.8224 169.679 39.8563 169.576 39.9118C169.365 40.0283 169.207 40.2221 169.136 40.4524C169.064 40.6827 169.085 40.9316 169.193 41.147Z" fill="#263238"></path><path d="M169.1 41.324L170.769 41.9486C170.815 41.8412 170.84 41.7255 170.84 41.6084C170.841 41.4914 170.817 41.3755 170.771 41.2678C170.726 41.1601 170.658 41.0628 170.574 40.9819C170.489 40.901 170.389 40.8382 170.279 40.7973C170.053 40.7158 169.804 40.7252 169.584 40.8233C169.364 40.9215 169.191 41.1009 169.1 41.324Z" fill="#263238"></path><path d="M156.791 53.2235L152.027 53.0883C151.706 52.818 146.7 47.1689 146.7 47.1689C146.7 47.1689 144.901 50.0075 144.868 50.1892C144.835 50.371 149.776 55.6519 150.265 56.1832C150.403 56.3609 150.58 56.5045 150.782 56.6031C150.984 56.7017 151.206 56.7526 151.431 56.7518C152.722 56.8311 157.555 57.1713 157.555 57.1713L156.791 53.2235Z" fill="#F28F8F"></path><path d="M163.507 57.7911L155.625 57.4509C154.926 56.4954 154.945 53.9598 155.649 53.1488L164.374 53.3865L163.507 57.7911Z" fill="url(#paint2_linear_305_1511)"></path><path d="M163.507 57.7911L155.625 57.4509C154.926 56.4954 154.945 53.9598 155.649 53.1488L164.374 53.3865L163.507 57.7911Z" fill="url(#paint3_linear_305_1511)"></path><path opacity="0.1" d="M163.507 57.7911L155.625 57.4509C154.926 56.4954 154.945 53.9598 155.649 53.1488L164.374 53.3865L163.507 57.7911Z" fill="black"></path><path d="M145.05 45.3605C145.982 45.2579 146.602 44.5681 146.812 44.7592C146.89 44.8511 146.934 44.9676 146.936 45.0885C146.938 45.2094 146.897 45.3271 146.821 45.4211C146.391 45.7478 145.921 46.0188 145.423 46.2274C145.306 46.7012 145.222 47.1824 145.171 47.6677C145.092 48.3808 145.12 49.8024 144.509 50.2918C142.687 51.7506 142.22 49.4342 142.295 47.8774C142.407 45.9571 144.076 45.4677 145.05 45.3605Z" fill="#F28F8F"></path><path d="M163.171 110.767C163.187 111.083 163.108 111.397 162.943 111.667C162.518 112.365 162.021 113.016 161.461 113.611C160.669 114.459 159.48 115.475 158.632 116.207C158.166 116.622 158.166 117.246 158.818 117.465C160.082 117.777 161.417 117.59 162.547 116.943C163.391 116.477 164.593 114.398 165.297 114.081C166.103 113.718 166.555 113.531 166.83 113.149C167.037 112.937 167.165 112.661 167.195 112.367C167.225 112.072 167.154 111.776 166.993 111.527C166.611 110.819 166.061 109.728 165.805 109.849L165.879 110.073C165.693 110.651 164.122 111.322 163.311 111.164L163.171 110.767Z" fill="#263238"></path><path d="M162.458 107.98C162.768 108.892 163.005 109.827 163.167 110.777C163.189 111.09 163.111 111.402 162.943 111.667C162.518 112.366 162.02 113.017 161.456 113.611C161.074 114.025 160.594 114.478 160.105 114.911C160.063 114.974 160.039 115.046 160.035 115.121C160.035 115.559 161.111 115.68 161.741 115.494C162.53 115.214 163.21 114.692 163.684 114.002C164.048 113.536 164.863 112.604 165.381 111.891C165.563 111.677 165.719 111.442 165.847 111.192C165.987 110.876 166.01 110.521 165.912 110.19L165.879 110.087C165.6 109.221 165.428 108.324 165.367 107.416" fill="#FFA8A7"></path><path d="M169.925 111.732C169.789 112.544 169.721 113.366 169.72 114.189V116.011H167.021V112.907H166.984C166.984 112.907 166.937 112.296 166.863 111.341" fill="#FFA8A7"></path><path d="M162.458 107.98C160.967 103.156 157.648 94.5194 157.191 93.0046C156.725 91.3919 157.294 77.2739 157.686 72.7528L171.757 71.9884C172.829 76.5748 171.785 82.7552 171.417 86.6191C171.062 90.3758 170.62 94.7664 170.62 94.7664C170.62 94.7664 171.72 98.5977 171.426 101.646C171.24 103.566 170.335 109.243 169.925 111.723C169.414 111.867 168.878 111.904 168.352 111.834C167.825 111.763 167.319 111.586 166.863 111.313C166.69 109.136 166.364 105.17 166.057 102.578C165.59 98.6816 165.437 95.8385 165.036 93.5639C164.537 90.7301 164.36 79.6091 164.36 79.6091L162.743 92.2216C163.381 93.3984 163.868 94.6513 164.192 95.9503C164.658 97.7448 165.152 104.475 165.353 107.388C164.488 107.92 163.463 108.129 162.458 107.98Z" fill="#37474F"></path><path d="M164.36 79.6184C164.36 79.6184 161.792 78.7142 160.328 77.3718C161.062 78.5183 162.106 79.433 163.339 80.0099L163.363 87.3929L164.36 79.6184Z" fill="#263238"></path><path d="M166.397 53.4471C166.397 53.4471 170.219 53.8853 170.676 54.0903C168.345 56.6399 170.825 58.7513 170.825 58.7513L168.615 66.5257C170.144 68.4833 171.454 70.0168 171.822 72.3519C170.181 75.2371 160.985 75.6379 157.611 73.4845C157.905 69.4575 158.543 66.577 158.343 65.3652C156.735 60.4199 157.238 59.3852 157.387 58.2572C157.681 56.0526 159.871 54.1276 161.116 53.3213H162.286L166.397 53.4471Z" fill="url(#paint4_linear_305_1511)"></path><path d="M167.017 114.683V114.296C166.684 115.573 166.018 116.739 165.087 117.675C164.234 118.453 163.074 119.348 162.78 120.215C162.486 121.082 164.15 121.474 165.25 121.366C166.321 121.235 167.307 120.718 168.023 119.912C168.727 119.111 168.713 118.561 169.04 118.118C169.366 117.675 170.121 117.186 170.298 116.668C170.349 116.196 170.297 115.719 170.144 115.27C170.018 114.804 169.883 114.268 169.72 114.314V114.608C169.336 114.913 168.859 115.077 168.368 115.074C167.972 115.06 167.017 114.981 167.017 114.683Z" fill="#263238"></path><path d="M169.72 114.589C169.336 114.894 168.859 115.058 168.368 115.056C167.972 115.056 167.017 114.99 167.017 114.692V114.305C166.684 115.582 166.018 116.749 165.087 117.684L164.439 118.262C163.973 118.766 164.113 119.195 165.18 119.297C166.248 119.4 167.18 118.747 167.977 117.759C168.667 116.766 169.251 115.704 169.72 114.589Z" fill="#FFA8A7"></path><path d="M159.811 41.7668C159.126 42.1723 158.277 43.8969 158.361 47.5091C158.431 50.5714 159.424 51.3264 159.923 51.5455C160.421 51.7646 161.386 51.6294 162.318 51.4756V53.312C162.318 53.312 161.027 54.8128 161.107 55.6425C161.186 56.4721 162.971 56.6865 164.183 55.8615C165.057 55.183 165.81 54.3621 166.411 53.4332V49.2057C166.411 49.2057 166.961 49.7417 167.893 48.9261C168.662 48.2502 168.923 47.1176 168.322 46.507C168.166 46.3633 167.978 46.2585 167.774 46.201C167.57 46.1436 167.355 46.1352 167.147 46.1766C166.939 46.2179 166.743 46.3078 166.576 46.4389C166.41 46.5701 166.276 46.7387 166.187 46.9312C166.187 46.9312 165.67 45.4909 163.516 44.7871C161.549 44.1672 160.491 43.4355 159.811 41.7668Z" fill="#FFA8A7"></path><path d="M161.782 46.7401C161.779 46.7913 161.785 46.8428 161.801 46.8915C161.818 46.9401 161.843 46.9851 161.877 47.0237C161.911 47.0623 161.952 47.0938 161.998 47.1163C162.045 47.1389 162.095 47.152 162.146 47.155C162.226 47.1624 162.306 47.1456 162.376 47.107C162.447 47.0683 162.504 47.0094 162.54 46.938C162.576 46.8666 162.591 46.7858 162.581 46.7063C162.571 46.6267 162.537 46.5519 162.484 46.4916C162.432 46.4313 162.362 46.3883 162.284 46.368C162.207 46.3477 162.125 46.3512 162.049 46.378C161.974 46.4047 161.908 46.4535 161.86 46.5181C161.813 46.5827 161.786 46.66 161.782 46.7401Z" fill="#263238"></path><path d="M161.68 49.3362L160.804 49.6158C160.82 49.6755 160.849 49.7313 160.887 49.7799C160.926 49.8285 160.973 49.869 161.027 49.899C161.082 49.9289 161.141 49.9477 161.203 49.9543C161.265 49.9609 161.327 49.9552 161.386 49.9374C161.502 49.8932 161.597 49.8065 161.652 49.6948C161.706 49.5832 161.717 49.455 161.68 49.3362Z" fill="#F28F8F"></path><path d="M158.622 45.5562L159.405 45.0155C159.372 44.9643 159.328 44.9202 159.277 44.8859C159.226 44.8516 159.169 44.8277 159.109 44.8156C159.048 44.8034 158.986 44.8033 158.926 44.8153C158.866 44.8272 158.809 44.8509 158.758 44.885C158.654 44.9585 158.582 45.0689 158.557 45.1937C158.531 45.3185 158.555 45.4482 158.622 45.5562Z" fill="#263238"></path><path d="M162.901 45.8405L162.123 45.2998C162.157 45.2486 162.2 45.2045 162.251 45.1702C162.302 45.1359 162.359 45.112 162.419 45.0999C162.48 45.0877 162.542 45.0876 162.602 45.0996C162.662 45.1115 162.72 45.1352 162.771 45.1693C162.875 45.2428 162.946 45.3536 162.971 45.4787C162.995 45.6037 162.97 45.7334 162.901 45.8405Z" fill="#263238"></path><path d="M158.804 46.4603C158.8 46.5118 158.807 46.5635 158.823 46.6124C158.839 46.6614 158.865 46.7067 158.899 46.7457C158.933 46.7846 158.974 46.8165 159.02 46.8396C159.066 46.8626 159.116 46.8763 159.168 46.8798C159.247 46.8872 159.327 46.8705 159.397 46.832C159.468 46.7935 159.525 46.7349 159.561 46.6637C159.598 46.5926 159.612 46.5121 159.602 46.4327C159.593 46.3533 159.56 46.2786 159.507 46.2182C159.455 46.1577 159.386 46.1143 159.309 46.0936C159.231 46.0728 159.15 46.0756 159.074 46.1017C158.998 46.1277 158.932 46.1758 158.884 46.2397C158.836 46.3036 158.808 46.3805 158.804 46.4603Z" fill="#263238"></path><path d="M160.622 46.2413L160.561 48.5578L159.34 48.1803L160.622 46.2413Z" fill="#F28F8F"></path><path d="M162.318 51.4803C163.302 51.3498 165.329 50.7671 165.646 49.9655C165.519 50.3723 165.27 50.7302 164.933 50.9909C164.332 51.5082 162.318 52.0955 162.318 52.0955V51.4803Z" fill="#F28F8F"></path><path d="M169.613 63.0767L166.597 67.8355L168.629 66.5304L169.613 63.0767Z" fill="url(#paint5_linear_305_1511)"></path><g opacity="0.2"><path opacity="0.2" d="M169.613 63.0767L166.597 67.8355L168.629 66.5304L169.613 63.0767Z" fill="black"></path></g><path d="M33.7137 163.93L33.434 163.772C33.1998 163.618 33.0048 163.411 32.8648 163.168C32.7247 162.926 32.6435 162.653 32.6277 162.373V83.3471C32.6424 83.067 32.7232 82.7944 32.8633 82.5514C33.0034 82.3084 33.199 82.1019 33.434 81.9489L84.8303 52.2726C85.0662 52.1201 85.2626 51.9138 85.4036 51.6708C85.5446 51.4278 85.626 51.1549 85.6413 50.8743V46.1808C85.6568 45.9008 85.7378 45.6284 85.8779 45.3856C86.0179 45.1427 86.2131 44.9361 86.4476 44.7825L109.445 31.5081C109.694 31.3794 109.971 31.3122 110.251 31.3122C110.532 31.3122 110.808 31.3794 111.057 31.5081L111.337 31.6666C111.572 31.8197 111.768 32.0261 111.908 32.2691C112.048 32.5121 112.129 32.7848 112.143 33.0649V35.5725C112.143 36.0898 112.507 36.2949 112.954 36.0386L134.059 23.8548C134.309 23.7283 134.585 23.6624 134.866 23.6624C135.146 23.6624 135.422 23.7283 135.672 23.8548L135.952 24.018C136.187 24.1708 136.383 24.3772 136.523 24.6202C136.663 24.8633 136.743 25.1361 136.758 25.4163V104.438C136.743 104.718 136.663 104.991 136.523 105.234C136.383 105.477 136.187 105.683 135.952 105.836L35.3264 163.93C35.0771 164.059 34.8006 164.126 34.52 164.126C34.2395 164.126 33.963 164.059 33.7137 163.93Z" fill="#E0E0E0"></path><path d="M34.52 163.464V84.4424C34.5351 84.1624 34.616 83.8899 34.7561 83.647C34.8962 83.404 35.0916 83.1975 35.3264 83.0442L86.7273 53.3679C86.9615 53.214 87.1565 53.0074 87.2965 52.7646C87.4366 52.5217 87.5178 52.2495 87.5336 51.9696V47.2854C87.548 47.0052 87.6286 46.7324 87.7687 46.4893C87.9089 46.2463 88.1046 46.0399 88.34 45.8871L111.337 32.6081C111.803 32.3517 112.143 32.5615 112.143 33.0742V37.7677C112.143 38.2851 112.507 38.4902 112.954 38.2338L135.952 24.9595C136.418 24.6984 136.758 24.9082 136.758 25.4256V104.438C136.743 104.718 136.663 104.991 136.523 105.234C136.383 105.477 136.187 105.683 135.952 105.836L35.3264 163.93C34.8836 164.191 34.52 163.981 34.52 163.464Z" fill="#F5F5F5"></path><path d="M32.6277 88.3017V88.9869L34.52 90.0822L136.758 31.042V25.4116C136.742 25.1318 136.66 24.8597 136.52 24.617C136.38 24.3742 136.186 24.1675 135.952 24.0133L135.672 23.8548C135.422 23.7283 135.146 23.6624 134.866 23.6624C134.585 23.6624 134.309 23.7283 134.059 23.8548L112.95 36.0386C112.507 36.2949 112.143 36.0898 112.143 35.5725V33.0649C112.129 32.7848 112.048 32.5121 111.908 32.2691C111.768 32.0261 111.572 31.8197 111.337 31.6666L111.057 31.5081C110.808 31.3794 110.532 31.3122 110.251 31.3122C109.971 31.3122 109.694 31.3794 109.445 31.5081L86.4476 44.7825C86.2125 44.9359 86.0166 45.1423 85.8758 45.3851C85.7349 45.628 85.653 45.9005 85.6366 46.1808V50.8743C85.6222 51.1545 85.5416 51.4273 85.4015 51.6704C85.2613 51.9134 85.0656 52.1198 84.8303 52.2726L33.434 81.9489C33.199 82.1019 33.0034 82.3084 32.8633 82.5514C32.7232 82.7944 32.6424 83.067 32.6277 83.3471V88.3017Z" fill="#37474F"></path><path d="M32.6277 88.3017V88.9869L34.52 90.0822L136.758 31.042V25.4116C136.742 25.1318 136.66 24.8597 136.52 24.617C136.38 24.3742 136.186 24.1675 135.952 24.0133L135.672 23.8548C135.422 23.7283 135.146 23.6624 134.866 23.6624C134.585 23.6624 134.309 23.7283 134.059 23.8548L112.95 36.0386C112.507 36.2949 112.143 36.0898 112.143 35.5725V33.0649C112.129 32.7848 112.048 32.5121 111.908 32.2691C111.768 32.0261 111.572 31.8197 111.337 31.6666L111.057 31.5081C110.808 31.3794 110.532 31.3122 110.251 31.3122C109.971 31.3122 109.694 31.3794 109.445 31.5081L86.4476 44.7825C86.2125 44.9359 86.0166 45.1423 85.8758 45.3851C85.7349 45.628 85.653 45.9005 85.6366 46.1808V50.8743C85.6222 51.1545 85.5416 51.4273 85.4015 51.6704C85.2613 51.9134 85.0656 52.1198 84.8303 52.2726L33.434 81.9489C33.199 82.1019 33.0034 82.3084 32.8633 82.5514C32.7232 82.7944 32.6424 83.067 32.6277 83.3471V88.3017Z" fill="#FAFAFA"></path><path d="M89.426 53.9925V47.4346L85.8743 45.3884C85.7293 45.6282 85.6475 45.9008 85.6366 46.1808V50.8744C85.6281 51.1556 85.5479 51.4299 85.4036 51.6714L89.426 53.9925Z" fill="#E0E0E0"></path><path d="M36.4124 84.601L32.8654 82.5502C32.7188 82.7909 32.6369 83.0655 32.6277 83.3472V88.973L34.52 90.0683L36.4124 84.601Z" fill="#E0E0E0"></path><path d="M86.7273 53.3679L35.3264 83.0442C35.0916 83.1975 34.8962 83.404 34.7561 83.647C34.616 83.8899 34.5351 84.1624 34.52 84.4424V90.0682L136.758 31.042V25.4116C136.758 24.8989 136.394 24.6891 135.952 24.9455L112.95 38.2245C112.507 38.4855 112.143 38.2758 112.143 37.7584V33.0648C112.143 32.5521 111.785 32.3424 111.337 32.5987L88.34 45.8871C88.1046 46.0399 87.9089 46.2463 87.7687 46.4893C87.6286 46.7324 87.548 47.0052 87.5336 47.2854V51.979C87.5163 52.2572 87.4345 52.5276 87.2945 52.7687C87.1545 53.0098 86.9603 53.2149 86.7273 53.3679Z" fill="#EBEBEB"></path><g style="mix-blend-mode:multiply" opacity="0.7"><g style="mix-blend-mode:multiply" opacity="0.7"><path d="M39.5305 83.4915L37.8759 84.4237L38.5098 83.333C38.529 83.3066 38.5424 83.2765 38.5492 83.2446C38.556 83.2128 38.5561 83.1798 38.5493 83.1479C38.5426 83.116 38.5293 83.0858 38.5102 83.0594C38.4911 83.033 38.4666 83.0109 38.4384 82.9945C38.4103 82.9781 38.3789 82.9678 38.3465 82.9643C38.3141 82.9607 38.2813 82.964 38.2503 82.974C38.2192 82.9839 38.1906 83.0003 38.1662 83.022C38.1419 83.0437 38.1224 83.0702 38.1089 83.1L37.0323 84.9643C37.0196 84.9922 37.0131 85.0223 37.0131 85.0529C37.0131 85.0834 37.0196 85.1136 37.0323 85.1415C37.0394 85.1716 37.0532 85.1997 37.0725 85.2239C37.0919 85.2481 37.1163 85.2677 37.1441 85.2813L38.2208 85.8872C38.2539 85.9092 38.2929 85.9206 38.3327 85.9198C38.3744 85.919 38.4152 85.9074 38.4511 85.8862C38.4871 85.8649 38.5169 85.8348 38.5378 85.7986C38.5667 85.7446 38.5737 85.6814 38.5572 85.6224C38.5407 85.5633 38.502 85.5129 38.4492 85.4817L37.7267 85.0762L39.7869 83.8877C39.8135 83.8724 39.8369 83.852 39.8556 83.8276C39.8743 83.8033 39.8881 83.7755 39.8961 83.7459C39.9041 83.7162 39.9062 83.6853 39.9023 83.6548C39.8983 83.6244 39.8884 83.595 39.8731 83.5684C39.8578 83.5418 39.8374 83.5184 39.8131 83.4997C39.7888 83.4809 39.761 83.4671 39.7313 83.4591C39.7017 83.4511 39.6708 83.449 39.6403 83.453C39.6098 83.4569 39.5805 83.4669 39.5538 83.4822L39.5305 83.4915Z" fill="#E0E0E0"></path></g><g style="mix-blend-mode:multiply" opacity="0.7"><path d="M43.3851 81.5991C43.3692 81.539 43.3309 81.4873 43.2779 81.4547L42.2012 80.8487C42.1743 80.8337 42.1447 80.8242 42.1141 80.8207C42.0834 80.8171 42.0524 80.8196 42.0228 80.8281C41.9931 80.8365 41.9654 80.8507 41.9413 80.8698C41.9171 80.889 41.897 80.9127 41.882 80.9396C41.867 80.9666 41.8574 80.9962 41.8539 81.0268C41.8503 81.0574 41.8528 81.0884 41.8613 81.1181C41.8697 81.1477 41.8839 81.1754 41.9031 81.1996C41.9222 81.2238 41.9459 81.2439 41.9728 81.2589L42.6906 81.6597L40.6305 82.8529C40.5777 82.8841 40.539 82.9345 40.5225 82.9936C40.506 83.0527 40.513 83.1158 40.5419 83.1699C40.563 83.2055 40.593 83.235 40.629 83.2554C40.665 83.2758 40.7056 83.2865 40.747 83.2864C40.7875 83.2861 40.8273 83.2765 40.8635 83.2584L42.5182 82.2983L41.8843 83.389C41.8535 83.4429 41.845 83.5068 41.8607 83.5669C41.8764 83.627 41.9149 83.6785 41.9682 83.7106C42.0039 83.7306 42.0438 83.7418 42.0847 83.7432C42.1254 83.7429 42.1653 83.7321 42.2004 83.7116C42.2356 83.6912 42.2648 83.6619 42.2851 83.6267L43.3618 81.7623C43.3763 81.738 43.3858 81.711 43.3898 81.6831C43.3938 81.6551 43.3922 81.6265 43.3851 81.5991Z" fill="#E0E0E0"></path></g></g><path d="M46.8902 78.551L120.608 35.9965C121.162 35.6749 121.614 35.9033 121.614 36.5046C121.59 36.8436 121.486 37.1721 121.311 37.4636C121.136 37.7551 120.895 38.0014 120.608 38.1825L46.8902 80.7416C46.3355 81.0632 45.8834 80.8348 45.8834 80.2289C45.9086 79.89 46.0128 79.5618 46.1876 79.2704C46.3624 78.979 46.6031 78.7326 46.8902 78.551Z" fill="#E0E0E0"></path><path d="M124.448 33.7686C124.975 33.4657 125.38 33.7127 125.38 34.314C125.365 34.6415 125.273 34.9608 125.111 35.2459C124.949 35.531 124.722 35.7738 124.448 35.9546C123.926 36.2576 123.516 36.0105 123.516 35.4093C123.532 35.0819 123.625 34.7629 123.787 34.4779C123.949 34.193 124.175 33.95 124.448 33.7686Z" fill="#FAFAFA"></path><path d="M128.242 31.5874C128.764 31.2844 129.175 31.5314 129.175 32.1327C129.159 32.46 129.066 32.7791 128.904 33.064C128.742 33.349 128.515 33.592 128.242 33.7733C127.72 34.0763 127.31 33.8293 127.31 33.228C127.326 32.9006 127.419 32.5816 127.581 32.2966C127.743 32.0117 127.969 31.7687 128.242 31.5874Z" fill="#FAFAFA"></path><path d="M132.027 29.4013C132.549 29.0984 132.959 29.3454 132.959 29.9466C132.943 30.274 132.85 30.593 132.689 30.878C132.527 31.163 132.3 31.4059 132.027 31.5873C131.505 31.8903 131.095 31.6432 131.095 31.042C131.111 30.7146 131.204 30.3956 131.366 30.1106C131.527 29.8256 131.754 29.5827 132.027 29.4013Z" fill="#FAFAFA"></path><g style="mix-blend-mode:multiply" opacity="0.7"><g style="mix-blend-mode:multiply" opacity="0.7"><path d="M93.22 46.3533C93.22 46.9545 93.6861 47.1829 94.2314 46.8613L105.464 40.3779C105.753 40.1976 105.995 39.9516 106.171 39.6601C106.347 39.3685 106.451 39.0396 106.476 38.7C106.476 38.0987 106.01 37.8704 105.464 38.192L94.2314 44.6753C93.9426 44.8557 93.7005 45.1016 93.5248 45.3932C93.349 45.6848 93.2446 46.0137 93.22 46.3533Z" fill="#E0E0E0"></path></g><g style="mix-blend-mode:multiply" opacity="0.7"><path d="M90.3721 46.8892C90.0991 47.0706 89.8725 47.3135 89.7106 47.5985C89.5487 47.8835 89.456 48.2025 89.4399 48.5299C89.4399 49.1311 89.8641 49.3782 90.3721 49.0752C90.6451 48.8938 90.8717 48.6509 91.0336 48.3659C91.1956 48.0809 91.2883 47.7619 91.3043 47.4345C91.3183 46.8193 90.8895 46.5862 90.3721 46.8892Z" fill="url(#paint6_linear_305_1511)"></path></g><g style="mix-blend-mode:multiply" opacity="0.7"><path d="M110.251 37.833C110.21 37.8309 110.17 37.8198 110.135 37.8004L108.242 36.7051C108.212 36.6916 108.186 36.6721 108.164 36.6478C108.142 36.6234 108.126 36.5948 108.116 36.5637C108.106 36.5327 108.103 36.4999 108.106 36.4675C108.11 36.4351 108.12 36.4037 108.137 36.3756C108.153 36.3474 108.175 36.3229 108.202 36.3038C108.228 36.2847 108.258 36.2714 108.29 36.2647C108.322 36.2579 108.355 36.258 108.387 36.2648C108.419 36.2716 108.449 36.285 108.475 36.3042L110.368 37.3949C110.421 37.4269 110.459 37.4785 110.475 37.5386C110.491 37.5987 110.482 37.6625 110.451 37.7165C110.431 37.7517 110.402 37.781 110.367 37.8014C110.332 37.8219 110.292 37.8328 110.251 37.833Z" fill="#E0E0E0"></path></g><g style="mix-blend-mode:multiply" opacity="0.7"><path d="M108.359 38.9236C108.318 38.9244 108.277 38.9131 108.242 38.891C108.216 38.876 108.192 38.8559 108.173 38.8317C108.155 38.8075 108.141 38.7798 108.133 38.7503C108.125 38.7207 108.124 38.6899 108.128 38.6596C108.132 38.6293 108.143 38.6002 108.158 38.574L110.051 35.3114C110.064 35.2817 110.084 35.2551 110.108 35.2334C110.132 35.2117 110.161 35.1954 110.192 35.1854C110.223 35.1755 110.256 35.1722 110.288 35.1757C110.321 35.1792 110.352 35.1895 110.38 35.2059C110.408 35.2223 110.433 35.2444 110.452 35.2708C110.471 35.2973 110.484 35.3274 110.491 35.3593C110.498 35.3912 110.498 35.4242 110.491 35.4561C110.484 35.488 110.471 35.5181 110.452 35.5444L108.559 38.8071C108.539 38.8423 108.51 38.8716 108.474 38.892C108.439 38.9125 108.399 38.9234 108.359 38.9236Z" fill="#E0E0E0"></path></g></g><path d="M39.3954 167.211L39.1157 167.048C38.8804 166.896 38.6847 166.689 38.5445 166.446C38.4043 166.203 38.3238 165.93 38.3094 165.65V86.6284C38.3247 86.3479 38.4061 86.0749 38.5471 85.8319C38.688 85.5889 38.8845 85.3827 39.1204 85.2301L65.9022 69.7651C66.1378 69.6123 66.3341 69.406 66.475 69.163C66.6159 68.9201 66.6975 68.6473 66.7132 68.3668V63.6733C66.7265 63.3928 66.8066 63.1196 66.9468 62.8763C67.0871 62.6331 67.2834 62.4269 67.5195 62.275L90.5166 48.9959C90.7666 48.8694 91.0428 48.8034 91.323 48.8034C91.6031 48.8034 91.8794 48.8694 92.1293 48.9959L92.409 49.1591C92.6443 49.3119 92.84 49.5182 92.9802 49.7613C93.1204 50.0044 93.2009 50.2772 93.2153 50.5574V53.0649C93.2153 53.5776 93.5789 53.7874 94.0263 53.531L139.736 27.1314C139.987 27.0052 140.264 26.9395 140.545 26.9395C140.826 26.9395 141.103 27.0052 141.354 27.1314L141.629 27.2946C141.864 27.4474 142.06 27.6537 142.201 27.8967C142.342 28.1396 142.424 28.4124 142.44 28.6929V107.719C142.423 107.999 142.341 108.272 142.2 108.515C142.06 108.758 141.864 108.964 141.629 109.117L41.0174 167.211C40.7662 167.34 40.4883 167.406 40.2064 167.406C39.9245 167.406 39.6465 167.34 39.3954 167.211Z" fill="#E0E0E0"></path><path d="M40.2017 166.745V87.7191C40.2165 87.439 40.2972 87.1663 40.4373 86.9233C40.5775 86.6803 40.773 86.4739 41.0081 86.3208L67.7945 70.8558C68.0293 70.7025 68.2247 70.4959 68.3648 70.253C68.5048 70.0101 68.5857 69.7376 68.6009 69.4575V64.764C68.6164 64.484 68.6974 64.2116 68.8375 63.9687C68.9775 63.7259 69.1727 63.5193 69.4072 63.3657L92.4043 50.082C92.8704 49.821 93.2106 50.0307 93.2106 50.5481V55.2416C93.2106 55.7544 93.5742 55.9641 94.0217 55.7077L141.629 28.2082C142.095 27.9518 142.44 28.1616 142.44 28.6743V107.719C142.423 107.999 142.341 108.272 142.2 108.515C142.06 108.758 141.864 108.964 141.629 109.118L41.0174 167.212C40.5513 167.468 40.2017 167.258 40.2017 166.745Z" fill="#FAFAFA"></path><path d="M38.3093 91.5643V92.2542L40.2017 93.3448L142.44 34.3186V28.6929C142.424 28.4124 142.342 28.1396 142.201 27.8967C142.06 27.6537 141.864 27.4474 141.629 27.2946L141.354 27.1314C141.103 27.0052 140.826 26.9395 140.545 26.9395C140.264 26.9395 139.987 27.0052 139.736 27.1314L94.0216 53.531C93.5555 53.7874 93.2106 53.5776 93.2106 53.0649V50.548C93.1962 50.2678 93.1157 49.995 92.9755 49.752C92.8353 49.5089 92.6396 49.3025 92.4043 49.1497L92.1246 48.9866C91.8747 48.8601 91.5984 48.7941 91.3183 48.7941C91.0381 48.7941 90.7619 48.8601 90.5119 48.9866L67.5148 62.2656C67.2789 62.4182 67.0825 62.6244 66.9415 62.8674C66.8006 63.1105 66.7191 63.3834 66.7038 63.6639V68.3575C66.6882 68.6379 66.6066 68.9107 66.4657 69.1537C66.3247 69.3967 66.1285 69.6029 65.8928 69.7558L39.111 85.2208C38.8757 85.3736 38.68 85.58 38.5398 85.823C38.3997 86.0661 38.3191 86.3389 38.3047 86.6191L38.3093 91.5643Z" fill="#F0F0F0"></path><path d="M70.4932 71.485V64.927L66.9415 62.8762C66.7965 63.1177 66.7147 63.3918 66.7038 63.6732V68.3668C66.6923 68.6482 66.6106 68.9222 66.4661 69.1638L70.4932 71.485Z" fill="#E0E0E0"></path><path d="M42.0941 87.8822L38.5424 85.8314C38.3981 86.0729 38.3179 86.3472 38.3094 86.6284V92.2542L40.2017 93.3449L42.0941 87.8822Z" fill="#E0E0E0"></path><path d="M67.7945 70.8557L41.0174 86.3207C40.7824 86.4738 40.5868 86.6803 40.4467 86.9233C40.3065 87.1662 40.2258 87.4389 40.2111 87.719V93.3448L142.44 34.3186V28.6928C142.44 28.1801 142.076 27.9704 141.629 28.2267L94.0217 55.7263C93.5556 55.9826 93.2107 55.7729 93.2107 55.2602V50.548C93.2107 50.0306 92.8518 49.8209 92.4043 50.0819L69.4072 63.3656C69.1727 63.5192 68.9775 63.7258 68.8375 63.9687C68.6974 64.2115 68.6164 64.4839 68.6009 64.7639V69.4574C68.5857 69.7375 68.5049 70.01 68.3648 70.2529C68.2247 70.4959 68.0293 70.7024 67.7945 70.8557Z" fill="#E0E0E0"></path><g style="mix-blend-mode:multiply" opacity="0.7"><g style="mix-blend-mode:multiply" opacity="0.7"><path d="M45.2123 86.773L43.5576 87.7285L44.1915 86.6378C44.2107 86.6114 44.2241 86.5813 44.2309 86.5495C44.2377 86.5176 44.2378 86.4846 44.2311 86.4527C44.2243 86.4208 44.211 86.3906 44.1919 86.3642C44.1728 86.3378 44.1484 86.3157 44.1202 86.2993C44.092 86.2829 44.0607 86.2726 44.0282 86.2691C43.9958 86.2655 43.963 86.2689 43.932 86.2788C43.9009 86.2887 43.8723 86.3051 43.8479 86.3268C43.8236 86.3485 43.8041 86.3751 43.7907 86.4048L42.714 88.2691C42.6824 88.3224 42.6724 88.3858 42.686 88.4463C42.705 88.5061 42.7447 88.5573 42.7979 88.5907L43.8746 89.1967C43.9106 89.2152 43.9506 89.2248 43.9911 89.2246C44.0416 89.2231 44.0902 89.2053 44.1296 89.1738C44.1691 89.1423 44.1972 89.0988 44.2099 89.0499C44.2225 89.001 44.2189 88.9494 44.1996 88.9027C44.1803 88.856 44.1464 88.8169 44.1029 88.7912L43.3852 88.3857L45.4453 87.1925C45.492 87.1585 45.5244 87.1085 45.5363 87.052C45.5482 86.9956 45.5387 86.9367 45.5097 86.8869C45.4807 86.837 45.4342 86.7996 45.3793 86.782C45.3243 86.7645 45.2648 86.7679 45.2123 86.7916V86.773Z" fill="#E0E0E0"></path></g><g style="mix-blend-mode:multiply" opacity="0.7"><path d="M49.0668 84.8759C49.0588 84.8462 49.0448 84.8184 49.0255 84.7943C49.0063 84.7703 48.9823 84.7504 48.955 84.7361L47.8783 84.1302C47.8245 84.1 47.7609 84.0923 47.7015 84.1089C47.6421 84.1255 47.5917 84.165 47.5614 84.2187C47.5312 84.2725 47.5235 84.3361 47.5401 84.3955C47.5567 84.4549 47.5962 84.5053 47.6499 84.5357L48.3724 84.9412L46.3076 86.1344C46.2638 86.1603 46.2298 86.1999 46.2106 86.247C46.1914 86.2941 46.1882 86.3462 46.2014 86.3953C46.2146 86.4444 46.2435 86.4879 46.2837 86.519C46.3239 86.5502 46.3732 86.5673 46.4241 86.5678C46.4653 86.5686 46.5058 86.5573 46.5406 86.5352L48.1999 85.5797L47.566 86.6704C47.5503 86.6966 47.5399 86.7257 47.5356 86.7559C47.5313 86.7862 47.5331 86.817 47.5409 86.8466C47.5487 86.8762 47.5624 86.9038 47.5811 86.928C47.5999 86.9522 47.6233 86.9724 47.6499 86.9873C47.6845 87.0099 47.7252 87.0213 47.7664 87.0199C47.8071 87.0197 47.847 87.0088 47.8822 86.9884C47.9173 86.9679 47.9465 86.9386 47.9669 86.9034L49.0435 85.039C49.0713 84.9895 49.0797 84.9313 49.0668 84.8759Z" fill="#E0E0E0"></path></g></g><path d="M52.5719 81.8323L126.285 39.2732C126.844 38.9516 127.296 39.18 127.296 39.7859C127.271 40.1247 127.166 40.4527 126.99 40.7434C126.815 41.0341 126.573 41.2793 126.285 41.4592L52.5719 84.0183C52.0172 84.3399 51.5651 84.1115 51.5651 83.5103C51.5896 83.1712 51.6935 82.8427 51.8684 82.5512C52.0432 82.2597 52.2842 82.0135 52.5719 81.8323Z" fill="#E0E0E0"></path><path d="M130.135 37.0314C130.657 36.7331 131.067 36.9754 131.067 37.5814C131.051 37.9081 130.958 38.2264 130.796 38.5107C130.634 38.7949 130.408 39.037 130.135 39.2173C129.613 39.5203 129.203 39.2779 129.203 38.672C129.219 38.3448 129.312 38.0261 129.474 37.7412C129.636 37.4564 129.862 37.2133 130.135 37.0314Z" fill="#FAFAFA"></path><path d="M133.919 34.864C134.446 34.5657 134.852 34.8081 134.852 35.414C134.836 35.7408 134.743 36.0593 134.581 36.3436C134.419 36.6279 134.193 36.8699 133.919 37.05C133.397 37.3529 132.987 37.1106 132.987 36.5047C133.004 36.1775 133.097 35.8587 133.259 35.5739C133.421 35.289 133.647 35.0459 133.919 34.864Z" fill="#FAFAFA"></path><path d="M137.709 32.678C138.231 32.3797 138.641 32.622 138.641 33.228C138.625 33.5547 138.532 33.873 138.37 34.1573C138.208 34.4415 137.982 34.6836 137.709 34.8639C137.187 35.1669 136.776 34.9245 136.776 34.3186C136.793 33.9914 136.886 33.6727 137.048 33.3878C137.21 33.103 137.436 32.8599 137.709 32.678Z" fill="#FAFAFA"></path><g style="mix-blend-mode:multiply" opacity="0.7"><g style="mix-blend-mode:multiply" opacity="0.7"><path d="M74.278 63.8317C74.278 64.4376 74.744 64.666 75.2894 64.3444L86.5223 57.8563C86.8104 57.6764 87.0521 57.4312 87.2279 57.1405C87.4036 56.8498 87.5084 56.5218 87.5337 56.183C87.5337 55.5771 87.0676 55.3487 86.5223 55.6703L75.2894 62.1584C75.0012 62.3383 74.7595 62.5835 74.5838 62.8742C74.4081 63.1649 74.3033 63.4929 74.278 63.8317Z" fill="#E0E0E0"></path></g><g style="mix-blend-mode:multiply" opacity="0.7"><path d="M71.4394 64.377C71.1669 64.5589 70.9407 64.802 70.7789 65.0868C70.617 65.3717 70.524 65.6904 70.5072 66.0176C70.5072 66.6235 70.9313 66.8659 71.4394 66.563C71.7123 66.3826 71.9389 66.1405 72.1008 65.8563C72.2628 65.5721 72.3555 65.2537 72.3716 64.927C72.3856 64.321 71.9614 64.0647 71.4394 64.377Z" fill="url(#paint7_linear_305_1511)"></path></g><g style="mix-blend-mode:multiply" opacity="0.7"><path d="M91.3183 55.3208C91.2772 55.321 91.2368 55.3097 91.2018 55.2881L89.3095 54.1975C89.2828 54.1822 89.2595 54.1618 89.2407 54.1374C89.222 54.1131 89.2082 54.0853 89.2002 54.0557C89.1922 54.026 89.1901 53.9951 89.1941 53.9646C89.198 53.9342 89.2079 53.9048 89.2232 53.8782C89.2385 53.8516 89.2589 53.8282 89.2833 53.8095C89.3076 53.7907 89.3354 53.777 89.365 53.769C89.3947 53.7609 89.4256 53.7589 89.4561 53.7628C89.4865 53.7668 89.5159 53.7767 89.5425 53.792L91.4349 54.8873C91.4786 54.9132 91.5127 54.9528 91.5318 54.9999C91.551 55.047 91.5542 55.0991 91.541 55.1482C91.5278 55.1973 91.4989 55.2408 91.4587 55.2719C91.4185 55.3031 91.3692 55.3202 91.3183 55.3208Z" fill="#E0E0E0"></path></g><g style="mix-blend-mode:multiply" opacity="0.7"><path d="M89.426 56.416C89.3851 56.4146 89.3451 56.4034 89.3094 56.3834C89.2565 56.3523 89.218 56.3015 89.2023 56.2422C89.1866 56.1829 89.195 56.1197 89.2255 56.0665L91.1179 52.8038C91.1313 52.7741 91.1508 52.7475 91.1752 52.7258C91.1995 52.7041 91.2281 52.6878 91.2592 52.6778C91.2903 52.6679 91.3231 52.6646 91.3555 52.6681C91.3879 52.6716 91.4192 52.6819 91.4474 52.6983C91.4756 52.7147 91.5 52.7368 91.5191 52.7633C91.5382 52.7897 91.5516 52.8198 91.5583 52.8517C91.565 52.8836 91.565 52.9166 91.5582 52.9485C91.5513 52.9804 91.5379 53.0105 91.5187 53.0369L89.6264 56.2995C89.6061 56.3347 89.5769 56.364 89.5417 56.3845C89.5065 56.4049 89.4666 56.4158 89.426 56.416Z" fill="#E0E0E0"></path></g></g><path d="M45.0724 170.488L44.7974 170.33C44.5617 170.177 44.3655 169.971 44.2246 169.728C44.0836 169.485 44.002 169.212 43.9864 168.931V89.9051C44.0022 89.6253 44.0834 89.353 44.2235 89.1102C44.3635 88.8674 44.5585 88.6608 44.7927 88.5069L46.9647 87.2531C47.2 87.1003 47.3958 86.8939 47.536 86.6508C47.6761 86.4078 47.7567 86.135 47.7711 85.8548V81.1612C47.7867 80.8808 47.8683 80.608 48.0092 80.365C48.1502 80.122 48.3464 79.9157 48.5821 79.7629L71.5792 66.4839C71.8291 66.3573 72.1054 66.2914 72.3855 66.2914C72.6657 66.2914 72.9419 66.3573 73.1919 66.4839L73.4715 66.647C73.7068 66.7998 73.9026 67.0062 74.0428 67.2492C74.1829 67.4923 74.2635 67.7651 74.2779 68.0453V70.5529C74.2779 71.0656 74.6414 71.2753 75.0842 71.019L145.423 30.4128C145.673 30.2863 145.949 30.2203 146.229 30.2203C146.509 30.2203 146.785 30.2863 147.035 30.4128L147.315 30.576C147.55 30.7288 147.746 30.9351 147.886 31.1782C148.026 31.4212 148.107 31.694 148.121 31.9742V110.996C148.107 111.276 148.026 111.549 147.886 111.792C147.746 112.035 147.55 112.241 147.315 112.394L46.6897 170.488C46.4396 170.617 46.1624 170.684 45.8811 170.684C45.5997 170.684 45.3225 170.617 45.0724 170.488Z" fill="#E0E0E0"></path><path d="M45.8834 170.022V91.0004C45.8987 90.7199 45.9801 90.447 46.1211 90.2039C46.2621 89.9609 46.4585 89.7547 46.6944 89.6021L48.8664 88.3483C49.1007 88.1944 49.2957 87.9878 49.4357 87.745C49.5757 87.5022 49.6569 87.2299 49.6728 86.9501V82.2425C49.6872 81.9623 49.7677 81.6895 49.9079 81.4464C50.048 81.2034 50.2438 80.997 50.4791 80.8442L73.4762 67.5652C73.9423 67.3088 74.2826 67.5139 74.2826 68.0313V72.7248C74.2826 73.2422 74.6461 73.4473 75.0889 73.1909L147.334 31.4941C147.8 31.2331 148.14 31.4429 148.14 31.9602V110.996C148.126 111.276 148.045 111.549 147.905 111.792C147.765 112.035 147.569 112.241 147.334 112.394L46.6898 170.488C46.2423 170.749 45.8834 170.539 45.8834 170.022Z" fill="#FAFAFA"></path><path d="M45.8787 96.6262L45.8834 111.928L148.117 52.9019V37.6L45.8787 96.6262Z" fill="url(#paint8_linear_305_1511)"></path><path d="M43.9864 95.5309V110.837L45.8834 111.928L45.8787 96.6262L43.9864 95.5309Z" fill="url(#paint9_linear_305_1511)"></path><path opacity="0.2" d="M43.9864 95.5309V110.837L45.8834 111.928L45.8787 96.6262L43.9864 95.5309Z" fill="black"></path><path d="M79.074 84.0183L112.167 64.9084V67.0944L79.074 86.2043C78.5147 86.5259 78.0626 86.2975 78.0626 85.6963C78.0876 85.3568 78.1922 85.028 78.3679 84.7365C78.5436 84.445 78.7855 84.1989 79.074 84.0183Z" fill="white"></path><path d="M114.987 63.2864L112.148 64.9271V67.1131L114.987 65.4631C115.26 65.2817 115.486 65.0388 115.648 64.7538C115.81 64.4688 115.903 64.1498 115.919 63.8224C115.933 63.2305 115.509 62.9835 114.987 63.2864Z" fill="white"></path><path d="M51.5604 113.005C52.6045 112.399 53.4528 112.888 53.4528 114.095C53.414 114.749 53.2226 115.385 52.894 115.951C52.5654 116.518 52.1087 117 51.5604 117.358C50.5164 117.959 49.6681 117.47 49.6681 116.263C49.7076 115.61 49.8993 114.975 50.2279 114.409C50.5565 113.844 51.0128 113.363 51.5604 113.005V113.005Z" fill="url(#paint10_linear_305_1511)"></path><path d="M56.3565 110.255L67.5848 103.767C68.1394 103.445 68.5915 103.674 68.5915 104.279C68.5663 104.618 68.4621 104.945 68.2873 105.236C68.1124 105.527 67.8718 105.772 67.5848 105.953L56.3472 112.441C55.7879 112.762 55.3405 112.534 55.3405 111.928C55.3656 111.589 55.4707 111.26 55.6474 110.969C55.824 110.678 56.067 110.434 56.3565 110.255V110.255Z" fill="url(#paint11_linear_305_1511)"></path><path d="M55.3498 114.659C55.3618 114.49 55.4137 114.327 55.5012 114.182C55.5887 114.037 55.7093 113.914 55.8532 113.825L62.4158 110.036C62.6954 109.873 62.9192 109.989 62.9192 110.287C62.9075 110.457 62.8558 110.622 62.7683 110.767C62.6808 110.913 62.56 111.036 62.4158 111.126L55.8532 114.916C55.5735 115.079 55.3498 114.962 55.3498 114.659Z" fill="url(#paint12_linear_305_1511)"></path><path opacity="0.3" d="M55.3498 114.659C55.3618 114.49 55.4137 114.327 55.5012 114.182C55.5887 114.037 55.7093 113.914 55.8532 113.825L62.4158 110.036C62.6954 109.873 62.9192 109.989 62.9192 110.287C62.9075 110.457 62.8558 110.622 62.7683 110.767C62.6808 110.913 62.56 111.036 62.4158 111.126L55.8532 114.916C55.5735 115.079 55.3498 114.962 55.3498 114.659Z" fill="white"></path><path d="M51.5604 121.394C52.6045 120.788 53.4528 121.278 53.4528 122.485C53.414 123.139 53.2226 123.775 52.894 124.341C52.5654 124.908 52.1087 125.389 51.5604 125.748C50.5164 126.349 49.6681 125.86 49.6681 124.652C49.7076 123.999 49.8993 123.365 50.2279 122.799C50.5565 122.233 51.0128 121.752 51.5604 121.394V121.394Z" fill="url(#paint13_linear_305_1511)"></path><path d="M56.3565 118.644L67.5848 112.156C68.1394 111.835 68.5915 112.063 68.5915 112.669C68.5663 113.007 68.4621 113.335 68.2873 113.626C68.1124 113.916 67.8718 114.162 67.5848 114.342L56.3472 120.83C55.7879 121.152 55.3405 120.924 55.3405 120.318C55.3656 119.978 55.4707 119.65 55.6474 119.359C55.824 119.068 56.067 118.823 56.3565 118.644V118.644Z" fill="url(#paint14_linear_305_1511)"></path><path d="M55.3498 123.049C55.3618 122.88 55.4137 122.716 55.5012 122.571C55.5887 122.426 55.7093 122.304 55.8532 122.215L62.4158 118.425C62.6954 118.262 62.9192 118.379 62.9192 118.677C62.9075 118.847 62.8558 119.011 62.7683 119.157C62.6808 119.303 62.56 119.426 62.4158 119.516L55.8532 123.305C55.5735 123.469 55.3498 123.352 55.3498 123.049Z" fill="url(#paint15_linear_305_1511)"></path><path opacity="0.3" d="M55.3498 123.049C55.3618 122.88 55.4137 122.716 55.5012 122.571C55.5887 122.426 55.7093 122.304 55.8532 122.215L62.4158 118.425C62.6954 118.262 62.9192 118.379 62.9192 118.677C62.9075 118.847 62.8558 119.011 62.7683 119.157C62.6808 119.303 62.56 119.426 62.4158 119.516L55.8532 123.305C55.5735 123.469 55.3498 123.352 55.3498 123.049Z" fill="white"></path><path d="M51.5604 130.716C52.6045 130.11 53.4528 130.6 53.4528 131.807C53.414 132.461 53.2226 133.096 52.894 133.663C52.5654 134.23 52.1087 134.711 51.5604 135.07C50.5164 135.671 49.6681 135.181 49.6681 133.974C49.7076 133.321 49.8993 132.687 50.2279 132.121C50.5565 131.555 51.0128 131.074 51.5604 130.716V130.716Z" fill="url(#paint16_linear_305_1511)"></path><path d="M56.3565 127.966L67.5848 121.478C68.1394 121.157 68.5915 121.385 68.5915 121.991C68.5663 122.329 68.4621 122.657 68.2873 122.947C68.1124 123.238 67.8718 123.484 67.5848 123.664L56.3472 130.152C55.7879 130.474 55.3405 130.246 55.3405 129.64C55.3656 129.3 55.4707 128.972 55.6474 128.681C55.824 128.39 56.067 128.145 56.3565 127.966Z" fill="url(#paint17_linear_305_1511)"></path><path d="M55.3498 132.371C55.3618 132.202 55.4137 132.038 55.5012 131.893C55.5887 131.748 55.7093 131.626 55.8532 131.537L62.4158 127.747C62.6954 127.584 62.9192 127.701 62.9192 127.999C62.9075 128.169 62.8558 128.333 62.7683 128.479C62.6808 128.625 62.56 128.748 62.4158 128.838L55.8532 132.627C55.5735 132.79 55.3498 132.674 55.3498 132.371Z" fill="url(#paint18_linear_305_1511)"></path><path opacity="0.3" d="M55.3498 132.371C55.3618 132.202 55.4137 132.038 55.5012 131.893C55.5887 131.748 55.7093 131.626 55.8532 131.537L62.4158 127.747C62.6954 127.584 62.9192 127.701 62.9192 127.999C62.9075 128.169 62.8558 128.333 62.7683 128.479C62.6808 128.625 62.56 128.748 62.4158 128.838L55.8532 132.627C55.5735 132.79 55.3498 132.674 55.3498 132.371Z" fill="white"></path><path d="M51.5604 145.631C52.6045 145.025 53.4528 145.515 53.4528 146.722C53.414 147.376 53.2226 148.011 52.894 148.578C52.5654 149.145 52.1087 149.626 51.5604 149.985C50.5164 150.586 49.6681 150.097 49.6681 148.889C49.7076 148.236 49.8993 147.602 50.2279 147.036C50.5565 146.47 51.0128 145.989 51.5604 145.631V145.631Z" fill="url(#paint19_linear_305_1511)"></path><path d="M56.3565 142.881L67.5848 136.393C68.1394 136.072 68.5915 136.3 68.5915 136.906C68.5663 137.244 68.4621 137.572 68.2873 137.863C68.1124 138.153 67.8718 138.399 67.5848 138.579L56.3472 145.067C55.7879 145.389 55.3405 145.161 55.3405 144.555C55.3656 144.215 55.4707 143.887 55.6474 143.596C55.824 143.305 56.067 143.06 56.3565 142.881Z" fill="url(#paint20_linear_305_1511)"></path><path d="M55.3498 147.286C55.3618 147.117 55.4137 146.953 55.5012 146.808C55.5887 146.663 55.7093 146.541 55.8532 146.452L62.4158 142.662C62.6954 142.499 62.9192 142.616 62.9192 142.914C62.9075 143.084 62.8558 143.248 62.7683 143.394C62.6808 143.54 62.56 143.663 62.4158 143.753L55.8532 147.542C55.5735 147.706 55.3498 147.589 55.3498 147.286Z" fill="url(#paint21_linear_305_1511)"></path><path opacity="0.3" d="M55.3498 147.286C55.3618 147.117 55.4137 146.953 55.5012 146.808C55.5887 146.663 55.7093 146.541 55.8532 146.452L62.4158 142.662C62.6954 142.499 62.9192 142.616 62.9192 142.914C62.9075 143.084 62.8558 143.248 62.7683 143.394C62.6808 143.54 62.56 143.663 62.4158 143.753L55.8532 147.542C55.5735 147.706 55.3498 147.589 55.3498 147.286Z" fill="white"></path><path d="M51.5604 153.555C52.6045 152.949 53.4528 153.438 53.4528 154.646C53.414 155.299 53.2226 155.935 52.894 156.502C52.5654 157.068 52.1087 157.55 51.5604 157.908C50.5164 158.51 49.6681 158.02 49.6681 156.813C49.7076 156.16 49.8993 155.525 50.2279 154.96C50.5565 154.394 51.0128 153.913 51.5604 153.555V153.555Z" fill="url(#paint22_linear_305_1511)"></path><path d="M56.3565 150.805L67.5848 144.317C68.1394 143.995 68.5915 144.224 68.5915 144.83C68.5663 145.168 68.4621 145.495 68.2873 145.786C68.1124 146.077 67.8718 146.322 67.5848 146.503L56.3472 152.991C55.7879 153.313 55.3405 153.084 55.3405 152.478C55.3656 152.139 55.4707 151.81 55.6474 151.519C55.824 151.229 56.067 150.984 56.3565 150.805V150.805Z" fill="url(#paint23_linear_305_1511)"></path><path d="M55.3498 155.21C55.3618 155.041 55.4137 154.877 55.5012 154.732C55.5887 154.587 55.7093 154.465 55.8532 154.375L62.4158 150.586C62.6954 150.423 62.9192 150.539 62.9192 150.838C62.9075 151.007 62.8558 151.172 62.7683 151.318C62.6808 151.463 62.56 151.586 62.4158 151.677L55.8532 155.466C55.5735 155.629 55.3498 155.513 55.3498 155.21Z" fill="url(#paint24_linear_305_1511)"></path><path opacity="0.3" d="M55.3498 155.21C55.3618 155.041 55.4137 154.877 55.5012 154.732C55.5887 154.587 55.7093 154.465 55.8532 154.375L62.4158 150.586C62.6954 150.423 62.9192 150.539 62.9192 150.838C62.9075 151.007 62.8558 151.172 62.7683 151.318C62.6808 151.463 62.56 151.586 62.4158 151.677L55.8532 155.466C55.5735 155.629 55.3498 155.513 55.3498 155.21Z" fill="white"></path><path d="M47.7758 143.301V143.352C47.7758 143.506 47.883 143.571 48.0181 143.492L58.8921 137.214C58.9626 137.168 59.0213 137.106 59.0634 137.033C59.1055 136.96 59.1299 136.878 59.1345 136.794V136.743C59.1345 136.589 59.0273 136.524 58.8921 136.603L48.0088 142.863C47.9375 142.912 47.8791 142.977 47.8385 143.053C47.7979 143.129 47.7764 143.214 47.7758 143.301Z" fill="#E0E0E0"></path><path d="M75.2893 99.3249L126.28 69.8817C126.839 69.5601 127.291 69.8211 127.291 70.4643V89.9937C127.272 90.3441 127.171 90.6851 126.995 90.9888C126.819 91.2925 126.574 91.5504 126.28 91.7415L75.2893 121.185C74.7299 121.506 74.2778 121.245 74.2778 120.602V101.073C74.2961 100.722 74.3973 100.381 74.5732 100.077C74.749 99.7732 74.9944 99.5154 75.2893 99.3249V99.3249Z" fill="url(#paint25_linear_305_1511)"></path><path d="M78.0673 100.998C78.0673 101.599 78.5333 101.828 79.074 101.506L91.3183 94.4402C91.6065 94.2603 91.8482 94.0151 92.0239 93.7244C92.1996 93.4337 92.3044 93.1056 92.3298 92.7669C92.3298 92.161 91.8637 91.9326 91.3183 92.2542L79.074 99.3202C78.7869 99.5019 78.5463 99.7483 78.3715 100.04C78.1966 100.331 78.0925 100.659 78.0673 100.998Z" fill="#F5F5F5"></path><path d="M93.6581 91.9978C93.6581 92.6037 94.1242 92.8321 94.6648 92.5105L106.909 85.4398C107.196 85.2591 107.437 85.0136 107.612 84.723C107.787 84.4324 107.891 84.1048 107.916 83.7665C107.916 83.1606 107.45 82.9322 106.909 83.2538L94.6648 90.3245C94.3771 90.5043 94.1358 90.7497 93.9609 91.0404C93.7859 91.3312 93.6822 91.6593 93.6581 91.9978Z" fill="#F5F5F5"></path><path d="M109.244 82.9976C109.244 83.6035 109.71 83.8319 110.256 83.5103L122.495 76.4396C122.783 76.2626 123.025 76.0208 123.202 75.7335C123.379 75.4461 123.487 75.1213 123.516 74.785C123.516 74.1791 123.05 73.9507 122.505 74.2723L110.256 81.3103C109.966 81.4915 109.723 81.739 109.547 82.0323C109.371 82.3256 109.267 82.6564 109.244 82.9976Z" fill="#F5F5F5"></path><path d="M78.0673 116.3C78.0673 116.906 78.5333 117.134 79.074 116.813L122.495 91.7461C122.784 91.5655 123.026 91.3195 123.202 91.0279C123.377 90.7364 123.482 90.4076 123.507 90.0682C123.507 89.4669 123.041 89.2385 122.495 89.5601L79.074 114.627C78.787 114.807 78.5464 115.053 78.3715 115.344C78.1966 115.634 78.0924 115.962 78.0673 116.3Z" fill="#F5F5F5"></path><path d="M78.8736 103.813L122.686 78.5091C123.129 78.2527 123.493 78.4625 123.493 78.9752V85.8547C123.478 86.1347 123.397 86.4073 123.257 86.6502C123.117 86.8931 122.921 87.0996 122.686 87.253L78.8736 112.557C78.4308 112.814 78.0673 112.604 78.0673 112.091V105.212C78.0824 104.932 78.1633 104.659 78.3034 104.416C78.4435 104.173 78.6388 103.967 78.8736 103.813Z" fill="#F5F5F5"></path><path d="M75.2893 125.426L126.28 95.9829C126.839 95.6613 127.291 95.9223 127.291 96.5655V116.095C127.272 116.445 127.171 116.786 126.995 117.09C126.819 117.394 126.574 117.652 126.28 117.843L75.2893 147.286C74.7299 147.608 74.2778 147.347 74.2778 146.703V127.174C74.2961 126.823 74.3973 126.482 74.5732 126.178C74.749 125.874 74.9944 125.617 75.2893 125.426V125.426Z" fill="url(#paint26_linear_305_1511)"></path><path d="M78.0673 127.099C78.0673 127.701 78.5333 127.929 79.074 127.607L91.3183 120.542C91.6065 120.362 91.8482 120.116 92.0239 119.826C92.1996 119.535 92.3044 119.207 92.3298 118.868C92.3298 118.262 91.8637 118.034 91.3183 118.356L79.074 125.422C78.7869 125.603 78.5463 125.85 78.3715 126.141C78.1966 126.432 78.0925 126.761 78.0673 127.099Z" fill="#F5F5F5"></path><path d="M93.6581 118.099C93.6581 118.705 94.1242 118.933 94.6648 118.612L106.909 111.541C107.196 111.36 107.437 111.115 107.612 110.824C107.787 110.534 107.891 110.206 107.916 109.868C107.916 109.262 107.45 109.034 106.909 109.355L94.6648 116.426C94.3771 116.606 94.1358 116.851 93.9609 117.142C93.7859 117.433 93.6822 117.761 93.6581 118.099Z" fill="#F5F5F5"></path><path d="M109.244 109.099C109.244 109.705 109.71 109.933 110.256 109.612L122.495 102.541C122.783 102.364 123.025 102.122 123.202 101.835C123.379 101.547 123.487 101.223 123.516 100.886C123.516 100.28 123.05 100.052 122.505 100.374L110.256 107.412C109.966 107.593 109.723 107.84 109.547 108.134C109.371 108.427 109.267 108.758 109.244 109.099Z" fill="#F5F5F5"></path><path d="M78.0673 142.401C78.0673 143.007 78.5333 143.236 79.074 142.914L122.495 117.847C122.784 117.667 123.026 117.421 123.202 117.129C123.377 116.838 123.482 116.509 123.507 116.169C123.507 115.568 123.041 115.34 122.495 115.661L79.074 140.728C78.787 140.909 78.5464 141.154 78.3715 141.445C78.1966 141.735 78.0924 142.063 78.0673 142.401Z" fill="#F5F5F5"></path><path d="M78.8736 129.915L122.686 104.61C123.129 104.354 123.493 104.564 123.493 105.076V111.956C123.478 112.236 123.397 112.509 123.257 112.752C123.117 112.994 122.921 113.201 122.686 113.354L78.8736 138.659C78.4308 138.915 78.0673 138.705 78.0673 138.193V131.313C78.0824 131.033 78.1633 130.76 78.3034 130.517C78.4435 130.275 78.6388 130.068 78.8736 129.915Z" fill="#F5F5F5"></path><path d="M143.325 60.0425L132.092 66.5305C131.798 66.7216 131.553 66.9795 131.377 67.2833C131.201 67.587 131.1 67.928 131.081 68.2784V79.0638C131.081 79.707 131.547 79.968 132.092 79.6464L143.325 73.163C143.618 72.9709 143.862 72.7126 144.037 72.409C144.212 72.1054 144.313 71.765 144.332 71.4152V60.6251C144.332 59.9819 143.88 59.7209 143.325 60.0425Z" fill="url(#paint27_linear_305_1511)"></path><path d="M134.362 67.4113C135.131 66.9452 135.76 67.3274 135.76 68.213C135.734 68.6964 135.593 69.1667 135.35 69.5855C135.107 70.0043 134.769 70.3597 134.362 70.6227C133.593 71.0888 132.964 70.7066 132.964 69.821C132.992 69.3379 133.133 68.868 133.376 68.4494C133.618 68.0308 133.956 67.6752 134.362 67.4113Z" fill="#F5F5F5"></path><path d="M136.758 67.6584C136.771 67.4885 136.823 67.324 136.912 67.1783C137 67.0325 137.121 66.9096 137.266 66.8194L141.927 64.1254C142.202 63.9623 142.43 64.0788 142.43 64.3771C142.418 64.5471 142.365 64.7117 142.277 64.8575C142.188 65.0033 142.067 65.1262 141.922 65.2161L137.261 67.9147C136.986 68.0732 136.758 67.9614 136.758 67.6584Z" fill="#F5F5F5"></path><path d="M133.477 72.2867L141.931 67.4021C142.211 67.2436 142.44 67.3741 142.44 67.6957V70.9024C142.43 71.077 142.379 71.2469 142.292 71.3983C142.204 71.5497 142.083 71.6785 141.936 71.774L133.477 76.6494C133.197 76.8125 132.973 76.682 132.973 76.3604V73.1537C132.984 72.98 133.035 72.8112 133.122 72.6607C133.21 72.5102 133.331 72.3821 133.477 72.2867Z" fill="#F5F5F5"></path><path d="M143.325 75.349L132.092 81.8323C131.798 82.0234 131.553 82.2814 131.377 82.5851C131.201 82.8888 131.1 83.2298 131.081 83.5802V105.296C131.081 105.939 131.547 106.2 132.092 105.878L143.325 99.3948C143.618 99.2026 143.862 98.9444 144.037 98.6408C144.212 98.3372 144.313 97.9968 144.332 97.6469V75.9316C144.332 75.2837 143.88 75.0274 143.325 75.349Z" fill="url(#paint28_linear_305_1511)"></path><path d="M134.362 82.7086C135.131 82.2658 135.76 82.6247 135.76 83.5149C135.733 83.9981 135.592 84.468 135.349 84.8866C135.106 85.3052 134.768 85.6608 134.362 85.9246C133.593 86.3907 132.964 86.0085 132.964 85.1183C132.992 84.6352 133.133 84.1655 133.376 83.7469C133.619 83.3284 133.957 82.9727 134.362 82.7086Z" fill="#F5F5F5"></path><path d="M136.758 82.9603C136.771 82.791 136.823 82.6272 136.912 82.4822C137 82.3372 137.121 82.2151 137.266 82.126L141.927 79.4273C142.202 79.2688 142.43 79.3807 142.43 79.6836C142.417 79.8535 142.365 80.018 142.276 80.1637C142.188 80.3095 142.067 80.4324 141.922 80.5226L137.261 83.2166C136.986 83.3798 136.758 83.2632 136.758 82.9603Z" fill="#F5F5F5"></path><path d="M133.477 87.5885L141.931 82.7085C142.211 82.5454 142.44 82.6759 142.44 82.9975V86.2042C142.429 86.3793 142.378 86.5496 142.291 86.7016C142.204 86.8537 142.082 86.9834 141.936 87.0805L133.477 91.9605C133.197 92.1236 132.973 91.9931 132.973 91.6715V88.4648C132.982 88.2895 133.033 88.1188 133.12 87.9666C133.208 87.8144 133.33 87.6849 133.477 87.5885Z" fill="#F5F5F5"></path><path d="M134.362 93.6338C135.131 93.191 135.76 93.5499 135.76 94.4401C135.733 94.9233 135.592 95.3932 135.349 95.8118C135.106 96.2304 134.768 96.586 134.362 96.8498C133.593 97.2926 132.964 96.9337 132.964 96.0435C132.992 95.5604 133.133 95.0907 133.376 94.6721C133.619 94.2536 133.957 93.8979 134.362 93.6338Z" fill="#F5F5F5"></path><path d="M136.758 93.8948C136.771 93.7256 136.823 93.5618 136.912 93.4168C137 93.2718 137.121 93.1497 137.266 93.0605L141.927 90.3618C142.202 90.2034 142.43 90.3152 142.43 90.6182C142.417 90.7875 142.365 90.9513 142.276 91.0963C142.188 91.2413 142.067 91.3633 141.922 91.4525L137.261 94.1512C136.986 94.3003 136.758 94.1838 136.758 93.8948Z" fill="#F5F5F5"></path><path d="M133.477 98.5091L141.931 93.6245C142.211 93.466 142.44 93.5965 142.44 93.9181V97.1248C142.429 97.2999 142.378 97.4702 142.291 97.6222C142.204 97.7743 142.082 97.904 141.936 98.0011L133.477 102.881C133.197 103.044 132.973 102.914 132.973 102.592V99.3854C132.982 99.2101 133.033 99.0394 133.12 98.8872C133.208 98.735 133.33 98.6055 133.477 98.5091Z" fill="#F5F5F5"></path><path d="M143.325 101.576L132.092 108.059C131.798 108.251 131.553 108.508 131.377 108.812C131.201 109.116 131.1 109.457 131.081 109.807V114.044C131.081 114.687 131.547 114.948 132.092 114.627L143.325 108.139C143.618 107.946 143.862 107.688 144.037 107.385C144.212 107.081 144.313 106.741 144.332 106.391V102.159C144.332 101.515 143.88 101.254 143.325 101.576Z" fill="url(#paint29_linear_305_1511)"></path><path d="M134.367 108.544C135.131 108.101 135.765 108.46 135.765 109.351C135.737 109.833 135.596 110.302 135.353 110.72C135.11 111.138 134.772 111.493 134.367 111.756C133.598 112.222 132.969 111.839 132.969 110.954C132.996 110.471 133.136 110 133.379 109.582C133.622 109.163 133.961 108.807 134.367 108.544Z" fill="#F5F5F5"></path><path d="M136.763 108.81C136.775 108.64 136.826 108.476 136.914 108.33C137.001 108.184 137.122 108.061 137.266 107.971L141.927 105.277C142.207 105.114 142.43 105.23 142.43 105.533C142.417 105.702 142.365 105.865 142.277 106.01C142.19 106.155 142.07 106.277 141.927 106.368L137.266 109.066C136.986 109.211 136.763 109.094 136.763 108.81Z" fill="#F5F5F5"></path><path d="M148.117 37.5999V31.9695C148.103 31.6892 148.022 31.4163 147.882 31.1731C147.742 30.93 147.546 30.7237 147.31 30.5712L147.031 30.4081C146.781 30.2815 146.504 30.2156 146.224 30.2156C145.944 30.2156 145.668 30.2815 145.418 30.4081L75.0842 71.0142C74.6181 71.2706 74.2779 71.0608 74.2779 70.5481V68.0405C74.2635 67.7603 74.1829 67.4875 74.0428 67.2445C73.9026 67.0014 73.7068 66.7951 73.4715 66.6423L73.1919 66.4791C72.9419 66.3526 72.6657 66.2866 72.3855 66.2866C72.1054 66.2866 71.8291 66.3526 71.5792 66.4791L48.5821 79.7582C48.3464 79.911 48.1502 80.1173 48.0092 80.3602C47.8683 80.6032 47.7867 80.876 47.7711 81.1564V85.85C47.7567 86.1302 47.6761 86.403 47.536 86.6461C47.3958 86.8891 47.2 87.0955 46.9647 87.2483L44.7927 88.5021C44.5585 88.656 44.3635 88.8626 44.2235 89.1054C44.0834 89.3483 44.0022 89.6205 43.9864 89.9004V95.5261L45.8787 96.6215L148.117 37.5999Z" fill="#F5F5F5"></path><path d="M49.6681 87.8822H49.8732L50.3952 81.739L48.0088 80.3781C47.8643 80.6197 47.7826 80.8937 47.7711 81.1751V85.8686C47.7618 86.1497 47.6816 86.4239 47.538 86.6657L49.6681 87.8822Z" fill="#E0E0E0"></path><path d="M44.2241 89.1127C44.0791 89.3524 43.9973 89.625 43.9864 89.905V95.5308L45.8787 96.6261L47.7757 91.1588L44.2241 89.1127Z" fill="#E0E0E0"></path><path d="M48.8617 88.3483L46.6897 89.6021C46.4538 89.7546 46.2574 89.9608 46.1164 90.2039C45.9754 90.4469 45.894 90.7198 45.8787 91.0003V96.6261L148.117 37.5999V31.9741C148.117 31.4568 147.758 31.247 147.31 31.508L75.0656 73.2049C74.5995 73.4612 74.2592 73.2561 74.2592 72.7388V68.0452C74.2592 67.5278 73.9003 67.3227 73.4529 67.5791L50.4744 80.8441C50.2391 80.9969 50.0434 81.2033 49.9032 81.4464C49.763 81.6894 49.6825 81.9622 49.6681 82.2424V86.95C49.6522 87.2298 49.571 87.5021 49.431 87.7449C49.291 87.9877 49.096 88.1944 48.8617 88.3483Z" fill="#F5F5F5"></path><path d="M55.3452 81.3102C55.3452 81.9115 55.8112 82.1399 56.3566 81.8183L67.5848 75.3442C67.8729 75.1644 68.1147 74.9191 68.2904 74.6284C68.4661 74.3377 68.5709 74.0097 68.5962 73.671C68.5962 73.065 68.1301 72.8366 67.5848 73.1583L56.3519 79.6463C56.0658 79.8258 55.8258 80.0698 55.6509 80.3587C55.4761 80.6477 55.3714 80.9735 55.3452 81.3102Z" fill="#E0E0E0"></path><path d="M52.5066 81.8696C52.2336 82.0509 52.007 82.2939 51.8451 82.5789C51.6832 82.8638 51.5905 83.1829 51.5744 83.5102C51.5744 84.1115 51.9985 84.3585 52.5066 84.0556C52.7796 83.8742 53.0062 83.6312 53.1681 83.3463C53.33 83.0613 53.4227 82.7423 53.4388 82.4149C53.4528 81.8136 53.0286 81.5666 52.5066 81.8696Z" fill="url(#paint30_linear_305_1511)"></path><path d="M72.3855 72.8088C72.3451 72.8085 72.3052 72.7989 72.269 72.7808L70.3813 71.6855C70.3516 71.6721 70.325 71.6526 70.3034 71.6282C70.2817 71.6039 70.2653 71.5753 70.2554 71.5442C70.2454 71.5132 70.2421 71.4804 70.2456 71.448C70.2492 71.4155 70.2595 71.3842 70.2758 71.356C70.2922 71.3278 70.3144 71.3034 70.3408 71.2843C70.3672 71.2652 70.3973 71.2518 70.4293 71.2451C70.4612 71.2384 70.4941 71.2384 70.526 71.2453C70.5579 71.2521 70.588 71.2655 70.6144 71.2847L72.5067 72.3753C72.5505 72.4013 72.5845 72.4408 72.6037 72.488C72.6229 72.5351 72.6261 72.5872 72.6129 72.6363C72.5997 72.6854 72.5708 72.7288 72.5306 72.76C72.4904 72.7912 72.4411 72.8083 72.3902 72.8088H72.3855Z" fill="#E0E0E0"></path><path d="M70.4932 73.9041C70.4517 73.8986 70.4127 73.8807 70.3814 73.8528C70.3547 73.8379 70.3313 73.8177 70.3126 73.7935C70.2939 73.7693 70.2802 73.7417 70.2724 73.7121C70.2645 73.6826 70.2627 73.6517 70.2671 73.6214C70.2714 73.5912 70.2817 73.5621 70.2975 73.5359L72.1898 70.2732C72.2238 70.2266 72.2738 70.1942 72.3302 70.1823C72.3867 70.1704 72.4456 70.1798 72.4954 70.2088C72.5453 70.2378 72.5827 70.2843 72.6003 70.3392C72.6178 70.3942 72.6144 70.4537 72.5907 70.5063L70.6983 73.7689C70.6801 73.8083 70.6513 73.8418 70.615 73.8657C70.5788 73.8896 70.5366 73.9029 70.4932 73.9041Z" fill="#E0E0E0"></path><path d="M48.7359 91.7974C48.6945 91.7975 48.6539 91.7868 48.6179 91.7664C48.5819 91.7459 48.5519 91.7165 48.5308 91.6809C48.5019 91.6268 48.4949 91.5637 48.5114 91.5046C48.5279 91.4455 48.5666 91.3951 48.6194 91.3639L50.8893 90.0495C50.9159 90.0342 50.9453 90.0243 50.9757 90.0204C51.0062 90.0164 51.0371 90.0185 51.0668 90.0265C51.0964 90.0345 51.1242 90.0483 51.1485 90.067C51.1728 90.0858 51.1932 90.1091 51.2085 90.1358C51.2238 90.1624 51.2337 90.1918 51.2377 90.2222C51.2416 90.2527 51.2396 90.2836 51.2316 90.3133C51.2235 90.3429 51.2098 90.3707 51.191 90.395C51.1723 90.4193 51.1489 90.4397 51.1223 90.455L48.8524 91.7648C48.8174 91.7864 48.777 91.7977 48.7359 91.7974Z" fill="#E0E0E0"></path><path d="M49.6681 92.4966C49.6269 92.4974 49.5864 92.4861 49.5516 92.464L48.2698 91.7462L49.4677 89.6907C49.5016 89.644 49.5517 89.6116 49.6081 89.5997C49.6646 89.5878 49.7234 89.5973 49.7733 89.6263C49.8232 89.6553 49.8605 89.7018 49.8781 89.7567C49.8957 89.8117 49.8923 89.8712 49.8685 89.9238L48.9084 91.5644L49.78 92.0305C49.8337 92.0609 49.8732 92.1113 49.8898 92.1707C49.9064 92.2301 49.8987 92.2936 49.8685 92.3474C49.8532 92.3891 49.8261 92.4254 49.7905 92.4519C49.7549 92.4783 49.7124 92.4939 49.6681 92.4966Z" fill="#E0E0E0"></path><path d="M52.1011 89.8444C52.0502 89.8439 52.0009 89.8268 51.9607 89.7956C51.9205 89.7645 51.8916 89.721 51.8784 89.6719C51.8652 89.6228 51.8684 89.5707 51.8876 89.5236C51.9068 89.4765 51.9408 89.4369 51.9846 89.411L54.2591 88.1012C54.3117 88.0775 54.3712 88.0741 54.4261 88.0917C54.4811 88.1093 54.5276 88.1466 54.5566 88.1965C54.5856 88.2464 54.595 88.3052 54.5831 88.3617C54.5712 88.4181 54.5388 88.4682 54.4922 88.5021L52.2036 89.8165C52.1718 89.833 52.1369 89.8425 52.1011 89.8444Z" fill="#E0E0E0"></path><path d="M53.4435 90.3013C53.4022 90.3027 53.3615 90.2913 53.327 90.2687C53.2741 90.2376 53.2356 90.1868 53.2199 90.1275C53.2042 90.0681 53.2125 90.005 53.2431 89.9518L54.1986 88.3064L53.327 87.8403C53.2742 87.8091 53.2355 87.7587 53.219 87.6997C53.2025 87.6406 53.2094 87.5775 53.2384 87.5234C53.2688 87.4697 53.3192 87.4302 53.3786 87.4136C53.438 87.397 53.5016 87.4047 53.5554 87.4348L54.8371 88.1526L53.6439 90.1662C53.6261 90.2049 53.5979 90.2379 53.5626 90.2618C53.5273 90.2856 53.4861 90.2993 53.4435 90.3013Z" fill="#E0E0E0"></path><path d="M58.2629 85.1136L131.976 42.5545C132.535 42.2329 132.987 42.4613 132.987 43.0625C132.963 43.4021 132.858 43.731 132.682 44.0226C132.507 44.3142 132.264 44.5601 131.976 44.7405L58.2629 87.2996C57.7036 87.6212 57.2561 87.3928 57.2561 86.7869C57.2802 86.4484 57.3839 86.1203 57.5589 85.8296C57.7339 85.5388 57.9751 85.2934 58.2629 85.1136Z" fill="#F5F5F5"></path><path d="M135.812 40.3312C136.334 40.0283 136.744 40.2753 136.744 40.8766C136.728 41.2039 136.635 41.523 136.473 41.8079C136.311 42.0929 136.085 42.3359 135.812 42.5172C135.29 42.8202 134.88 42.5732 134.88 41.9719C134.896 41.6445 134.988 41.3255 135.15 41.0405C135.312 40.7556 135.539 40.5126 135.812 40.3312Z" fill="#FAFAFA"></path><path d="M139.596 38.1452C140.123 37.8423 140.529 38.0893 140.529 38.6905C140.513 39.018 140.42 39.3371 140.258 39.6222C140.096 39.9072 139.87 40.1501 139.596 40.3312C139.074 40.6342 138.664 40.3871 138.664 39.7859C138.68 39.4585 138.773 39.1395 138.935 38.8545C139.097 38.5695 139.323 38.3266 139.596 38.1452Z" fill="#FAFAFA"></path><path d="M143.386 35.9593C143.908 35.6563 144.318 35.9034 144.318 36.5046C144.302 36.832 144.209 37.151 144.047 37.436C143.885 37.721 143.659 37.9639 143.386 38.1453C142.864 38.4482 142.453 38.2012 142.453 37.6C142.47 37.2726 142.562 36.9536 142.724 36.6686C142.886 36.3836 143.113 36.1407 143.386 35.9593Z" fill="#FAFAFA"></path><path d="M168.35 55.1298L160.701 63.0534C160.701 63.0534 153.192 62.3123 150.643 61.5805C149.836 61.3522 149.189 60.2522 149.011 59.3246C148.989 59.0815 148.89 58.8517 148.729 58.6677C148.569 58.4837 148.354 58.3548 148.117 58.2992V60.1636C148.051 60.6297 147.823 60.8721 147.152 60.8907C144.574 60.9467 143.381 60.1636 143.064 61.5619C142.864 62.4568 143.255 63.4729 144.956 63.939C147.348 64.5962 148.685 64.2699 150.121 64.6288C151.244 64.9085 159.065 66.3953 160.603 66.7309C161.419 66.908 162.039 66.8521 162.934 65.9805C163.829 65.1089 170.456 58.9098 170.456 58.9098C172.484 56.8823 171.887 54.7756 170.755 54.1557C170.037 53.7455 169.249 54.2023 168.35 55.1298Z" fill="#FFA8A7"></path><path d="M170.69 54.0904C171.184 54.2908 171.785 54.8175 171.836 56.1831C171.887 57.5488 170.876 58.7839 169.687 60.2009C168.499 61.6178 168.145 61.9953 168.145 61.9953C168.145 61.9953 165.138 60.9047 164.63 58.6721C164.63 58.6721 166.896 56.2764 167.571 55.5073C168.247 54.7382 169.496 53.5637 170.69 54.0904Z" fill="url(#paint31_linear_305_1511)"></path><path d="M139.032 108.984L134.269 108.84C133.947 108.569 128.942 102.92 128.942 102.92C128.942 102.92 127.142 105.759 127.11 105.941C127.077 106.122 132.018 111.403 132.507 111.935C132.644 112.113 132.821 112.258 133.023 112.357C133.225 112.457 133.447 112.508 133.672 112.508C134.963 112.583 139.797 112.923 139.797 112.923L139.032 108.984Z" fill="#F28F8F"></path><path d="M145.805 114.461L138.459 113.916L139.028 108.984L146.611 109.152L145.805 114.461Z" fill="url(#paint32_linear_305_1511)"></path><path opacity="0.2" d="M145.805 114.461L138.459 113.916L139.028 108.984L146.611 109.152L145.805 114.461Z" fill="black"></path><path d="M78.0114 130.681L130.014 100.66C130.568 100.338 131.02 100.599 131.02 101.242V116.409C131.001 116.759 130.899 117.099 130.725 117.403C130.55 117.706 130.306 117.965 130.014 118.157L78.0114 148.178C77.4521 148.5 77 148.239 77 147.596V132.429C77.019 132.078 77.1205 131.737 77.2963 131.434C77.4721 131.13 77.7171 130.872 78.0114 130.681Z" fill="#E0E0E0"></path><path d="M131.02 101.242C131.02 100.599 130.554 100.338 130.014 100.66L78.0114 130.681C77.7171 130.872 77.4721 131.13 77.2963 131.434C77.1205 131.737 77.019 132.078 77 132.429V133.44L131.02 102.254V101.242Z" fill="url(#paint33_linear_305_1511)"></path><path d="M89.8269 127.535L79.3211 133.594C79.0863 133.747 78.891 133.954 78.7509 134.197C78.6108 134.44 78.5299 134.712 78.5148 134.992V145.372C78.5148 145.885 78.8783 146.095 79.3211 145.838L89.8269 139.779C90.0617 139.626 90.257 139.419 90.3971 139.176C90.5372 138.933 90.6181 138.661 90.6332 138.381V128.001C90.6332 127.484 90.2697 127.278 89.8269 127.535Z" fill="#FAFAFA"></path><path d="M82.2435 136.656L78.5148 144.557V145.377C78.5148 145.89 78.8783 146.099 79.3211 145.843L89.8269 139.784C90.0617 139.631 90.257 139.424 90.3971 139.181C90.5372 138.938 90.6181 138.666 90.6332 138.386V134.801L88.6477 131.073C88.4053 130.606 88.0464 130.634 87.846 131.105L84.7185 138.46L83.199 136.563C83.1462 136.479 83.0707 136.41 82.9812 136.366C82.8917 136.322 82.7917 136.304 82.6924 136.314C82.5931 136.323 82.4985 136.361 82.4192 136.421C82.3399 136.482 82.279 136.563 82.2435 136.656V136.656Z" fill="url(#paint34_linear_305_1511)"></path><path d="M79.7313 136.563C80.259 136.218 80.6981 135.753 81.0131 135.206C81.328 134.66 81.51 134.047 81.5444 133.417C81.5569 133.085 81.4603 132.757 81.2694 132.485L79.3211 133.613C79.0863 133.766 78.891 133.973 78.7509 134.215C78.6108 134.458 78.5299 134.731 78.5148 135.011V136.736C78.7164 136.807 78.9324 136.829 79.1442 136.799C79.3561 136.769 79.5575 136.688 79.7313 136.563Z" fill="url(#paint35_linear_305_1511)"></path><path d="M95.3781 125.246L127.846 106.509C128.312 106.253 128.653 106.425 128.653 106.901C128.631 107.17 128.547 107.43 128.407 107.661C128.267 107.891 128.075 108.086 127.846 108.229L95.3781 126.971C94.9353 127.227 94.5718 127.055 94.5718 126.579C94.5929 126.31 94.6768 126.049 94.8168 125.817C94.9568 125.586 95.149 125.39 95.3781 125.246Z" fill="#FAFAFA"></path><path d="M95.3781 129.618L127.846 110.877C128.312 110.62 128.653 110.797 128.653 111.268C128.631 111.537 128.547 111.797 128.407 112.028C128.267 112.259 128.075 112.453 127.846 112.597L95.3781 131.338C94.9353 131.599 94.5718 131.422 94.5718 130.947C94.5936 130.678 94.6778 130.418 94.8178 130.187C94.9578 129.956 95.1496 129.762 95.3781 129.618Z" fill="#FAFAFA"></path><path d="M95.3781 134.009L127.846 115.267C128.312 115.011 128.653 115.188 128.653 115.659C128.631 115.928 128.547 116.188 128.407 116.419C128.267 116.649 128.075 116.844 127.846 116.987L95.3781 135.729C94.9353 135.99 94.5718 135.813 94.5718 135.337C94.5936 135.068 94.6778 134.808 94.8178 134.578C94.9578 134.347 95.1496 134.152 95.3781 134.009Z" fill="#FAFAFA"></path><path d="M155.183 166.598H152.433V170.607H155.183V166.598Z" fill="#FFA8A7"></path><path d="M145.511 161.628L142.762 161.722L142.9 165.728L145.649 165.634L145.511 161.628Z" fill="#FFA8A7"></path><path d="M155.006 127.484C155.006 130.112 155.346 147.111 155.346 147.111C155.411 147.866 156.12 149.259 155.966 152.168C155.761 156.111 155.416 167.083 155.416 167.083C155.416 167.083 154.129 168.365 152.307 167.083C152.307 167.083 149.813 152.191 149.319 148.285C148.89 144.874 148.159 135.603 148.159 135.603L145.632 146.491C145.632 146.491 146.098 149.054 146.182 150.867C146.266 152.681 145.716 163.13 145.716 163.13C145.271 163.41 144.761 163.568 144.236 163.589C143.711 163.609 143.189 163.491 142.724 163.247C142.724 163.247 140.505 147.992 140.202 146.332C139.899 144.673 142.137 127.484 142.137 127.484H155.006Z" fill="#455A64"></path><path d="M150.867 109.273H150.904C152.081 109.575 153.125 110.261 153.868 111.222C154.611 112.184 155.011 113.367 155.006 114.582V127.484C153.076 129.581 146.35 130.56 142.137 127.484V114.06C142.137 111.916 143.325 109.339 146.616 109.147L150.867 109.273Z" fill="url(#paint36_linear_305_1511)"></path><path d="M151.789 98.3014C152.012 98.2755 152.237 98.3007 152.447 98.375C152.658 98.4493 152.849 98.5708 153.006 98.7302C153.528 99.2615 153.416 100.25 153.006 102.515L151.393 102.701L151.789 98.3014Z" fill="#263238"></path><path d="M142.402 97.6535C142.055 97.655 141.711 97.5852 141.391 97.4484C140.897 97.1641 140.771 97.7234 141.041 98.2128C141.22 98.5625 141.485 98.8605 141.811 99.0784C142.138 99.2963 142.514 99.4267 142.906 99.4573C142.906 99.3874 143.372 98.1988 143.372 98.1988L142.402 97.6535Z" fill="#263238"></path><path d="M151.034 102.701C151.277 102.846 151.617 102.384 151.911 102.077C152.027 101.945 152.175 101.844 152.341 101.785C152.507 101.726 152.685 101.709 152.859 101.738C153.032 101.766 153.196 101.838 153.334 101.947C153.473 102.056 153.581 102.199 153.649 102.361C154.139 103.391 153.029 104.761 152.377 105.214C152.194 105.372 151.966 105.469 151.725 105.49C151.483 105.511 151.242 105.455 151.034 105.33L150.867 109.273C150.578 109.906 150.137 110.457 149.583 110.876C149.029 111.296 148.379 111.572 147.693 111.678C145.362 111.995 145.856 110.084 146.616 109.147V107.717C146.037 107.84 145.442 107.869 144.854 107.805C144.551 107.726 143.833 106.873 143.367 105.88C142.845 104.785 141.969 102.841 142.747 99.5552C143.582 96.0269 147.371 95.9197 149.632 97.3413C151.892 98.7628 151.034 102.701 151.034 102.701Z" fill="#FFA8A7"></path><path d="M151.034 103.107C151.156 103.107 151.612 102.347 151.911 102.077C152.325 101.704 151.789 98.3014 151.789 98.3014C151.789 98.3014 152.209 97.0149 151.393 96.1573C150.578 95.2997 148.998 95.4489 147.842 95.4069C146.423 95.4155 145.017 95.1331 143.712 94.5773C142.076 93.8641 141.95 93.7802 141.75 94.5027C141.549 95.2251 141.465 96.8704 142.449 97.9798L143.26 98.2781C143.26 98.2781 143.703 98.6696 145.232 98.856C146.643 98.9625 148.062 98.9344 149.468 98.7721C149.911 98.7115 150.009 99.145 150.247 100.32C150.456 101.35 150.634 103.097 151.034 103.107Z" fill="#263238"></path><path d="M151.789 98.5857L153.234 97.812C153.188 97.7144 153.123 97.6271 153.042 97.5556C152.961 97.484 152.867 97.4296 152.765 97.3956C152.662 97.3616 152.554 97.3487 152.446 97.3578C152.339 97.3669 152.234 97.3977 152.139 97.4484C151.946 97.5568 151.802 97.7354 151.737 97.9471C151.672 98.1589 151.69 98.3875 151.789 98.5857Z" fill="#263238"></path><path d="M146.62 107.717C147.608 107.528 148.577 107.25 149.515 106.887C149.953 106.655 150.313 106.298 150.55 105.861C150.437 106.299 150.237 106.71 149.962 107.069C149.412 107.768 146.62 108.285 146.62 108.285V107.717Z" fill="#F28F8F"></path><path d="M147.133 102.165C147.14 102.25 147.17 102.33 147.222 102.397C147.273 102.464 147.343 102.514 147.423 102.542C147.503 102.57 147.589 102.574 147.671 102.553C147.753 102.532 147.827 102.488 147.884 102.426C147.942 102.364 147.979 102.286 147.993 102.203C148.007 102.12 147.996 102.034 147.962 101.957C147.927 101.88 147.871 101.814 147.8 101.768C147.729 101.723 147.646 101.699 147.562 101.699C147.503 101.701 147.445 101.715 147.391 101.739C147.338 101.764 147.289 101.799 147.249 101.842C147.21 101.885 147.179 101.936 147.159 101.992C147.139 102.047 147.13 102.106 147.133 102.165Z" fill="#263238"></path><path d="M147.59 100.543L148.522 101.051C148.588 100.925 148.602 100.779 148.562 100.642C148.522 100.506 148.431 100.39 148.308 100.32C148.247 100.284 148.179 100.261 148.109 100.253C148.038 100.245 147.967 100.252 147.899 100.273C147.832 100.294 147.769 100.329 147.716 100.375C147.663 100.422 147.62 100.479 147.59 100.543Z" fill="#263238"></path><path d="M147.166 105.078L146.187 105.447C146.208 105.513 146.242 105.574 146.287 105.627C146.333 105.679 146.388 105.722 146.45 105.752C146.513 105.783 146.581 105.8 146.65 105.804C146.719 105.807 146.788 105.797 146.854 105.773C146.985 105.72 147.091 105.618 147.149 105.488C147.207 105.359 147.213 105.212 147.166 105.078Z" fill="#F28F8F"></path><path d="M143.302 100.916L144.141 100.268C144.102 100.212 144.051 100.164 143.993 100.128C143.934 100.091 143.869 100.067 143.801 100.057C143.733 100.046 143.664 100.05 143.597 100.067C143.531 100.084 143.468 100.114 143.414 100.156C143.302 100.245 143.228 100.373 143.207 100.514C143.186 100.655 143.22 100.799 143.302 100.916Z" fill="#263238"></path><path d="M143.563 102.044C143.558 102.104 143.565 102.163 143.584 102.22C143.603 102.276 143.634 102.328 143.675 102.372C143.715 102.416 143.764 102.451 143.819 102.474C143.873 102.498 143.932 102.511 143.992 102.51C144.085 102.518 144.179 102.497 144.26 102.451C144.341 102.404 144.407 102.334 144.448 102.25C144.489 102.166 144.504 102.071 144.49 101.978C144.477 101.886 144.435 101.799 144.372 101.73C144.309 101.661 144.226 101.613 144.135 101.592C144.043 101.57 143.948 101.577 143.86 101.611C143.773 101.645 143.698 101.705 143.645 101.782C143.592 101.859 143.563 101.95 143.563 102.044Z" fill="#263238"></path><path d="M145.749 101.639L145.609 104.221L144.257 103.764L145.749 101.639Z" fill="#F28F8F"></path><path d="M152.437 169.246V168.854C152.172 168.966 151.561 171.301 150.471 172.299C149.599 173.091 148.415 174.004 148.117 174.885C147.818 175.766 149.767 176.312 150.578 176.167C151.51 175.999 153.151 175.337 153.561 174.722C153.971 174.107 154.162 173.198 154.493 172.751C154.824 172.303 155.593 171.795 155.775 171.273C155.829 170.786 155.775 170.292 155.616 169.828C155.49 169.362 155.351 168.807 155.183 168.854V169.152C154.792 169.462 154.306 169.627 153.808 169.618C153.412 169.632 152.433 169.553 152.437 169.246Z" fill="#263238"></path><path d="M142.868 164.888C142.724 164.888 142.607 165.093 142.29 165.438C141.82 165.914 141.274 166.308 140.673 166.603C139.643 167.116 137.639 167.908 136.735 168.318C136.166 168.574 136.194 169.25 136.777 169.646C137.359 170.043 138.776 170.318 140.477 169.935C141.41 169.73 142.603 168.877 143.367 168.924C144.132 168.971 145.553 168.957 146.117 168.57C146.681 168.183 146.453 167.353 146.294 166.645C146.122 165.866 145.87 164.678 145.614 164.734V164.976C145.283 165.475 143.6 165.68 142.873 165.312L142.868 164.888Z" fill="#263238"></path><path d="M151.692 111.063L143.19 119.854C143.19 119.854 135.733 118.521 133.188 117.789C132.386 117.56 131.827 116.363 131.65 115.458C131.604 114.988 131.375 114.554 131.011 114.251C131.011 114.251 131.011 114.908 130.843 115.985C130.778 116.451 130.042 116.512 129.384 116.656C127.054 117.16 126.262 116.656 125.297 117.327C124.551 117.859 125.488 119.238 127.189 119.704C129.58 120.362 130.918 120.035 132.353 120.394C133.477 120.674 141.559 123.191 143.097 123.545C143.908 123.722 144.528 123.666 145.427 122.795C146.327 121.923 153.02 116.069 153.02 116.069L151.692 111.063Z" fill="#FFA8A7"></path><path d="M152.069 110.76C151.137 110.522 145.451 117.285 145.451 117.285L148.583 119.914C148.583 119.914 152.638 117.258 153.356 116.185C154.073 115.113 154.889 111.464 152.069 110.76Z" fill="url(#paint37_linear_305_1511)"></path><path d="M148.788 120.091C148.788 120.091 153.067 116.26 153.267 115.841C153.654 115.034 153.547 113.543 153.547 113.543C153.547 113.543 154.013 114.838 153.547 115.841C153.081 116.843 149.818 119.691 149.301 120.18L148.774 120.674L148.266 120.208L148.569 119.942L148.788 120.091Z" fill="url(#paint38_linear_305_1511)"></path><path opacity="0.2" d="M148.788 120.091C148.788 120.091 153.067 116.26 153.267 115.841C153.654 115.034 153.547 113.543 153.547 113.543C153.547 113.543 154.013 114.838 153.547 115.841C153.081 116.843 149.818 119.691 149.301 120.18L148.774 120.674L148.266 120.208L148.569 119.942L148.788 120.091Z" fill="black"></path><path d="M127.292 101.121C128.224 101.019 128.844 100.329 129.053 100.52C129.138 100.611 129.188 100.729 129.193 100.853C129.198 100.977 129.159 101.099 129.081 101.196C128.651 101.523 128.181 101.794 127.683 102.002C127.566 102.476 127.482 102.957 127.431 103.442C127.352 104.156 127.38 105.582 126.77 106.066C124.947 107.53 124.481 105.209 124.551 103.652C124.658 101.718 126.317 101.228 127.292 101.121Z" fill="#F28F8F"></path><path d="M118 146.127C117.94 145.114 117.619 144.128 117.063 143.249C116.508 142.371 115.734 141.624 114.804 141.069L112.177 139.701C111.184 139.244 110.088 139.006 108.976 139.006C107.865 139.006 106.768 139.244 105.776 139.701L85.215 150.56C84.2664 151.098 83.4857 151.849 82.9484 152.743C82.3698 153.612 82.0434 154.601 82 155.618V177.337C82.0608 178.351 82.3828 179.337 82.9398 180.216C83.4968 181.095 84.273 181.841 85.2055 182.394L87.804 183.763C88.0199 183.876 88.245 183.975 88.4773 184.057L88.7524 184.135C88.9041 184.187 89.0593 184.231 89.2171 184.265L89.5964 184.334L89.9947 184.395H90.4499H90.7819H91.5595L92.1475 184.334H92.3087C92.5174 184.3 92.726 184.256 92.9347 184.204H93.0105C93.4245 184.103 93.8228 183.955 94.196 183.763L114.795 172.903C115.725 172.349 116.5 171.602 117.055 170.723C117.61 169.845 117.931 168.859 117.991 167.846L118 146.127Z" fill="url(#paint39_linear_305_1511)"></path><path opacity="0.4" d="M117.962 145.633C117.725 144.144 116.407 143.598 114.804 144.447L94.2055 155.306C93.2596 155.844 92.482 156.595 91.9484 157.489L82.9484 152.743C83.4884 151.851 84.2686 151.1 85.215 150.561L105.804 139.701C106.794 139.24 107.889 139 109 139C110.111 139 111.206 139.24 112.196 139.701L114.804 141.069C115.658 141.579 116.381 142.25 116.926 143.038C117.471 143.825 117.824 144.71 117.962 145.633V145.633Z" fill="url(#paint40_linear_305_1511)"></path><path opacity="0.1" d="M93.627 184.005L93.4373 184.075C93.2761 184.075 93.1244 184.17 92.9632 184.204C92.5548 184.318 92.1357 184.396 91.7113 184.438H91.6449C91.4363 184.438 91.2276 184.438 91.0095 184.438C89.8968 184.461 88.7963 184.223 87.8135 183.745L85.215 182.369C84.2841 181.814 83.5091 181.067 82.9523 180.189C82.3955 179.31 82.0725 178.324 82.0095 177.311V155.618C82.0229 154.999 82.1544 154.386 82.3983 153.808C82.5027 153.565 82.6165 153.323 82.7398 153.098C82.863 152.873 82.8725 152.855 82.9484 152.743L91.9484 157.488C91.3675 158.357 91.0409 159.347 91 160.364V182.083C91 183.494 91.8251 184.265 92.9916 184.152H93.1908C93.3415 184.118 93.4877 184.068 93.627 184.005Z" fill="black"></path><path d="M93.627 184.005L93.4373 184.075H93.2002C93.3446 184.064 93.4876 184.041 93.627 184.005V184.005Z" fill="url(#paint41_linear_305_1511)"></path><path d="M113.669 160.844L112.215 160.401C113.368 154.163 111.043 152.432 107.458 152.578C108.97 153.194 110.142 156.363 109.43 159.578L107.977 159.135C107.696 159.051 107.313 159.538 107.361 159.927L108.083 165.731C108.117 165.997 108.345 166.063 108.568 165.877L113.543 161.76C113.877 161.521 113.955 160.946 113.669 160.844Z" fill="white"></path><path opacity="0.8" d="M108.791 156.457C108.519 154.588 107.681 153.11 106.698 152.711C106.698 152.711 103.006 153.451 100.105 158.692C100.105 158.692 104.663 154.23 108.791 156.457Z" fill="white"></path><path d="M94.9117 167.555L96.365 167.998C95.2121 174.24 97.5373 175.967 101.122 175.825C99.6155 175.205 98.4383 172.04 99.1553 168.826L100.609 169.269C100.894 169.353 101.272 168.866 101.224 168.476L100.507 162.672C100.473 162.407 100.245 162.34 100.022 162.526L95.0425 166.599C94.7083 166.891 94.6259 167.484 94.9117 167.555Z" fill="white"></path><path opacity="0.8" d="M99.7947 171.96C100.066 173.824 100.904 175.303 101.883 175.705C101.883 175.705 105.579 174.962 108.48 169.72C108.48 169.72 103.922 174.187 99.7947 171.96Z" fill="white"></path><defs><linearGradient id="paint0_linear_305_1511" x1="22.1329" y1="115.66" x2="0.431924" y2="119.254" gradientUnits="userSpaceOnUse"><stop stop-color="#06E8FF"></stop><stop offset="0.495946" stop-color="#B11AFF"></stop><stop offset="1" stop-color="#FF00B8"></stop></linearGradient><linearGradient id="paint1_linear_305_1511" x1="23.9669" y1="129.914" x2="-3.19293" y2="135.107" gradientUnits="userSpaceOnUse"><stop stop-color="#06E8FF"></stop><stop offset="0.495946" stop-color="#B11AFF"></stop><stop offset="1" stop-color="#FF00B8"></stop></linearGradient><linearGradient id="paint2_linear_305_1511" x1="164.322" y1="53.262" x2="154.992" y2="57.3469" gradientUnits="userSpaceOnUse"><stop stop-color="#06E8FF"></stop><stop offset="0.495946" stop-color="#B11AFF"></stop><stop offset="1" stop-color="#FF00B8"></stop></linearGradient><linearGradient id="paint3_linear_305_1511" x1="164.322" y1="53.262" x2="154.992" y2="57.3469" gradientUnits="userSpaceOnUse"><stop stop-color="#06E8FF"></stop><stop offset="0.495946" stop-color="#B11AFF"></stop><stop offset="1" stop-color="#FF00B8"></stop></linearGradient><linearGradient id="paint4_linear_305_1511" x1="171.74" y1="53.8464" x2="154.564" y2="56.4069" gradientUnits="userSpaceOnUse"><stop stop-color="#06E8FF"></stop><stop offset="0.495946" stop-color="#B11AFF"></stop><stop offset="1" stop-color="#FF00B8"></stop></linearGradient><linearGradient id="paint5_linear_305_1511" x1="169.596" y1="63.1927" x2="166.045" y2="63.6865" gradientUnits="userSpaceOnUse"><stop stop-color="#06E8FF"></stop><stop offset="0.495946" stop-color="#B11AFF"></stop><stop offset="1" stop-color="#FF00B8"></stop></linearGradient><linearGradient id="paint6_linear_305_1511" x1="91.2941" y1="46.8168" x2="89.1168" y2="47.1807" gradientUnits="userSpaceOnUse"><stop stop-color="#06E8FF"></stop><stop offset="0.495946" stop-color="#B11AFF"></stop><stop offset="1" stop-color="#FF00B8"></stop></linearGradient><linearGradient id="paint7_linear_305_1511" x1="72.3614" y1="64.3032" x2="70.184" y2="64.6668" gradientUnits="userSpaceOnUse"><stop stop-color="#06E8FF"></stop><stop offset="0.495946" stop-color="#B11AFF"></stop><stop offset="1" stop-color="#FF00B8"></stop></linearGradient><linearGradient id="paint8_linear_305_1511" x1="147.539" y1="39.4129" x2="35.0733" y2="73.357" gradientUnits="userSpaceOnUse"><stop stop-color="#06E8FF"></stop><stop offset="0.495946" stop-color="#B11AFF"></stop><stop offset="1" stop-color="#FF00B8"></stop></linearGradient><linearGradient id="paint9_linear_305_1511" x1="45.8727" y1="95.9308" x2="43.5973" y2="95.9886" gradientUnits="userSpaceOnUse"><stop stop-color="#06E8FF"></stop><stop offset="0.495946" stop-color="#B11AFF"></stop><stop offset="1" stop-color="#FF00B8"></stop></linearGradient><linearGradient id="paint10_linear_305_1511" x1="53.4314" y1="112.863" x2="49.0172" y2="113.616" gradientUnits="userSpaceOnUse"><stop stop-color="#06E8FF"></stop><stop offset="0.495946" stop-color="#B11AFF"></stop><stop offset="1" stop-color="#FF00B8"></stop></linearGradient><linearGradient id="paint11_linear_305_1511" x1="68.5167" y1="103.84" x2="54.1258" y2="108.507" gradientUnits="userSpaceOnUse"><stop stop-color="#06E8FF"></stop><stop offset="0.495946" stop-color="#B11AFF"></stop><stop offset="1" stop-color="#FF00B8"></stop></linearGradient><linearGradient id="paint12_linear_305_1511" x1="62.8764" y1="110.084" x2="54.6852" y2="112.79" gradientUnits="userSpaceOnUse"><stop stop-color="#06E8FF"></stop><stop offset="0.495946" stop-color="#B11AFF"></stop><stop offset="1" stop-color="#FF00B8"></stop></linearGradient><linearGradient id="paint13_linear_305_1511" x1="53.4314" y1="121.253" x2="49.0172" y2="122.006" gradientUnits="userSpaceOnUse"><stop stop-color="#06E8FF"></stop><stop offset="0.495946" stop-color="#B11AFF"></stop><stop offset="1" stop-color="#FF00B8"></stop></linearGradient><linearGradient id="paint14_linear_305_1511" x1="68.5167" y1="112.229" x2="54.1258" y2="116.897" gradientUnits="userSpaceOnUse"><stop stop-color="#06E8FF"></stop><stop offset="0.495946" stop-color="#B11AFF"></stop><stop offset="1" stop-color="#FF00B8"></stop></linearGradient><linearGradient id="paint15_linear_305_1511" x1="62.8764" y1="118.474" x2="54.6852" y2="121.18" gradientUnits="userSpaceOnUse"><stop stop-color="#06E8FF"></stop><stop offset="0.495946" stop-color="#B11AFF"></stop><stop offset="1" stop-color="#FF00B8"></stop></linearGradient><linearGradient id="paint16_linear_305_1511" x1="53.4314" y1="130.575" x2="49.0172" y2="131.328" gradientUnits="userSpaceOnUse"><stop stop-color="#06E8FF"></stop><stop offset="0.495946" stop-color="#B11AFF"></stop><stop offset="1" stop-color="#FF00B8"></stop></linearGradient><linearGradient id="paint17_linear_305_1511" x1="68.5167" y1="121.551" x2="54.1258" y2="126.219" gradientUnits="userSpaceOnUse"><stop stop-color="#06E8FF"></stop><stop offset="0.495946" stop-color="#B11AFF"></stop><stop offset="1" stop-color="#FF00B8"></stop></linearGradient><linearGradient id="paint18_linear_305_1511" x1="62.8764" y1="127.796" x2="54.6852" y2="130.502" gradientUnits="userSpaceOnUse"><stop stop-color="#06E8FF"></stop><stop offset="0.495946" stop-color="#B11AFF"></stop><stop offset="1" stop-color="#FF00B8"></stop></linearGradient><linearGradient id="paint19_linear_305_1511" x1="53.4314" y1="145.49" x2="49.0172" y2="146.243" gradientUnits="userSpaceOnUse"><stop stop-color="#06E8FF"></stop><stop offset="0.495946" stop-color="#B11AFF"></stop><stop offset="1" stop-color="#FF00B8"></stop></linearGradient><linearGradient id="paint20_linear_305_1511" x1="68.5167" y1="136.466" x2="54.1258" y2="141.134" gradientUnits="userSpaceOnUse"><stop stop-color="#06E8FF"></stop><stop offset="0.495946" stop-color="#B11AFF"></stop><stop offset="1" stop-color="#FF00B8"></stop></linearGradient><linearGradient id="paint21_linear_305_1511" x1="62.8764" y1="142.711" x2="54.6852" y2="145.417" gradientUnits="userSpaceOnUse"><stop stop-color="#06E8FF"></stop><stop offset="0.495946" stop-color="#B11AFF"></stop><stop offset="1" stop-color="#FF00B8"></stop></linearGradient><linearGradient id="paint22_linear_305_1511" x1="53.4314" y1="153.414" x2="49.0172" y2="154.166" gradientUnits="userSpaceOnUse"><stop stop-color="#06E8FF"></stop><stop offset="0.495946" stop-color="#B11AFF"></stop><stop offset="1" stop-color="#FF00B8"></stop></linearGradient><linearGradient id="paint23_linear_305_1511" x1="68.5167" y1="144.39" x2="54.1258" y2="149.057" gradientUnits="userSpaceOnUse"><stop stop-color="#06E8FF"></stop><stop offset="0.495946" stop-color="#B11AFF"></stop><stop offset="1" stop-color="#FF00B8"></stop></linearGradient><linearGradient id="paint24_linear_305_1511" x1="62.8764" y1="150.635" x2="54.6852" y2="153.34" gradientUnits="userSpaceOnUse"><stop stop-color="#06E8FF"></stop><stop offset="0.495946" stop-color="#B11AFF"></stop><stop offset="1" stop-color="#FF00B8"></stop></linearGradient><linearGradient id="paint25_linear_305_1511" x1="126.992" y1="71.002" x2="66.4423" y2="84.6578" gradientUnits="userSpaceOnUse"><stop stop-color="#06E8FF"></stop><stop offset="0.495946" stop-color="#B11AFF"></stop><stop offset="1" stop-color="#FF00B8"></stop></linearGradient><linearGradient id="paint26_linear_305_1511" x1="126.992" y1="97.1032" x2="66.4423" y2="110.759" gradientUnits="userSpaceOnUse"><stop stop-color="#06E8FF"></stop><stop offset="0.495946" stop-color="#B11AFF"></stop><stop offset="1" stop-color="#FF00B8"></stop></linearGradient><linearGradient id="paint27_linear_305_1511" x1="144.257" y1="60.3896" x2="128.686" y2="62.6672" gradientUnits="userSpaceOnUse"><stop stop-color="#06E8FF"></stop><stop offset="0.495946" stop-color="#B11AFF"></stop><stop offset="1" stop-color="#FF00B8"></stop></linearGradient><linearGradient id="paint28_linear_305_1511" x1="144.257" y1="75.9618" x2="128.493" y2="77.4497" gradientUnits="userSpaceOnUse"><stop stop-color="#06E8FF"></stop><stop offset="0.495946" stop-color="#B11AFF"></stop><stop offset="1" stop-color="#FF00B8"></stop></linearGradient><linearGradient id="paint29_linear_305_1511" x1="144.257" y1="101.763" x2="129.075" y2="105.076" gradientUnits="userSpaceOnUse"><stop stop-color="#06E8FF"></stop><stop offset="0.495946" stop-color="#B11AFF"></stop><stop offset="1" stop-color="#FF00B8"></stop></linearGradient><linearGradient id="paint30_linear_305_1511" x1="53.4286" y1="81.7996" x2="51.2514" y2="82.1639" gradientUnits="userSpaceOnUse"><stop stop-color="#06E8FF"></stop><stop offset="0.495946" stop-color="#B11AFF"></stop><stop offset="1" stop-color="#FF00B8"></stop></linearGradient><linearGradient id="paint31_linear_305_1511" x1="171.797" y1="54.1549" x2="163.469" y2="55.7939" gradientUnits="userSpaceOnUse"><stop stop-color="#06E8FF"></stop><stop offset="0.495946" stop-color="#B11AFF"></stop><stop offset="1" stop-color="#FF00B8"></stop></linearGradient><linearGradient id="paint32_linear_305_1511" x1="146.565" y1="109.118" x2="137.724" y2="112.006" gradientUnits="userSpaceOnUse"><stop stop-color="#06E8FF"></stop><stop offset="0.495946" stop-color="#B11AFF"></stop><stop offset="1" stop-color="#FF00B8"></stop></linearGradient><linearGradient id="paint33_linear_305_1511" x1="130.715" y1="101.325" x2="73.3195" y2="121.992" gradientUnits="userSpaceOnUse"><stop stop-color="#06E8FF"></stop><stop offset="0.495946" stop-color="#B11AFF"></stop><stop offset="1" stop-color="#FF00B8"></stop></linearGradient><linearGradient id="paint34_linear_305_1511" x1="90.5648" y1="131.108" x2="76.4507" y2="133.575" gradientUnits="userSpaceOnUse"><stop stop-color="#06E8FF"></stop><stop offset="0.495946" stop-color="#B11AFF"></stop><stop offset="1" stop-color="#FF00B8"></stop></linearGradient><linearGradient id="paint35_linear_305_1511" x1="81.5283" y1="132.59" x2="77.9747" y2="133.136" gradientUnits="userSpaceOnUse"><stop stop-color="#06E8FF"></stop><stop offset="0.495946" stop-color="#B11AFF"></stop><stop offset="1" stop-color="#FF00B8"></stop></linearGradient><linearGradient id="paint36_linear_305_1511" x1="154.933" y1="109.642" x2="139.78" y2="111.751" gradientUnits="userSpaceOnUse"><stop stop-color="#06E8FF"></stop><stop offset="0.495946" stop-color="#B11AFF"></stop><stop offset="1" stop-color="#FF00B8"></stop></linearGradient><linearGradient id="paint37_linear_305_1511" x1="153.997" y1="110.977" x2="144.101" y2="113.015" gradientUnits="userSpaceOnUse"><stop stop-color="#06E8FF"></stop><stop offset="0.495946" stop-color="#B11AFF"></stop><stop offset="1" stop-color="#FF00B8"></stop></linearGradient><linearGradient id="paint38_linear_305_1511" x1="153.723" y1="113.717" x2="147.319" y2="114.798" gradientUnits="userSpaceOnUse"><stop stop-color="#06E8FF"></stop><stop offset="0.495946" stop-color="#B11AFF"></stop><stop offset="1" stop-color="#FF00B8"></stop></linearGradient><linearGradient id="paint39_linear_305_1511" x1="117.797" y1="140.113" x2="75.858" y2="147.412" gradientUnits="userSpaceOnUse"><stop stop-color="#06E8FF"></stop><stop offset="0.495946" stop-color="#B11AFF"></stop><stop offset="1" stop-color="#FF00B8"></stop></linearGradient><linearGradient id="paint40_linear_305_1511" x1="117.764" y1="139.451" x2="81.9275" y2="154.343" gradientUnits="userSpaceOnUse"><stop stop-color="#06E8FF"></stop><stop offset="0.495946" stop-color="#B11AFF"></stop><stop offset="1" stop-color="#FF00B8"></stop></linearGradient><linearGradient id="paint41_linear_305_1511" x1="93.6246" y1="184.007" x2="93.4434" y2="184.252" gradientUnits="userSpaceOnUse"><stop stop-color="#06E8FF"></stop><stop offset="0.495946" stop-color="#B11AFF"></stop><stop offset="1" stop-color="#FF00B8"></stop></linearGradient></defs></svg>