<svg xmlns="http://www.w3.org/2000/svg" width="228" height="36" viewBox="0 0 228 36" fill="none"><path d="M39.592 12.44V15.848H45.088V19.016H39.592V22.712H45.808V26H35.488V9.15199H45.808V12.44H39.592ZM53.7764 8.23999V26H49.6724V8.23999H53.7764ZM70.5745 19.088C70.5745 19.472 70.5505 19.872 70.5025 20.288H61.2145C61.2785 21.12 61.5425 21.76 62.0065 22.208C62.4865 22.64 63.0705 22.856 63.7585 22.856C64.7825 22.856 65.4945 22.424 65.8945 21.56H70.2625C70.0385 22.44 69.6305 23.232 69.0385 23.936C68.4625 24.64 67.7345 25.192 66.8545 25.592C65.9745 25.992 64.9905 26.192 63.9025 26.192C62.5905 26.192 61.4225 25.912 60.3985 25.352C59.3745 24.792 58.5745 23.992 57.9985 22.952C57.4225 21.912 57.1345 20.696 57.1345 19.304C57.1345 17.912 57.4145 16.696 57.9745 15.656C58.5505 14.616 59.3505 13.816 60.3745 13.256C61.3985 12.696 62.5745 12.416 63.9025 12.416C65.1985 12.416 66.3505 12.688 67.3585 13.232C68.3665 13.776 69.1505 14.552 69.7105 15.56C70.2865 16.568 70.5745 17.744 70.5745 19.088ZM66.3745 18.008C66.3745 17.304 66.1345 16.744 65.6545 16.328C65.1745 15.912 64.5745 15.704 63.8545 15.704C63.1665 15.704 62.5825 15.904 62.1025 16.304C61.6385 16.704 61.3505 17.272 61.2385 18.008H66.3745ZM91.0276 12.464C92.6916 12.464 94.0116 12.968 94.9876 13.976C95.9796 14.984 96.4756 16.384 96.4756 18.176V26H92.3956V18.728C92.3956 17.864 92.1636 17.2 91.6996 16.736C91.2516 16.256 90.6276 16.016 89.8276 16.016C89.0276 16.016 88.3956 16.256 87.9316 16.736C87.4836 17.2 87.2596 17.864 87.2596 18.728V26H83.1796V18.728C83.1796 17.864 82.9476 17.2 82.4836 16.736C82.0356 16.256 81.4116 16.016 80.6116 16.016C79.8116 16.016 79.1796 16.256 78.7156 16.736C78.2676 17.2 78.0436 17.864 78.0436 18.728V26H73.9396V12.608H78.0436V14.288C78.4596 13.728 79.0036 13.288 79.6756 12.968C80.3476 12.632 81.1076 12.464 81.9556 12.464C82.9636 12.464 83.8596 12.68 84.6436 13.112C85.4436 13.544 86.0676 14.16 86.5156 14.96C86.9796 14.224 87.6116 13.624 88.4116 13.16C89.2116 12.696 90.0836 12.464 91.0276 12.464ZM113.17 19.088C113.17 19.472 113.146 19.872 113.098 20.288H103.81C103.874 21.12 104.138 21.76 104.602 22.208C105.082 22.64 105.666 22.856 106.354 22.856C107.378 22.856 108.09 22.424 108.49 21.56H112.858C112.634 22.44 112.226 23.232 111.634 23.936C111.058 24.64 110.33 25.192 109.45 25.592C108.57 25.992 107.586 26.192 106.498 26.192C105.186 26.192 104.018 25.912 102.994 25.352C101.97 24.792 101.17 23.992 100.594 22.952C100.018 21.912 99.7298 20.696 99.7298 19.304C99.7298 17.912 100.01 16.696 100.57 15.656C101.146 14.616 101.946 13.816 102.97 13.256C103.994 12.696 105.17 12.416 106.498 12.416C107.794 12.416 108.946 12.688 109.954 13.232C110.962 13.776 111.746 14.552 112.306 15.56C112.882 16.568 113.17 17.744 113.17 19.088ZM108.97 18.008C108.97 17.304 108.73 16.744 108.25 16.328C107.77 15.912 107.17 15.704 106.45 15.704C105.762 15.704 105.178 15.904 104.698 16.304C104.234 16.704 103.946 17.272 103.834 18.008H108.97ZM124.695 12.464C126.263 12.464 127.511 12.976 128.439 14C129.383 15.008 129.855 16.4 129.855 18.176V26H125.775V18.728C125.775 17.832 125.543 17.136 125.079 16.64C124.615 16.144 123.991 15.896 123.207 15.896C122.423 15.896 121.799 16.144 121.335 16.64C120.871 17.136 120.639 17.832 120.639 18.728V26H116.535V12.608H120.639V14.384C121.055 13.792 121.615 13.328 122.319 12.992C123.023 12.64 123.815 12.464 124.695 12.464ZM141.371 22.52V26H139.283C137.795 26 136.635 25.64 135.803 24.92C134.971 24.184 134.555 22.992 134.555 21.344V16.016H132.923V12.608H134.555V9.34399H138.659V12.608H141.347V16.016H138.659V21.392C138.659 21.792 138.755 22.08 138.947 22.256C139.139 22.432 139.459 22.52 139.907 22.52H141.371ZM148.961 12.44V15.848H154.457V19.016H148.961V22.712H155.177V26H144.857V9.15199H155.177V12.44H148.961ZM166.961 26L164.393 22.28L162.233 26H157.793L162.209 19.16L157.673 12.608H162.281L164.849 16.304L167.009 12.608H171.449L166.961 19.352L171.569 26H166.961ZM178.455 14.504C178.855 13.88 179.407 13.376 180.111 12.992C180.815 12.608 181.639 12.416 182.583 12.416C183.687 12.416 184.687 12.696 185.583 13.256C186.479 13.816 187.183 14.616 187.695 15.656C188.223 16.696 188.487 17.904 188.487 19.28C188.487 20.656 188.223 21.872 187.695 22.928C187.183 23.968 186.479 24.776 185.583 25.352C184.687 25.912 183.687 26.192 182.583 26.192C181.655 26.192 180.831 26 180.111 25.616C179.407 25.232 178.855 24.736 178.455 24.128V32.384H174.351V12.608H178.455V14.504ZM184.311 19.28C184.311 18.256 184.023 17.456 183.447 16.88C182.887 16.288 182.191 15.992 181.359 15.992C180.543 15.992 179.847 16.288 179.271 16.88C178.711 17.472 178.431 18.28 178.431 19.304C178.431 20.328 178.711 21.136 179.271 21.728C179.847 22.32 180.543 22.616 181.359 22.616C182.175 22.616 182.871 22.32 183.447 21.728C184.023 21.12 184.311 20.304 184.311 19.28ZM204.464 19.088C204.464 19.472 204.44 19.872 204.392 20.288H195.104C195.168 21.12 195.432 21.76 195.896 22.208C196.376 22.64 196.96 22.856 197.648 22.856C198.672 22.856 199.384 22.424 199.784 21.56H204.152C203.928 22.44 203.52 23.232 202.928 23.936C202.352 24.64 201.624 25.192 200.744 25.592C199.864 25.992 198.88 26.192 197.792 26.192C196.48 26.192 195.312 25.912 194.288 25.352C193.264 24.792 192.464 23.992 191.888 22.952C191.312 21.912 191.024 20.696 191.024 19.304C191.024 17.912 191.304 16.696 191.864 15.656C192.44 14.616 193.24 13.816 194.264 13.256C195.288 12.696 196.464 12.416 197.792 12.416C199.088 12.416 200.24 12.688 201.248 13.232C202.256 13.776 203.04 14.552 203.6 15.56C204.176 16.568 204.464 17.744 204.464 19.088ZM200.264 18.008C200.264 17.304 200.024 16.744 199.544 16.328C199.064 15.912 198.464 15.704 197.744 15.704C197.056 15.704 196.472 15.904 195.992 16.304C195.528 16.704 195.24 17.272 195.128 18.008H200.264ZM211.933 14.84C212.413 14.104 213.013 13.528 213.733 13.112C214.453 12.68 215.253 12.464 216.133 12.464V16.808H215.005C213.981 16.808 213.213 17.032 212.701 17.48C212.189 17.912 211.933 18.68 211.933 19.784V26H207.829V12.608H211.933V14.84ZM226.758 22.52V26H224.67C223.182 26 222.022 25.64 221.19 24.92C220.358 24.184 219.942 22.992 219.942 21.344V16.016H218.31V12.608H219.942V9.34399H224.046V12.608H226.734V16.016H224.046V21.392C224.046 21.792 224.142 22.08 224.334 22.256C224.526 22.432 224.846 22.52 225.294 22.52H226.758Z" fill="url(#paint0_linear_103_48)"></path><path fill-rule="evenodd" clip-rule="evenodd" d="M0 7.28571C0 4.91878 2.11066 3 4.71429 3H18.8571C21.4608 3 23.5714 4.91878 23.5714 7.28571C23.5714 9.65267 21.4608 11.5714 18.8571 11.5714H4.71429C2.11065 11.5714 0 9.65267 0 7.28571ZM0 17.8203C0 15.4533 2.30254 13.5345 5.14286 13.5345H12.8571V22.106H5.14286C2.30253 22.106 0 20.1872 0 17.8203ZM15 17.8203C15 15.4533 16.9188 13.5345 19.2857 13.5345C21.6526 13.5345 23.5714 15.4533 23.5714 17.8203C23.5714 20.1872 21.6526 22.106 19.2857 22.106C16.9188 22.106 15 20.1872 15 17.8203ZM0 28.3548C0 25.9879 2.11066 24.0691 4.71429 24.0691H18.8571C21.4608 24.0691 23.5714 25.9879 23.5714 28.3548C23.5714 30.7218 21.4608 32.6406 18.8571 32.6406H4.71429C2.11065 32.6406 0 30.7218 0 28.3548Z" fill="url(#paint1_linear_103_48)"></path><defs><linearGradient id="paint0_linear_103_48" x1="226.904" y1="0.878038" x2="129.811" y2="115.686" gradientUnits="userSpaceOnUse"><stop stop-color="#06E8FF"></stop><stop offset="0.495946" stop-color="#B11AFF"></stop><stop offset="1" stop-color="#FF00B8"></stop></linearGradient><linearGradient id="paint1_linear_103_48" x1="23.4383" y1="3.72294" x2="-4.01729" y2="8.51383" gradientUnits="userSpaceOnUse"><stop stop-color="#06E8FF"></stop><stop offset="0.495946" stop-color="#B11AFF"></stop><stop offset="1" stop-color="#FF00B8"></stop></linearGradient></defs></svg>