<svg xmlns="http://www.w3.org/2000/svg" width="50" height="50" viewBox="0 0 50 50" fill="none"><path d="M29.0542 4.88331C27.9233 3.91943 26.4859 3.39001 25 3.39001C23.5141 3.39001 22.0767 3.91943 20.9458 4.88331L18.2979 7.14164C17.9638 7.42659 17.5482 7.59867 17.1104 7.63331L13.6417 7.90831C12.1608 8.02691 10.7707 8.6691 9.72042 9.71975C8.67016 10.7704 8.02847 12.1608 7.91041 13.6416L7.63333 17.1125C7.59826 17.5495 7.4262 17.9643 7.14166 18.2979L4.88333 20.9458C3.91945 22.0767 3.39003 23.514 3.39003 25C3.39003 26.4859 3.91945 27.9232 4.88333 29.0541L7.14166 31.7021C7.4266 32.0362 7.59868 32.4518 7.63333 32.8896L7.91041 36.3583C8.02895 37.8388 8.67084 39.2287 9.72106 40.2789C10.7713 41.3291 12.1612 41.971 13.6417 42.0896L17.1125 42.3666C17.55 42.4021 17.9646 42.575 18.2979 42.8583L20.9458 45.1166C22.0767 46.0805 23.5141 46.6099 25 46.6099C26.4859 46.6099 27.9233 46.0805 29.0542 45.1166L31.7021 42.8583C32.0354 42.575 32.4521 42.4021 32.8896 42.3666L36.3583 42.0896C37.8388 41.971 39.2287 41.3291 40.2789 40.2789C41.3292 39.2287 41.971 37.8388 42.0896 36.3583L42.3667 32.8875C42.4017 32.4504 42.5738 32.0356 42.8583 31.7021L45.1167 29.0541C46.0805 27.9232 46.61 26.4859 46.61 25C46.61 23.514 46.0805 22.0767 45.1167 20.9458L42.8583 18.2979C42.5734 17.9638 42.4013 17.5482 42.3667 17.1104L42.0896 13.6416C41.9715 12.1608 41.3298 10.7704 40.2796 9.71975C39.2293 8.6691 37.8391 8.02691 36.3583 7.90831L32.8875 7.63331C32.4505 7.59824 32.0356 7.42619 31.7021 7.14164L29.0542 4.88331ZM23.6458 8.05623C24.0229 7.73457 24.5023 7.55787 24.9979 7.55787C25.4935 7.55787 25.9729 7.73457 26.35 8.05623L29 10.3125C30.0009 11.1653 31.2454 11.6808 32.5562 11.7854L36.025 12.0625C36.5189 12.1015 36.9827 12.3153 37.3332 12.6654C37.6837 13.0155 37.8979 13.4791 37.9375 13.9729L38.2146 17.4437C38.3192 18.7546 38.8346 19.999 39.6875 21L41.9437 23.6479C42.2654 24.025 42.4421 24.5044 42.4421 25C42.4421 25.4956 42.2654 25.975 41.9437 26.3521L39.6875 29C38.8346 30.0009 38.3192 31.2454 38.2146 32.5562L37.9375 36.025C37.8984 36.5192 37.6843 36.9832 37.3338 37.3338C36.9832 37.6843 36.5192 37.8984 36.025 37.9375L32.5562 38.2146C31.2454 38.3192 30.0009 38.8346 29 39.6875L26.3521 41.9437C25.975 42.2654 25.4956 42.4421 25 42.4421C24.5044 42.4421 24.025 42.2654 23.6479 41.9437L21 39.6875C19.999 38.8346 18.7546 38.3192 17.4437 38.2146L13.9729 37.9375C13.4791 37.8979 13.0155 37.6836 12.6654 37.3331C12.3153 36.9826 12.1015 36.5188 12.0625 36.025L11.7854 32.5562C11.6808 31.2454 11.1654 30.0009 10.3125 29L8.05624 26.3521C7.73458 25.975 7.55789 25.4956 7.55789 25C7.55789 24.5044 7.73458 24.025 8.05624 23.6479L10.3125 21C11.1654 19.999 11.6808 18.7546 11.7854 17.4437L12.0625 13.9729C12.102 13.4794 12.316 13.0161 12.666 12.666C13.0161 12.316 13.4794 12.102 13.9729 12.0625L17.4437 11.7854C18.7546 11.6808 19.999 11.1653 21 10.3125L23.6479 8.05623H23.6458ZM32.7208 22.3062C33.1003 21.9133 33.3103 21.3871 33.3056 20.8408C33.3008 20.2946 33.0817 19.772 32.6954 19.3858C32.3092 18.9995 31.7867 18.7804 31.2404 18.7757C30.6942 18.7709 30.1679 18.9809 29.775 19.3604L22.9167 26.2208L20.2229 23.5271C20.0307 23.3281 19.8008 23.1694 19.5467 23.0602C19.2925 22.951 19.0191 22.8935 18.7425 22.8911C18.4659 22.8887 18.1915 22.9414 17.9355 23.0462C17.6795 23.1509 17.4469 23.3056 17.2513 23.5012C17.0556 23.6968 16.901 23.9295 16.7962 24.1855C16.6914 24.4415 16.6387 24.7159 16.6411 24.9925C16.6435 25.2691 16.701 25.5425 16.8102 25.7967C16.9194 26.0508 17.0781 26.2807 17.2771 26.4729L21.4437 30.6396C21.8344 31.0301 22.3642 31.2495 22.9167 31.2495C23.4691 31.2495 23.9989 31.0301 24.3896 30.6396L32.7229 22.3062H32.7208Z" fill="url(#paint0_linear_109_58)"></path><defs><linearGradient id="paint0_linear_109_58" x1="46.3658" y1="4.44416" x2="-3.12591" y2="15.3039" gradientUnits="userSpaceOnUse"><stop stop-color="#06E8FF"></stop><stop offset="0.495946" stop-color="#B11AFF"></stop><stop offset="1" stop-color="#FF00B8"></stop></linearGradient></defs></svg>