<svg xmlns="http://www.w3.org/2000/svg" width="50" height="50" viewBox="0 0 50 50" fill="none"><path d="M39.5833 2.08337H18.75C16.4583 2.08337 14.5833 3.95837 14.5833 6.25004V10.4167C14.5833 11.5625 15.5208 12.5 16.6666 12.5C17.8125 12.5 18.75 11.5625 18.75 10.4167V8.33337H39.5833V41.6667H18.75V39.5834C18.75 38.4375 17.8125 37.5 16.6666 37.5C15.5208 37.5 14.5833 38.4375 14.5833 39.5834V43.75C14.5833 46.0417 16.4583 47.9167 18.75 47.9167H39.5833C41.875 47.9167 43.75 46.0417 43.75 43.75V6.25004C43.75 3.95837 41.875 2.08337 39.5833 2.08337ZM14.6041 28.0625L10.6041 24.0625C9.87498 23.3334 8.68748 23.3334 7.95831 24.0625C7.22915 24.7917 7.22915 25.9792 7.95831 26.7084L13.1041 31.8542C13.9166 32.6667 15.2291 32.6667 16.0416 31.8542L28.2291 19.6667C28.9583 18.9375 28.9583 17.75 28.2291 17.0209C27.5 16.2917 26.3125 16.2917 25.5833 17.0209L14.6041 28.0625Z" fill="url(#paint0_linear_109_54)"></path><defs><linearGradient id="paint0_linear_109_54" x1="43.5447" y1="3.20126" x2="1.21071" y2="10.5661" gradientUnits="userSpaceOnUse"><stop stop-color="#06E8FF"></stop><stop offset="0.495946" stop-color="#B11AFF"></stop><stop offset="1" stop-color="#FF00B8"></stop></linearGradient></defs></svg>