<svg xmlns="http://www.w3.org/2000/svg" width="50" height="50" viewBox="0 0 50 50" fill="none"><path d="M6.54165 2.08331C5.35922 2.08331 4.22523 2.55303 3.38913 3.38913C2.55303 4.22523 2.08331 5.35922 2.08331 6.54165V10.4166H6.24998V6.24998H10.4166V2.08331H6.54165ZM14.5833 2.08331V6.24998H20.8333V2.08331H14.5833ZM25 2.08331V6.24998H29.1666V10.4166H33.3333V6.54165C33.3333 4.08331 31.3333 2.08331 28.875 2.08331H25ZM2.08331 14.5833V20.8333H6.24998V14.5833H2.08331ZM18.75 14.5833C16.4375 14.5833 14.5833 16.4375 14.5833 18.75V33.3333H28.875C30.0574 33.3333 31.1914 32.8636 32.0275 32.0275C32.8636 31.1914 33.3333 30.0574 33.3333 28.875V14.5833H18.75ZM37.5 14.5833V18.75H41.6666V22.9166H45.8333V18.75C45.8333 16.4375 43.9791 14.5833 41.6666 14.5833H37.5ZM18.75 18.75H29.1666V29.1666H18.75V18.75ZM2.08331 25V28.875C2.08331 31.3333 4.08331 33.3333 6.54165 33.3333H10.4166V29.1666H6.24998V25H2.08331ZM41.6666 27.0833V33.3333H45.8333V27.0833H41.6666ZM14.5833 37.5V41.6666C14.5833 43.9791 16.4375 45.8333 18.75 45.8333H22.9166V41.6666H18.75V37.5H14.5833ZM41.6666 37.5V41.6666H37.5V45.8333H41.6666C43.9791 45.8333 45.8333 43.9791 45.8333 41.6666V37.5H41.6666ZM27.0833 41.6666V45.8333H33.3333V41.6666H27.0833Z" fill="url(#paint0_linear_109_42)"></path><defs><linearGradient id="paint0_linear_109_42" x1="45.5861" y1="3.15039" x2="-4.51254" y2="14.1433" gradientUnits="userSpaceOnUse"><stop stop-color="#06E8FF"></stop><stop offset="0.495946" stop-color="#B11AFF"></stop><stop offset="1" stop-color="#FF00B8"></stop></linearGradient></defs></svg>