<svg xmlns="http://www.w3.org/2000/svg" width="50" height="50" viewBox="0 0 50 50" fill="none"><path d="M7.16875 20.7396C5.36341 22.5426 4.29447 24.9535 4.17044 27.502C4.0464 30.0505 4.87616 32.5538 6.49787 34.5236C8.11958 36.4934 10.4169 37.7885 12.9418 38.1562C15.4667 38.524 18.038 37.9379 20.1542 36.5125L29.0208 45.3812C29.3072 45.674 29.6943 45.8468 30.1034 45.8643C30.5126 45.8818 30.913 45.7427 31.2233 45.4755C31.5336 45.2082 31.7304 44.8327 31.7737 44.4255C31.8169 44.0183 31.7034 43.6098 31.4563 43.2833L31.3 43.1021L22.5125 34.3146C24.1119 32.2542 24.8669 29.6622 24.6242 27.0652C24.3815 24.4682 23.1592 22.061 21.2057 20.3327C19.2522 18.6043 16.714 17.6845 14.1067 17.7601C11.4995 17.8357 9.01886 18.901 7.16875 20.7396ZM25.0542 4.16248C15.1458 4.16248 6.85417 11.0771 4.73958 20.3437C5.975 18.7759 7.57294 17.5319 9.39583 16.7187C11.3756 12.9831 14.623 10.0763 18.5542 8.52081L18.3312 8.88331C17.2104 10.7437 16.3083 13.0729 15.675 15.7166C16.7146 15.8208 17.7375 16.0583 18.7271 16.425C20.0438 10.95 22.525 7.28956 25.0542 7.28956L25.2937 7.29998C27.9312 7.54164 30.4771 11.7125 31.6604 17.7083H21.2479C22.5054 18.5441 23.5997 19.6024 24.4771 20.8312L32.1313 20.8333C32.4969 24.3028 32.4016 27.8055 31.8479 31.25H26.3375C26.1745 31.8496 25.9663 32.436 25.7146 33.0041L25.4458 33.5708L25.1917 34.0479L25.5208 34.375H31.1771C30.7542 35.9354 30.2375 37.3291 29.6521 38.5104L31.9542 40.8166C32.9792 39.0291 33.8125 36.8416 34.4125 34.3791L40.0833 34.375C38.2191 37.3584 35.5119 39.722 32.3042 41.1666L32.7729 41.6312L33.0333 41.9229C33.4917 42.5396 33.75 43.225 33.8208 43.9083C37.4263 42.2358 40.4783 39.567 42.6166 36.2167C44.755 32.8665 45.8907 28.9745 45.8896 25C45.8896 13.4916 36.5604 4.16248 25.0542 4.16248ZM19.4042 23.0166C20.0625 23.6695 20.5855 24.446 20.943 25.3015C21.3005 26.157 21.4855 27.0747 21.4875 28.0019C21.4894 28.9291 21.3082 29.8476 20.9543 30.7046C20.6004 31.5616 20.0807 32.3402 19.425 32.9959C18.7694 33.6515 17.9908 34.1712 17.1338 34.5251C16.2768 34.879 15.3583 35.0602 14.4311 35.0583C13.5039 35.0564 12.5862 34.8713 11.7307 34.5138C10.8752 34.1563 10.0987 33.6333 9.44583 32.975C8.13439 31.6525 7.40028 29.8644 7.40418 28.0019C7.40808 26.1395 8.14966 24.3544 9.46662 23.0374C10.7836 21.7205 12.5686 20.9789 14.4311 20.975C16.2936 20.9711 18.0817 21.7052 19.4042 23.0166ZM35.275 20.8333L42.2708 20.8312L42.2875 20.8937C42.6 22.2125 42.7667 23.5854 42.7667 24.9979C42.7689 27.1327 42.3842 29.2503 41.6313 31.2479L35.0188 31.2521C35.3167 29.2729 35.4729 27.1729 35.4729 25C35.4729 23.575 35.4062 22.1812 35.275 20.8333ZM31.5521 8.51873L31.6 8.53539C35.865 10.2378 39.3054 13.5251 41.2 17.7083H34.8479C34.1958 14.0562 33.0563 10.8791 31.5521 8.52081V8.51873Z" fill="url(#paint0_linear_109_61)"></path><defs><linearGradient id="paint0_linear_109_61" x1="45.6538" y1="5.17963" x2="-2.13026" y2="15.6717" gradientUnits="userSpaceOnUse"><stop stop-color="#06E8FF"></stop><stop offset="0.495946" stop-color="#B11AFF"></stop><stop offset="1" stop-color="#FF00B8"></stop></linearGradient></defs></svg>