<svg xmlns="http://www.w3.org/2000/svg" width="202" height="191" viewBox="0 0 202 191" fill="none"><path d="M183.069 172.711C192.496 172.711 200.139 168.298 200.139 162.855C200.139 157.412 192.496 153 183.069 153C173.642 153 166 157.412 166 162.855C166 168.298 173.642 172.711 183.069 172.711Z" fill="#E0E0E0"></path><path d="M52.0693 190.711C61.4964 190.711 69.1386 186.298 69.1386 180.855C69.1386 175.412 61.4964 171 52.0693 171C42.6422 171 35 175.412 35 180.855C35 186.298 42.6422 190.711 52.0693 190.711Z" fill="#E0E0E0"></path><path d="M0.00428215 66.7922C0.0315727 66.2693 0.181889 65.7603 0.443008 65.3065C0.704127 64.8527 1.06867 64.467 1.50699 64.1806L78.5692 19.6815C79.0342 19.448 79.5473 19.3264 80.0677 19.3264C80.588 19.3264 81.1011 19.448 81.5661 19.6815L83.2786 20.6619C83.7169 20.9476 84.0817 21.3325 84.3436 21.7855C84.6054 22.2385 84.7568 22.7467 84.7856 23.2692V82.3502C84.7558 82.8729 84.604 83.3814 84.3423 83.835C84.0806 84.2885 83.7163 84.6744 83.2786 84.9617L6.21635 129.461C5.75078 129.692 5.23789 129.813 4.71792 129.813C4.19795 129.813 3.68506 129.692 3.21949 129.461L1.50699 128.48C1.06859 128.194 0.703756 127.808 0.441968 127.354C0.180179 126.901 0.0287796 126.392 0 125.869L0.00428215 66.7922Z" fill="url(#paint0_linear_305_1053)"></path><path d="M81.5961 19.6814L43.5188 0.587061C43.0637 0.306979 42.5567 0.121976 42.0282 0.0432148C41.4998 -0.0355466 40.9608 -0.00643309 40.4439 0.128796C39.927 0.264025 39.4428 0.502568 39.0206 0.830033C38.5984 1.1575 38.247 1.56709 37.9874 2.03412L0.440979 65.3065L2.43175 66.4539L83.5526 20.8373L81.5961 19.6814Z" fill="url(#paint1_linear_305_1053)"></path><path opacity="0.1" d="M81.5961 19.6814L43.5188 0.587061C43.0637 0.306979 42.5567 0.121976 42.0282 0.0432148C41.4998 -0.0355466 40.9608 -0.00643309 40.4439 0.128796C39.927 0.264025 39.4428 0.502568 39.0206 0.830033C38.5984 1.1575 38.247 1.56709 37.9874 2.03412L0.440979 65.3065L2.43175 66.4539L83.5526 20.8373L81.5961 19.6814Z" fill="black"></path><path opacity="0.1" d="M0 66.7878V125.869C0.0289039 126.392 0.180843 126.9 0.443454 127.353C0.706065 127.806 1.07193 128.191 1.51128 128.476L3.22377 129.461C3.36117 129.534 3.50437 129.595 3.65189 129.645C3.85335 129.713 4.0614 129.761 4.27267 129.786C4.66901 129.838 5.07129 129.824 5.46286 129.743C5.56132 129.743 5.65979 129.696 5.75398 129.666C5.81452 129.647 5.87325 129.623 5.92951 129.593C5.81628 129.644 5.69377 129.67 5.56989 129.67C5.446 129.67 5.32349 129.644 5.21026 129.593C5.04949 129.487 4.92121 129.339 4.8396 129.164C4.758 128.99 4.72626 128.796 4.74789 128.605V69.5235C4.73255 69.2552 4.79931 68.9886 4.93927 68.7591C5.07923 68.5297 5.28576 68.3483 5.53136 68.2391L4.74789 67.7853L0.466655 65.3193C0.190486 65.762 0.0300171 66.2669 0 66.7878Z" fill="black"></path><path opacity="0.1" d="M84.4473 21.942L49.7137 77.5252L48.0012 77.1913C46.6907 76.9358 45.3344 77.0599 44.0921 77.5491C42.8497 78.0383 41.773 78.8722 40.9885 79.9527L38.8822 82.8554L5.48853 68.2264L2.41888 66.454L83.5568 20.8374C83.9275 21.1394 84.2309 21.5157 84.4473 21.942Z" fill="black"></path><path d="M83.5524 20.8376C83.3444 20.6795 83.1255 20.5365 82.8973 20.4095L45.535 1.73473C45.0787 1.44905 44.5689 1.25952 44.0368 1.17774C43.5046 1.09596 42.9614 1.12366 42.4404 1.25913C41.9194 1.3946 41.4315 1.63499 41.0066 1.96559C40.5817 2.29618 40.2288 2.71003 39.9694 3.18178L2.43152 66.4541L83.5524 20.8376Z" fill="url(#paint2_linear_305_1053)"></path><path opacity="0.2" d="M84.0918 84.23C84.5101 83.7015 84.7567 83.0576 84.7982 82.3848L49.6921 77.5256L84.0918 84.23Z" fill="black"></path><path opacity="0.2" d="M38.8862 82.8557L5.06445 129.483C4.94896 129.367 4.86006 129.227 4.80388 129.073C4.7477 128.919 4.72559 128.755 4.73907 128.592V127.95L38.8862 82.8557Z" fill="black"></path><path d="M177.871 23.6255L180.868 25.338C180.851 25.2074 180.843 25.0758 180.842 24.9441V24.0879C180.842 22.5552 181.917 21.9473 183.248 22.6965C183.82 23.0499 184.309 23.5214 184.683 24.0793C184.901 22.1485 186.395 21.4293 188.253 22.491C190.24 23.6384 191.849 26.4297 191.849 28.7245V30.0088C191.863 30.5249 191.759 31.0374 191.546 31.5073L194.02 32.9329C194.408 33.1863 194.731 33.5278 194.963 33.9295C195.194 34.3312 195.327 34.7819 195.352 35.2448C195.352 36.101 194.756 36.4393 194.02 36.0154L177.871 26.708C177.483 26.4544 177.161 26.1129 176.929 25.7112C176.698 25.3095 176.564 24.859 176.54 24.3961C176.54 23.5442 177.135 23.2017 177.871 23.6255Z" fill="#EBEBEB"></path><path d="M165.135 32.295L167.382 33.5794C167.382 33.4809 167.382 33.3824 167.382 33.284V32.6461C167.382 31.4859 168.196 31.0192 169.198 31.5972C169.628 31.863 169.998 32.2177 170.281 32.6375C170.443 31.1819 171.586 30.6382 172.974 31.4388C173.764 31.9556 174.421 32.6512 174.893 33.4694C175.365 34.2875 175.637 35.2052 175.688 36.1481V37.1157C175.698 37.5033 175.621 37.8883 175.461 38.2416L177.328 39.3205C177.62 39.5118 177.864 39.7692 178.038 40.0719C178.213 40.3745 178.314 40.714 178.334 41.063C178.334 41.7052 177.88 41.9663 177.328 41.6452L165.135 34.624C164.842 34.4318 164.599 34.1736 164.424 33.8702C164.249 33.5669 164.148 33.2268 164.129 32.8773C164.129 32.2351 164.582 31.9782 165.135 32.295Z" fill="#EBEBEB"></path><path d="M80.2765 100.233C79.6257 100.773 78.8808 101.047 78.0246 101.881C77.4829 102.497 76.7997 102.972 76.0338 103.264C75.0448 103.654 74.1158 103.538 71.3758 103.102C68.0193 102.562 66.5765 102.001 65.1295 100.764C63.4384 99.3212 59.6581 94.9715 57.8257 93.259C55.8949 91.4523 53.2319 92.1501 53.2319 92.1501C54.0552 94.8292 55.2792 97.3682 56.8624 99.6808C58.3266 101.766 61.0623 103.761 62.3039 104.793C64.2818 106.441 65.335 107.092 69.689 107.417C72.9727 107.665 73.4094 107.747 76.1109 107.665C77.0827 107.635 77.6906 107.627 79.279 107.494C79.971 107.453 80.6561 107.334 81.3211 107.139C82.0742 106.964 82.7961 106.676 83.4617 106.282C84.3311 105.718 85.0321 104.93 85.491 104.001C85.745 103.492 85.8741 102.93 85.8678 102.361C85.8629 101.789 85.6533 101.238 85.277 100.807C85.2055 100.716 85.1108 100.647 85.003 100.606C84.7974 100.568 84.5854 100.613 84.4122 100.73C83.3804 101.261 82.3443 101.984 81.2697 102.399C80.3578 102.75 79.6686 102.87 79.7328 102.686C79.797 102.502 80.3493 102.335 80.9144 101.697C81.4795 101.059 81.6208 100.173 81.2569 99.8992C80.893 99.6252 80.9315 99.6937 80.2765 100.233Z" fill="#B16668"></path><path d="M52.4528 92.1374C53.4877 91.6401 54.662 91.5132 55.7793 91.7778C57.4918 92.2615 58.8318 93.3704 60.4458 95.1C62.0598 96.8296 64.7827 99.6381 64.7827 99.6381C64.7827 99.6381 63.4427 103.033 60.4287 104.236L54.1096 98.3923L52.4528 92.1374Z" fill="#455A64"></path><path d="M43.1666 176.272H46.9983V169.714H43.1666V176.272Z" fill="#B16668"></path><path d="M53.7712 171.366L57.5986 171.499L57.7913 164.559L53.7712 164.426V171.366Z" fill="#B16668"></path><path d="M41.5397 120.754C41.5397 124.41 42.1862 145.687 42.1862 145.687C42.0963 146.741 41.0816 148.612 41.0046 152.405C40.889 157.902 43.0082 172.997 43.0082 172.997C43.6716 173.326 44.3993 173.503 45.1392 173.518C45.8792 173.533 46.6134 173.384 47.2894 173.083C47.2894 173.083 49.0276 152.619 49.7126 147.177C50.312 142.425 51.3266 129.521 51.3266 129.521L53.1333 145.028C52.6899 147.025 52.5299 149.074 52.6581 151.116C52.8379 153.633 53.5443 169.221 53.5443 169.221C54.2115 169.599 54.9536 169.825 55.7179 169.883C56.4822 169.942 57.25 169.831 57.9668 169.56C57.9668 169.56 60.6683 147.34 60.7154 145.028C60.7667 142.395 59.7136 115.518 59.7136 115.518L41.5397 120.754Z" fill="#37474F"></path><path d="M44.0571 93.8373C43.2125 94.2109 42.5484 94.9012 42.2076 95.7596C41.8154 96.8179 41.6251 97.9405 41.6468 99.069V106.578L41.5397 120.749C47.0368 123.648 54.0281 123.84 59.8934 119.559C59.8934 119.559 59.5637 101.317 59.5637 98.3326C59.5637 98.1956 59.5637 98.0586 59.5637 97.9045C59.3497 93.6233 55.1541 90.7163 51.0227 91.778L47.5506 92.6728L44.0571 93.8373Z" fill="#F0F0F0"></path><path d="M59.0125 81.0835C59.6806 78.253 57.9276 75.4168 55.097 74.7487C52.2665 74.0807 49.4304 75.8337 48.7623 78.6642C48.0942 81.4947 49.8473 84.3309 52.6778 84.9989C55.5083 85.667 58.3445 83.914 59.0125 81.0835Z" fill="#263238"></path><path d="M44.7892 83.6223C44.7892 83.6223 45.6454 87.6295 45.9879 88.2889C46.2119 88.7006 46.5885 89.0081 47.0368 89.1451L46.9769 86.3281L44.7892 83.6223Z" fill="#263238"></path><path d="M45.8595 77.8812C45.5618 77.8461 45.2601 77.8796 44.9774 77.979C44.6947 78.0784 44.4384 78.2412 44.2283 78.4549C43.5262 79.1741 43.9158 81.4218 44.7892 83.6223L46.3989 83.8064L45.8595 77.8812Z" fill="#263238"></path><path d="M46.8784 83.8064C46.5573 83.999 46.0993 83.3782 45.7011 82.9501C45.3029 82.522 43.9886 81.9697 43.3593 83.3311C42.7299 84.6926 43.9287 86.5549 44.9519 86.876C46.7115 87.4283 46.9769 86.3023 46.9769 86.3023L47.1053 92.844C49.2931 95.6482 55.3681 95.4128 52.8379 92.4801V90.5493C53.6232 90.6757 54.4198 90.7173 55.214 90.6735C56.4984 90.4722 57.3204 89.449 57.7142 88.0491C58.3436 85.7971 58.5705 83.9819 58.0482 79.5551C57.4616 74.7044 51.819 74.6531 48.775 76.5582C45.7311 78.4634 46.8784 83.8064 46.8784 83.8064Z" fill="#B16668"></path><path d="M46.8784 84.3629C46.7157 84.3629 46.1035 83.3439 45.7011 82.9757C45.1445 82.4705 45.8595 77.8939 45.8595 77.8939C45.7148 77.4972 45.6888 77.0669 45.7846 76.6556C45.8804 76.2443 46.0938 75.8698 46.3989 75.5778C47.161 74.7215 47.9872 74.2078 50.1835 74.0922C51.6845 74.0864 53.1849 74.1564 54.6788 74.302C56.8494 74.4475 57.6457 73.9166 58.8916 73.5656C59.8463 73.3001 59.9533 76.738 57.5472 77.8768C57.5472 77.8768 56.7638 78.382 54.7002 78.6346C52.7974 78.7782 50.8852 78.7424 48.9891 78.5275C48.394 78.4462 48.2655 79.0242 47.9402 80.6082C47.6576 81.9825 47.4264 84.3372 46.8784 84.3629Z" fill="#263238"></path><path d="M45.8638 78.2365L43.9158 77.1876C43.9785 77.0565 44.0671 76.9395 44.1762 76.8436C44.2854 76.7478 44.4128 76.675 44.5509 76.6298C44.6889 76.5846 44.8347 76.5678 44.9795 76.5805C45.1242 76.5933 45.2648 76.6352 45.3929 76.7038C45.6535 76.8496 45.848 77.0902 45.9357 77.3757C46.0234 77.6612 45.9977 77.9695 45.8638 78.2365Z" fill="#263238"></path><path d="M52.8293 90.5623C52.8293 90.5623 49.9438 89.98 48.9334 89.4448C48.3396 89.1335 47.8521 88.652 47.5334 88.062C47.6884 88.653 47.9591 89.2075 48.3298 89.6932C49.0661 90.635 52.8293 91.3329 52.8293 91.3329V90.5623Z" fill="#9A4A4D"></path><path d="M52.688 83.0787C52.688 83.1546 52.6731 83.2298 52.644 83.2999C52.615 83.37 52.5724 83.4337 52.5187 83.4874C52.4651 83.5411 52.4014 83.5836 52.3312 83.6127C52.2611 83.6417 52.186 83.6567 52.1101 83.6567C52.0342 83.6567 51.959 83.6417 51.8889 83.6127C51.8188 83.5836 51.7551 83.5411 51.7014 83.4874C51.6477 83.4337 51.6051 83.37 51.5761 83.2999C51.547 83.2298 51.5321 83.1546 51.5321 83.0787C51.5321 83.0028 51.547 82.9276 51.5761 82.8575C51.6051 82.7874 51.6477 82.7237 51.7014 82.67C51.7551 82.6164 51.8188 82.5738 51.8889 82.5447C51.959 82.5157 52.0342 82.5007 52.1101 82.5007C52.186 82.5007 52.2611 82.5157 52.3312 82.5447C52.4014 82.5738 52.4651 82.6164 52.5187 82.67C52.5724 82.7237 52.615 82.7874 52.644 82.8575C52.6731 82.9276 52.688 83.0028 52.688 83.0787Z" fill="#263238"></path><path d="M52.0758 80.8994L50.8386 81.5844C50.7488 81.4145 50.7285 81.2164 50.782 81.0319C50.8355 80.8474 50.9587 80.6909 51.1254 80.5954C51.2074 80.5513 51.2975 80.5242 51.3902 80.5156C51.4829 80.5071 51.5764 80.5173 51.6651 80.5457C51.7538 80.574 51.8359 80.62 51.9065 80.6807C51.977 80.7415 52.0346 80.8159 52.0758 80.8994Z" fill="#263238"></path><path d="M52.5682 87.0859L53.8911 87.5783C53.8614 87.6663 53.8143 87.7474 53.7526 87.8169C53.691 87.8863 53.616 87.9427 53.5322 87.9826C53.4483 88.0225 53.3573 88.0452 53.2645 88.0493C53.1717 88.0534 53.0791 88.0388 52.992 88.0064C52.8176 87.9356 52.6768 87.801 52.598 87.63C52.5193 87.459 52.5086 87.2645 52.5682 87.0859Z" fill="#9A4A4D"></path><path d="M57.6843 81.3661L56.554 80.5099C56.6075 80.4337 56.6759 80.3692 56.755 80.3202C56.8341 80.2711 56.9223 80.2386 57.0144 80.2246C57.1064 80.2106 57.2003 80.2154 57.2904 80.2387C57.3805 80.262 57.465 80.3032 57.5387 80.36C57.6859 80.4781 57.7827 80.6477 57.8098 80.8344C57.8368 81.0211 57.7919 81.2112 57.6843 81.3661Z" fill="#263238"></path><path d="M57.3289 82.9203C57.3247 83.0347 57.2869 83.1452 57.2202 83.2382C57.1535 83.3312 57.061 83.4024 56.954 83.4431C56.8471 83.4838 56.7305 83.492 56.6189 83.4669C56.5073 83.4417 56.4056 83.3842 56.3265 83.3016C56.2474 83.2189 56.1943 83.1148 56.174 83.0022C56.1537 82.8896 56.1671 82.7735 56.2123 82.6685C56.2576 82.5634 56.3328 82.474 56.4286 82.4114C56.5244 82.3489 56.6365 82.3159 56.7509 82.3167C56.8287 82.3178 56.9055 82.3343 56.9768 82.3654C57.0481 82.3964 57.1125 82.4413 57.1663 82.4975C57.2201 82.5537 57.2621 82.62 57.2901 82.6926C57.318 82.7652 57.3312 82.8426 57.3289 82.9203Z" fill="#263238"></path><path d="M54.3877 82.3723L54.5761 85.853L56.3956 85.2322L54.3877 82.3723Z" fill="#9A4A4D"></path><path d="M47.0026 174.385V173.841C47.3665 173.999 48.2185 177.266 49.7383 178.636C50.9456 179.736 52.5939 181.008 53.0134 182.236C53.433 183.465 50.7187 184.223 49.5885 184.022C48.2784 183.79 46.0051 182.866 45.4357 182.009C44.8663 181.153 44.5794 179.89 44.1513 179.265C43.7232 178.64 42.6186 177.934 42.366 177.21C42.229 176.812 42.3917 175.926 42.5844 175.198C42.777 174.47 42.9568 173.777 43.188 173.841V174.269C43.7319 174.699 44.4082 174.928 45.1017 174.915C45.6454 174.92 47.0069 174.813 47.0026 174.385Z" fill="#263238"></path><path d="M57.6414 170.317C57.8384 170.317 58.001 170.604 58.4377 171.079C59.0944 171.742 59.8569 172.29 60.6939 172.702C62.1282 173.421 64.9152 174.526 66.1782 175.091C66.9659 175.446 66.9274 176.401 66.114 176.94C65.3006 177.48 63.3312 177.874 60.9765 177.347C59.6921 177.06 58.0139 175.87 56.9521 175.934C55.8904 175.998 53.9082 175.981 53.1247 175.442C52.3412 174.902 52.6581 173.751 52.8764 172.762C53.1204 171.679 53.4201 169.996 53.7798 170.069V170.441C54.2378 171.139 56.6139 171.422 57.6329 170.908L57.6414 170.317Z" fill="#263238"></path><path d="M51.3095 129.517C53.2899 128.901 55.1109 127.857 56.6439 126.46C56.6439 126.46 55.6164 128.387 52.5553 130.181L52.9835 143.722L51.3095 129.517Z" fill="#263238"></path><path d="M150.027 146.415L122.687 162.221L122.623 162.187L112.229 156.185C111.324 155.603 110.605 154.774 110.159 153.795C109.712 152.817 109.556 151.73 109.709 150.665L113.554 130.622L140.894 114.816L137.049 134.859C136.896 135.924 137.052 137.011 137.498 137.989C137.945 138.968 138.664 139.797 139.569 140.379L150.027 146.415Z" fill="#37474F"></path><path d="M113.554 130.613L109.73 150.482L137.075 134.697L140.612 116.32L138.89 115.974L113.554 130.613Z" fill="#263238"></path><path d="M122.687 162.212L112.23 156.176C111.324 155.595 110.606 154.765 110.159 153.787C109.712 152.808 109.556 151.722 109.709 150.657L113.554 130.613L108.991 127.978L104.583 150.909C104.002 153.942 105.711 157.688 108.385 159.23L122.687 167.475V162.212Z" fill="#263238"></path><path d="M150.023 146.411L122.674 162.212V167.479L150.023 151.678V146.411Z" fill="#455A64"></path><path d="M176.777 16.5247C178.038 17.2551 179.059 19.0878 179.059 20.6513V104.576C179.013 105.419 178.769 106.24 178.346 106.971C177.924 107.702 177.335 108.323 176.628 108.784L72.0185 169.184C70.6729 169.957 68.5626 169.996 67.3194 169.269C66.0763 168.543 65.0383 166.706 65.0383 165.143V81.222C65.0844 80.3784 65.3285 79.5575 65.7508 78.8258C66.1731 78.0941 66.7617 77.472 67.469 77.0099L172.065 16.6144C173.407 15.8241 175.517 15.7984 176.777 16.5247Z" fill="#455A64"></path><path d="M71.728 169.329C70.3866 169.957 68.4771 169.944 67.3024 169.269C66.0422 168.543 65.0212 166.706 65.0212 165.147V81.222C65.0515 80.3755 65.2971 79.5507 65.7346 78.8254L70.2969 81.4612C69.8591 82.1847 69.6135 83.0082 69.5835 83.8534V167.778C69.5835 169.218 70.5191 169.863 71.728 169.329Z" fill="#263238"></path><path d="M179.076 104.576V20.6513C179.076 19.1006 177.986 18.4727 176.645 19.2459L72.0185 79.6414C71.3105 80.1028 70.7214 80.7246 70.299 81.4565C69.8767 82.1884 69.633 83.0097 69.5878 83.8535V167.778C69.5878 169.329 70.6772 169.957 72.0228 169.184L176.628 108.784C177.338 108.325 177.931 107.705 178.356 106.974C178.781 106.242 179.028 105.421 179.076 104.576Z" fill="#37474F"></path><path d="M173.719 23.5135L73.8127 81.2392C73.2449 81.6063 72.7715 82.1019 72.4308 82.686C72.0902 83.2701 71.8919 83.9261 71.8519 84.6011V159.124C71.8519 160.363 72.7063 160.867 73.7956 160.247L173.719 102.543C174.286 102.174 174.758 101.676 175.095 101.089C175.432 100.503 175.625 99.8441 175.658 99.1682V24.6541C175.658 23.4153 174.804 22.9112 173.719 23.5135Z" fill="url(#paint3_linear_305_1053)"></path><path d="M75.5983 152.878C75.5983 154.16 76.4997 154.681 77.6104 154.04L169.921 100.744C170.507 100.362 170.994 99.8474 171.344 99.2418C171.693 98.6362 171.895 97.9567 171.933 97.2585V35.1157L75.5983 90.7354V152.878Z" fill="#FAFAFA"></path><path d="M171.506 35.8548V97.2585C171.467 97.8818 171.284 98.4876 170.972 99.0285C170.66 99.5695 170.227 100.031 169.707 100.377L77.4053 153.668C77.1991 153.8 76.9619 153.875 76.7176 153.886C76.0981 153.886 76.0341 153.181 76.0341 152.878V90.9831L171.514 35.8761L171.506 35.8548ZM171.942 35.1371L75.5983 90.7353V152.878C75.5983 153.788 76.0511 154.313 76.709 154.313C77.0283 154.303 77.3393 154.209 77.6104 154.04L169.921 100.744C170.507 100.362 170.994 99.8474 171.344 99.2418C171.693 98.6362 171.895 97.9567 171.933 97.2585V35.1157L171.942 35.1371Z" fill="#E0E0E0"></path><path d="M80.182 92.3671L99.1533 81.414C99.6617 81.1193 100.076 81.3585 100.076 81.948V135.914C100.058 136.235 99.9657 136.547 99.8055 136.825C99.6452 137.104 99.4218 137.34 99.1533 137.516L80.182 148.469C79.6694 148.764 79.255 148.525 79.255 147.935V93.969C79.2724 93.6479 79.3655 93.3354 79.5266 93.057C79.6877 92.7786 79.9122 92.5422 80.182 92.3671Z" fill="#F0F0F0"></path><path d="M83.6508 94.3706L95.6846 87.4245C96.1929 87.1298 96.6073 87.3391 96.6073 87.8944C96.5842 88.2044 96.4887 88.5047 96.3285 88.771C96.1682 89.0374 95.9477 89.2624 95.6846 89.428L83.6508 96.3741C83.1381 96.6688 82.7238 96.4595 82.7238 95.9085C82.7463 95.5972 82.842 95.2958 83.0031 95.0285C83.1642 94.7613 83.3861 94.5359 83.6508 94.3706Z" fill="#FAFAFA"></path><path d="M82.7238 99.5525V100.274C82.7238 100.629 82.9758 100.774 83.2791 100.595L83.9071 100.236C84.0687 100.131 84.2033 99.9889 84.2997 99.8219C84.3962 99.6549 84.452 99.4675 84.4624 99.2748V98.5529C84.4624 98.1983 84.2104 98.0531 83.9071 98.2325L83.2791 98.5913C83.1184 98.6976 82.9846 98.8397 82.8882 99.0065C82.7918 99.1733 82.7355 99.3602 82.7238 99.5525V99.5525Z" fill="url(#paint4_linear_305_1053)"></path><path d="M86.1968 97.912C86.1968 98.4631 86.624 98.6724 87.1195 98.3777L95.6632 93.4351C95.9263 93.2695 96.1468 93.0445 96.3071 92.7781C96.4674 92.5118 96.5629 92.2115 96.5859 91.9015C96.5859 91.3462 96.1588 91.1369 95.6632 91.4316L87.1195 96.3742C86.8559 96.5402 86.635 96.7659 86.4747 97.033C86.3144 97.3002 86.2192 97.6013 86.1968 97.912Z" fill="#FAFAFA"></path><path d="M82.7238 103.564V104.286C82.7238 104.64 82.9758 104.786 83.2791 104.606L83.9071 104.247C84.0689 104.142 84.2037 104 84.3002 103.833C84.3967 103.666 84.4523 103.479 84.4624 103.286V102.564C84.4624 102.21 84.2104 102.064 83.9071 102.244L83.2791 102.603C83.1184 102.709 82.9846 102.851 82.8882 103.018C82.7918 103.185 82.7355 103.371 82.7238 103.564V103.564Z" fill="url(#paint5_linear_305_1053)"></path><path d="M86.1968 101.923C86.1968 102.474 86.624 102.684 87.1195 102.389L95.6632 97.4463C95.9263 97.2808 96.1468 97.0557 96.3071 96.7894C96.4674 96.523 96.5629 96.2227 96.5859 95.9127C96.5859 95.3574 96.1588 95.1481 95.6632 95.4428L87.1195 100.385C86.8559 100.551 86.635 100.777 86.4747 101.044C86.3144 101.311 86.2192 101.613 86.1968 101.923Z" fill="#FAFAFA"></path><path d="M82.7238 107.571V108.293C82.7238 108.647 82.9758 108.788 83.2791 108.613L83.9071 108.25C84.0689 108.145 84.2037 108.003 84.3002 107.836C84.3967 107.669 84.4523 107.482 84.4624 107.289V106.567C84.4624 106.212 84.2104 106.071 83.9071 106.247L83.2791 106.61C83.1177 106.715 82.9833 106.857 82.8869 107.024C82.7904 107.191 82.7345 107.378 82.7238 107.571V107.571Z" fill="url(#paint6_linear_305_1053)"></path><path d="M86.1968 105.926C86.1968 106.481 86.624 106.691 87.1195 106.396L95.6632 101.453C95.9268 101.287 96.1477 101.062 96.308 100.794C96.4683 100.527 96.5635 100.226 96.5859 99.9154C96.5859 99.3644 96.1588 99.155 95.6632 99.4498L87.1195 104.392C86.8564 104.558 86.6359 104.783 86.4756 105.049C86.3154 105.316 86.2199 105.616 86.1968 105.926Z" fill="#FAFAFA"></path><path d="M82.7238 111.573V112.295C82.7238 112.65 82.9758 112.791 83.2791 112.616L83.9071 112.253C84.0689 112.148 84.2037 112.006 84.3002 111.839C84.3967 111.672 84.4523 111.484 84.4624 111.292V110.57C84.4624 110.215 84.2104 110.074 83.9071 110.249L83.2791 110.612C83.1177 110.718 82.9833 110.86 82.8869 111.027C82.7904 111.194 82.7345 111.381 82.7238 111.573V111.573Z" fill="url(#paint7_linear_305_1053)"></path><path d="M86.1968 109.929C86.1968 110.484 86.624 110.694 87.1195 110.399L95.6632 105.456C95.9268 105.29 96.1477 105.065 96.308 104.797C96.4683 104.53 96.5635 104.229 96.5859 103.918C96.5859 103.367 96.1588 103.158 95.6632 103.453L87.1195 108.395C86.8564 108.561 86.6359 108.786 86.4756 109.052C86.3154 109.319 86.2199 109.619 86.1968 109.929Z" fill="#FAFAFA"></path><path d="M83.5782 116.452L95.6077 109.506C96.1204 109.211 96.5347 109.421 96.5347 109.972C96.5122 110.283 96.4164 110.584 96.2554 110.852C96.0943 111.119 95.8724 111.344 95.6077 111.509L83.5782 118.456C83.0656 118.75 82.6512 118.541 82.6512 117.99C82.6737 117.679 82.7695 117.377 82.9305 117.11C83.0916 116.843 83.3135 116.617 83.5782 116.452Z" fill="#FAFAFA"></path><path d="M82.6512 121.634V122.356C82.6512 122.71 82.899 122.855 83.2065 122.676L83.8345 122.317C83.9956 122.212 84.1295 122.07 84.2252 121.903C84.321 121.736 84.3759 121.548 84.3856 121.356V120.634C84.3856 120.279 84.1378 120.134 83.8345 120.314L83.2065 120.672C83.0449 120.778 82.9103 120.92 82.8138 121.087C82.7173 121.254 82.6616 121.441 82.6512 121.634V121.634Z" fill="url(#paint8_linear_305_1053)"></path><path d="M86.1242 119.993C86.1242 120.544 86.5514 120.754 87.0469 120.459L95.5907 115.516C95.8548 115.352 96.0763 115.127 96.2374 114.86C96.3984 114.594 96.4944 114.293 96.5176 113.983C96.5176 113.427 96.0905 113.218 95.5907 113.513L87.0469 118.455C86.7833 118.621 86.5624 118.847 86.4021 119.114C86.2418 119.381 86.1466 119.683 86.1242 119.993Z" fill="#FAFAFA"></path><path d="M82.6512 125.645V126.367C82.6512 126.722 82.899 126.867 83.2065 126.687L83.8345 126.329C83.9956 126.223 84.1295 126.081 84.2252 125.914C84.321 125.747 84.3759 125.56 84.3856 125.367V124.645C84.3856 124.291 84.1378 124.146 83.8345 124.325L83.2065 124.684C83.0449 124.789 82.9103 124.931 82.8138 125.098C82.7173 125.265 82.6616 125.452 82.6512 125.645V125.645Z" fill="url(#paint9_linear_305_1053)"></path><path d="M86.1242 124.005C86.1242 124.556 86.5514 124.765 87.0469 124.47L95.5907 119.528C95.8548 119.363 96.0763 119.138 96.2374 118.872C96.3984 118.605 96.4944 118.305 96.5176 117.994C96.5176 117.439 96.0905 117.229 95.5907 117.524L87.0469 122.467C86.7833 122.633 86.5624 122.858 86.4021 123.126C86.2418 123.393 86.1466 123.694 86.1242 124.005Z" fill="#FAFAFA"></path><path d="M82.6512 129.652V130.374C82.6512 130.728 82.899 130.869 83.2065 130.694L83.8345 130.331C83.9958 130.226 84.1299 130.084 84.2257 129.917C84.3215 129.75 84.3763 129.562 84.3856 129.37V128.648C84.3856 128.293 84.1378 128.152 83.8345 128.328L83.2065 128.691C83.0446 128.796 82.9099 128.937 82.8134 129.105C82.7169 129.272 82.6613 129.459 82.6512 129.652V129.652Z" fill="url(#paint10_linear_305_1053)"></path><path d="M86.1242 128.007C86.1242 128.563 86.5514 128.772 87.0469 128.477L95.5907 123.535C95.8553 123.369 96.0772 123.144 96.2383 122.877C96.3994 122.609 96.4951 122.308 96.5176 121.997C96.5176 121.446 96.0905 121.236 95.5907 121.531L87.0469 126.474C86.7839 126.639 86.5633 126.864 86.4031 127.131C86.2428 127.397 86.1473 127.697 86.1242 128.007Z" fill="#FAFAFA"></path><path d="M82.6512 133.655V134.377C82.6512 134.731 82.899 134.872 83.2065 134.697L83.8345 134.334C83.9958 134.229 84.1299 134.087 84.2257 133.92C84.3215 133.753 84.3763 133.565 84.3856 133.373V132.651C84.3856 132.296 84.1378 132.155 83.8345 132.33L83.2065 132.694C83.0446 132.799 82.9099 132.94 82.8134 133.107C82.7169 133.275 82.6613 133.462 82.6512 133.655V133.655Z" fill="url(#paint11_linear_305_1053)"></path><path d="M86.1242 132.018C86.1242 132.574 86.5514 132.783 87.0469 132.488L95.5907 127.546C95.8553 127.381 96.0772 127.155 96.2383 126.888C96.3994 126.621 96.4951 126.319 96.5176 126.008C96.5176 125.457 96.0905 125.248 95.5907 125.542L87.0469 130.485C86.7839 130.65 86.5633 130.876 86.4031 131.142C86.2428 131.408 86.1473 131.708 86.1242 132.018Z" fill="#FAFAFA"></path><path d="M75.5983 86.519C75.6363 85.8202 75.8383 85.1401 76.1878 84.5338C76.5374 83.9275 77.0247 83.412 77.6104 83.0289L169.921 29.7374C171.032 29.0924 171.933 29.6136 171.933 30.8994V35.1157L75.5983 90.7354V86.519Z" fill="#37474F"></path><path d="M160.6 37.2901C160.325 37.4697 160.097 37.7114 159.933 37.9956C159.769 38.2798 159.674 38.5986 159.656 38.9262C159.656 39.5286 160.083 39.7806 160.6 39.473C160.878 39.2958 161.11 39.0551 161.277 38.7707C161.444 38.4862 161.542 38.1662 161.561 37.8369C161.561 37.2346 161.134 36.9911 160.6 37.2901Z" fill="url(#paint12_linear_305_1053)"></path><path d="M163.906 35.3891C163.631 35.5682 163.402 35.8097 163.238 36.094C163.074 36.3784 162.98 36.6974 162.962 37.0252C162.962 37.6275 163.389 37.8795 163.906 37.5677C164.182 37.3888 164.411 37.1473 164.575 36.863C164.739 36.5786 164.833 36.2594 164.85 35.9316C164.85 35.3292 164.427 35.0857 163.906 35.3891Z" fill="url(#paint13_linear_305_1053)"></path><path d="M167.213 33.4837C166.936 33.6619 166.705 33.903 166.54 34.1874C166.374 34.4718 166.278 34.7913 166.26 35.1198C166.26 35.7222 166.687 35.9742 167.208 35.6666C167.483 35.487 167.711 35.2453 167.875 34.9611C168.039 34.6769 168.134 34.3581 168.152 34.0305C168.157 33.4282 167.734 33.1847 167.213 33.4837Z" fill="url(#paint14_linear_305_1053)"></path><path d="M111.23 76.4162L161.552 47.3633V55.3773L111.23 84.4302V76.4162Z" fill="url(#paint15_linear_305_1053)"></path><path opacity="0.05" d="M111.23 76.4162L161.552 47.3633V55.3773L111.23 84.4302V76.4162Z" fill="black"></path><path d="M109.491 75.4167L111.23 76.4164V84.4304L109.491 83.4308V75.4167Z" fill="url(#paint16_linear_305_1053)"></path><path opacity="0.2" d="M109.491 75.4167L111.23 76.4164V84.4304L109.491 83.4308V75.4167Z" fill="black"></path><path d="M161.552 47.3634L159.818 46.3638L109.491 75.4167L111.23 76.4163L161.552 47.3634Z" fill="url(#paint17_linear_305_1053)"></path><path opacity="0.4" d="M161.552 47.3634L159.818 46.3638L109.491 75.4167L111.23 76.4163L161.552 47.3634Z" fill="white"></path><path d="M111.23 84.4304L161.552 55.3774V101.462L111.23 130.515V84.4304Z" fill="url(#paint18_linear_305_1053)"></path><path d="M109.491 83.4307L111.23 84.4303V130.515L109.495 129.516L109.491 83.4307Z" fill="url(#paint19_linear_305_1053)"></path><path opacity="0.15" d="M109.491 83.4307L111.23 84.4303V130.515L109.495 129.516L109.491 83.4307Z" fill="black"></path><path d="M139.813 68.0051L139.757 68.0563C139.716 68.1022 139.667 68.1399 139.612 68.1674C139.505 68.2357 139.45 68.1674 139.352 68.1033L138.548 67.6334C138.22 67.4412 137.831 67.2062 137.425 66.9627C137.019 66.7192 136.571 66.4501 136.143 66.1767C136.015 66.0913 136.25 65.6641 136.395 65.7495C136.853 65.9887 137.297 66.2365 137.72 66.4672C138.143 66.6979 138.527 66.8944 138.865 67.108L139.668 67.5651C139.762 67.6291 139.86 67.6334 139.856 67.7616C139.859 67.8207 139.852 67.88 139.834 67.9367L139.813 68.0051Z" fill="#E0E0E0"></path><path d="M140.629 68.5816C140.009 69.6539 139.001 70.2348 137.938 69.6581L137.878 69.6282H137.852C137.695 69.5093 137.572 69.3522 137.493 69.172C137.415 68.9917 137.384 68.7943 137.404 68.5987C137.434 68.0388 137.596 67.4938 137.875 67.0078C138.155 66.5218 138.545 66.1083 139.014 65.8006C139.17 65.6929 139.349 65.6239 139.537 65.5994C139.725 65.5748 139.916 65.5955 140.095 65.6597L140.155 65.6896L140.253 65.7536C141.257 66.3773 141.248 67.5136 140.629 68.5816Z" fill="#37474F"></path><path d="M141.936 70.7048L143.132 68.6628C142.219 68.1952 141.372 67.6092 140.612 66.9199L140.565 66.8729L140.526 66.8345C140.407 66.7578 140.266 66.7195 140.124 66.7249C139.982 66.7302 139.845 66.7789 139.732 66.8644C139.426 67.0638 139.171 67.3325 138.989 67.6487C138.806 67.9649 138.701 68.3196 138.681 68.6842C138.668 68.8145 138.689 68.9459 138.743 69.0652C138.797 69.1844 138.882 69.2873 138.988 69.3634C139.051 69.3966 139.119 69.417 139.189 69.4232C140.16 69.7197 141.085 70.1511 141.936 70.7048Z" fill="#455A64"></path><path d="M144.162 69.0517C144.156 68.7155 144.019 68.395 143.779 68.1593C143.539 67.9235 143.216 67.7915 142.88 67.7915C142.734 67.7959 142.59 67.8248 142.453 67.8769H142.427H142.38C142.311 67.903 142.244 67.9344 142.18 67.9709C141.807 68.2123 141.497 68.538 141.274 68.9218C141.052 69.3056 140.923 69.7365 140.898 70.1795C140.899 70.2874 140.912 70.3948 140.936 70.4999C140.994 70.8076 141.164 71.0831 141.413 71.2725C141.662 71.4619 141.973 71.5518 142.285 71.5246C142.597 71.4974 142.887 71.3551 143.1 71.1254C143.313 70.8957 143.432 70.5951 143.435 70.282C143.438 70.2422 143.438 70.2022 143.435 70.1624C143.646 70.0612 143.825 69.9042 143.953 69.7084C144.082 69.5126 144.153 69.2855 144.162 69.0517Z" fill="#37474F"></path><path d="M142.901 68.4108C143.606 68.005 144.183 68.3339 144.183 69.1498C144.159 69.5929 144.03 70.0239 143.807 70.4078C143.584 70.7916 143.274 71.1173 142.901 71.3584C142.197 71.7642 141.62 71.4353 141.62 70.6236C141.645 70.18 141.774 69.7485 141.996 69.3641C142.219 68.9796 142.529 68.653 142.901 68.4108Z" fill="#455A64"></path><path d="M115.724 85.0282C116.685 84.4729 117.463 84.9214 117.463 86.0321C117.426 86.6317 117.25 87.2146 116.948 87.7339C116.647 88.2531 116.227 88.6945 115.724 89.0224C114.767 89.5778 113.99 89.1292 113.99 88.0228C114.024 87.4228 114.2 86.8394 114.501 86.3194C114.802 85.7993 115.221 85.3571 115.724 85.0282Z" fill="#FAFAFA"></path><path d="M119.504 82.8924L127.941 78.0267C128.369 77.7832 128.697 77.9541 128.697 78.4069C128.682 78.6652 128.605 78.9161 128.474 79.1389C128.343 79.3617 128.16 79.5501 127.941 79.6885L119.504 84.5584C119.077 84.7976 118.748 84.6267 118.748 84.1739C118.764 83.9157 118.84 83.6648 118.972 83.4419C119.103 83.2191 119.286 83.0307 119.504 82.8924Z" fill="#455A64"></path><path d="M119.304 85.7717L126.869 81.4016C127.177 81.2264 127.424 81.2777 127.424 81.5169C127.394 81.6759 127.329 81.8261 127.234 81.9569C127.139 82.0876 127.015 82.1956 126.873 82.273L119.299 86.767C118.996 86.9464 118.748 86.8696 118.748 86.5919C118.771 86.4215 118.833 86.2588 118.929 86.1164C119.026 85.9741 119.154 85.8561 119.304 85.7717Z" fill="#455A64"></path><path opacity="0.3" d="M114.699 92.2307C114.699 92.6579 115.032 92.8288 115.438 92.5938L157.34 68.4022C157.551 68.2718 157.727 68.0936 157.856 67.882C157.984 67.6704 158.061 67.4315 158.079 67.1848C158.079 66.7576 157.75 66.591 157.34 66.8259L115.425 91.0089C115.217 91.1417 115.043 91.3214 114.917 91.5336C114.791 91.7457 114.716 91.9845 114.699 92.2307Z" fill="black"></path><path opacity="0.3" d="M114.699 95.2382C114.699 95.6653 115.032 95.8362 115.438 95.597L140.535 81.1069C140.744 80.9766 140.92 80.7989 141.049 80.5882C141.177 80.3775 141.254 80.1396 141.274 79.8936C141.274 79.4665 140.941 79.2956 140.535 79.5305L115.425 94.025C115.218 94.1567 115.044 94.3349 114.918 94.5456C114.792 94.7562 114.717 94.9934 114.699 95.2382Z" fill="black"></path><path d="M114.699 98.4634L158.079 73.4175V99.463L114.699 124.509V98.4634Z" fill="url(#paint20_linear_305_1053)"></path><path opacity="0.7" d="M114.699 98.4634L158.079 73.4175V99.463L114.699 124.509V98.4634Z" fill="white"></path><path d="M114.699 124.509V116.495L130.317 95.4561L144.162 101.488L139.608 98.4635L145.934 90.4495L158.079 95.0118V99.4631L114.699 124.509Z" fill="#FAFAFA"></path><path d="M151.855 82.038C153.209 81.2563 154.307 81.8885 154.307 83.452C154.261 84.3028 154.015 85.1307 153.589 85.8685C153.163 86.6063 152.569 87.2332 151.855 87.6982C150.501 88.48 149.403 87.8478 149.403 86.2843C149.449 85.4335 149.695 84.6056 150.121 83.8678C150.547 83.13 151.141 82.5031 151.855 82.038Z" fill="#FAFAFA"></path><path d="M71.4873 109.861C70.7681 110.289 69.9889 110.473 69.0256 111.18C68.1693 111.801 67.8012 111.805 66.8464 112.036C65.8147 112.289 57.6332 109.87 56.2033 108.611C53.9771 106.667 50.034 99.6547 48.5613 97.9722C47.3497 96.585 45.6672 94.7056 44.173 94.697C41.7028 95.4462 42.2636 99.1195 44.3272 102.425C46.0396 105.16 49.5588 110.623 53.2321 113.034C55.0131 114.202 63.7211 116.262 66.4483 116.437C67.2746 116.493 68.743 116.865 70.0445 116.934C71.3206 117.053 72.6055 116.833 73.7692 116.296C74.7088 115.859 75.5134 115.177 76.0982 114.322C76.4181 113.851 76.6247 113.311 76.7018 112.747C76.7725 112.179 76.6406 111.604 76.3294 111.124C76.2694 111.026 76.1854 110.945 76.0854 110.889C75.8862 110.824 75.6697 110.839 75.4817 110.931C74.39 111.312 73.264 111.886 72.1381 112.147C71.1876 112.366 70.4855 112.391 70.5797 112.22C70.6739 112.049 71.239 111.955 71.8855 111.402C71.9648 111.337 72.0392 111.265 72.1081 111.188V109.476C71.894 109.592 71.6868 109.721 71.4873 109.861Z" fill="#B16668"></path><path d="M44.0189 93.8407C42.1908 94.7311 41.4502 96.0926 42.2636 99.128C42.9914 101.851 45.7828 106.492 47.979 108.765C47.979 108.765 51.7337 106.984 53.7373 104.672C51.7551 101.641 50.8047 99.8601 48.9423 97.2956C47.08 94.7312 45.132 93.5324 44.0189 93.8407Z" fill="#455A64"></path><path d="M173.401 98.8375C178.637 94.3379 183.531 84.0887 182.135 80.8906C179.725 80.7664 177.961 81.6826 176.411 84.5339C176.411 84.5339 172.01 93.0964 169.54 95.618C167.428 97.8569 164.773 99.5117 161.833 100.422C161.192 100.531 160.535 100.518 159.898 100.383C158.807 100.049 158.186 100.336 157.146 100.285C156.319 100.246 155.891 99.9763 155.797 100.156C155.709 100.376 155.708 100.621 155.794 100.842C155.88 101.063 156.046 101.243 156.259 101.346C156.653 101.559 157.073 101.716 157.509 101.813C156.652 102.079 155.761 102.223 154.864 102.241C152.723 102.305 151.815 103.012 153.682 105.011C154.602 105.996 157.038 106.595 160.348 105.709C161.756 105.252 163.136 104.71 164.479 104.086C167.683 102.76 170.686 100.993 173.401 98.8375Z" fill="#FFA8A7"></path><path d="M190.201 161.54V161.001C189.987 161.635 189.006 164.345 187.517 165.71C186.331 166.789 184.712 168.039 184.301 169.242C183.89 170.445 186.553 170.916 187.658 170.719C188.942 170.492 190.608 169.765 191.511 168.652C192.149 167.868 192.551 166.939 193.009 166.327C193.468 165.715 194.512 165.021 194.756 164.31C194.893 163.921 194.73 163.065 194.542 162.341C194.354 161.617 194.178 160.945 193.951 161.005V161.433C193.418 161.855 192.756 162.079 192.076 162.067C191.528 162.067 190.197 161.96 190.201 161.54Z" fill="#263238"></path><path d="M186.442 166.657L187.517 165.702C188.557 164.751 189.349 163.133 189.807 162.041C190.068 161.415 190.202 160.742 190.201 160.063V157.923H193.956V161.408V161.502C193.776 162.285 192.05 164.362 191.07 165.715C190.415 166.622 189.165 167.778 187.675 167.975C186.245 168.172 185.526 167.727 186.442 166.657Z" fill="#FFA8A7"></path><path d="M175.546 157.846V157.306C175.336 157.94 174.352 160.65 172.862 162.016C171.676 163.095 170.062 164.345 169.651 165.548C169.24 166.751 171.899 167.222 173.007 167.025C174.292 166.798 175.957 166.07 176.861 164.957C177.494 164.173 177.901 163.244 178.355 162.632C178.808 162.02 179.857 161.348 180.106 160.616C180.238 160.226 180.08 159.37 179.892 158.646C179.703 157.923 179.528 157.251 179.301 157.311V157.739C178.766 158.161 178.102 158.384 177.421 158.372C176.878 158.364 175.542 158.274 175.546 157.846Z" fill="#263238"></path><path d="M171.792 162.953C172.156 162.624 172.528 162.303 172.862 161.999C173.902 161.048 174.699 159.43 175.152 158.338C175.413 157.711 175.547 157.039 175.546 156.36V154.22H179.305V157.705V157.799C179.125 158.582 177.404 160.659 176.424 162.012C175.765 162.919 174.519 164.075 173.029 164.272C171.595 164.469 170.871 164.024 171.792 162.953Z" fill="#FFA8A7"></path><path d="M193.211 103.162C196.122 109.519 193.104 131.927 193.104 131.927C193.194 132.959 194.388 134.988 194.816 139.535C195.334 144.899 194.003 158.372 194.003 158.372C193.43 158.704 192.784 158.891 192.122 158.917C191.461 158.943 190.803 158.808 190.205 158.522C190.205 158.522 186.626 138.221 185.95 132.886C185.363 128.228 184.237 117.988 184.237 117.988L181.031 132.861C181.499 134.362 181.838 135.9 182.045 137.459C182.349 140.597 179.309 155.213 179.309 155.213C179.309 155.213 178.025 155.688 175.551 155.324C175.551 155.324 174.476 135.93 174.193 132.146C173.718 125.796 175.405 105.979 176.57 102.22L193.211 103.162Z" fill="url(#paint21_linear_305_1053)"></path><path opacity="0.15" d="M184.233 117.996L183.287 112.088C183.287 112.088 179.288 111.257 177.473 109.553C177.473 109.553 179.374 111.921 182.204 112.696L183.265 117.243L181.407 131.015L184.233 117.996Z" fill="black"></path><path d="M188.073 81.0618C191.806 81.3186 192.067 83.121 193.001 85.0947C193.683 86.6147 193.747 88.3402 193.181 89.9068L190.578 97.4332C190.578 97.4332 191.793 100.379 193.211 103.162C186.682 106.805 178.526 104.874 176.565 102.228C176.48 101.663 176.993 97.2534 177.297 94.3764C176.146 91.4909 175.842 89.667 176.33 87.7533C177.229 84.217 180.726 80.7664 182.272 80.9034L188.073 81.0618Z" fill="#F0F0F0"></path><path d="M190.042 80.0002H176.424V70.3332C176.424 68.2985 177.232 66.3471 178.671 64.9083C180.11 63.4695 182.061 62.6612 184.096 62.6612H185.462C187.496 62.6612 189.448 63.4695 190.886 64.9083C192.325 66.3471 193.134 68.2985 193.134 70.3332V76.9092C193.134 77.729 192.808 78.5152 192.228 79.0949C191.649 79.6746 190.862 80.0002 190.042 80.0002Z" fill="#263238"></path><path d="M192.02 63.6587L190.907 65.4739C191.023 65.554 191.153 65.6098 191.291 65.6381C191.428 65.6664 191.57 65.6665 191.708 65.6385C191.845 65.6105 191.976 65.555 192.091 65.4752C192.207 65.3954 192.305 65.293 192.38 65.1742C192.527 64.924 192.572 64.6266 192.505 64.3443C192.438 64.0619 192.264 63.8163 192.02 63.6587Z" fill="#263238"></path><path d="M193.579 65.3198L191.464 65.6366C191.477 65.7763 191.519 65.9117 191.587 66.0347C191.654 66.1577 191.746 66.2657 191.857 66.3522C191.967 66.4387 192.094 66.5018 192.23 66.5378C192.365 66.5737 192.507 66.5818 192.645 66.5614C192.931 66.5139 193.187 66.3584 193.361 66.1273C193.534 65.8962 193.612 65.607 193.579 65.3198Z" fill="#263238"></path><path d="M179.596 66.0432C178.714 66.5655 177.623 68.7832 177.73 73.4369C177.824 77.3842 179.1 78.356 179.742 78.6386C180.384 78.9212 181.621 78.7456 182.824 78.5487V80.9162C182.824 80.9162 181.163 82.8471 181.266 83.9131C181.369 84.9791 183.668 85.2574 185.226 84.1956C186.239 83.4689 187.11 82.5619 187.795 81.5199V75.8173C187.795 75.8173 188.604 76.9004 189.936 76.0185C191.267 75.1365 191.314 72.9531 190.539 72.1654C189.764 71.3776 188.103 71.6302 187.795 72.7134C187.795 72.7134 185.873 72.7819 183.317 71.3776C182.321 70.8435 181.465 70.0821 180.819 69.1552C180.172 68.2284 179.754 67.1622 179.596 66.0432Z" fill="#FFA8A7"></path><path d="M182.576 72.4481C182.567 72.5161 182.573 72.5851 182.592 72.6509C182.611 72.7167 182.644 72.7778 182.688 72.8303C182.732 72.8828 182.787 72.9257 182.848 72.9561C182.909 72.9866 182.977 73.004 183.045 73.0072C183.114 73.0105 183.182 72.9995 183.246 72.9751C183.31 72.9506 183.368 72.9131 183.417 72.865C183.466 72.8169 183.504 72.7592 183.53 72.6956C183.555 72.6319 183.567 72.5637 183.565 72.4952C183.57 72.429 183.562 72.3625 183.542 72.2994C183.521 72.2364 183.488 72.178 183.444 72.1279C183.401 72.0777 183.348 72.0366 183.289 72.0071C183.229 71.9775 183.165 71.9601 183.098 71.9557C182.964 71.9523 182.834 72.0021 182.736 72.0943C182.638 72.1865 182.581 72.3137 182.576 72.4481Z" fill="#263238"></path><path d="M182.002 75.7917L180.851 76.1599C180.869 76.2387 180.904 76.3127 180.952 76.3775C181.001 76.4423 181.062 76.4964 181.132 76.5365C181.203 76.5767 181.28 76.602 181.361 76.6108C181.441 76.6197 181.523 76.6119 181.6 76.5881C181.758 76.5352 181.89 76.4219 181.965 76.2727C182.04 76.1236 182.054 75.9507 182.002 75.7917Z" fill="#F28F8F"></path><path d="M178.492 70.9367L179.498 70.2432C179.456 70.1754 179.4 70.1169 179.335 70.0712C179.269 70.0256 179.195 69.9938 179.117 69.9778C179.039 69.9618 178.958 69.9618 178.88 69.978C178.802 69.9942 178.728 70.0261 178.663 70.0719C178.529 70.1663 178.436 70.3089 178.404 70.47C178.372 70.631 178.403 70.7982 178.492 70.9367Z" fill="#263238"></path><path d="M178.74 72.0884C178.737 72.1536 178.747 72.2188 178.769 72.2802C178.791 72.3417 178.825 72.3981 178.869 72.4464C178.913 72.4947 178.966 72.5339 179.025 72.5617C179.084 72.5895 179.148 72.6055 179.213 72.6085C179.278 72.6116 179.344 72.6019 179.405 72.5798C179.466 72.5577 179.523 72.5237 179.571 72.4797C179.62 72.4358 179.659 72.3828 179.686 72.3237C179.714 72.2647 179.73 72.2007 179.733 72.1355C179.736 72.0703 179.727 72.0051 179.705 71.9436C179.682 71.8822 179.648 71.8257 179.604 71.7774C179.561 71.7291 179.508 71.6899 179.448 71.6621C179.389 71.6343 179.325 71.6184 179.26 71.6153C179.195 71.6122 179.13 71.622 179.068 71.6441C179.007 71.6662 178.95 71.7002 178.902 71.7441C178.854 71.788 178.815 71.8411 178.787 71.9001C178.759 71.9592 178.743 72.0232 178.74 72.0884Z" fill="#263238"></path><path d="M181.163 71.8059L181.086 74.7899L179.511 74.3061L181.163 71.8059Z" fill="#F28F8F"></path><path d="M182.824 78.5488C184.109 78.3818 186.703 77.6326 187.106 76.6008C186.944 77.121 186.627 77.5795 186.198 77.9152C185.419 78.583 182.829 79.3365 182.829 79.3365L182.824 78.5488Z" fill="#F28F8F"></path><path d="M186.403 103.868C186.915 103.751 187.398 103.532 187.824 103.225C188.25 102.919 188.61 102.53 188.884 102.082C189.157 101.634 189.339 101.136 189.417 100.617C189.496 100.098 189.469 99.5689 189.34 99.0601C189.323 98.9905 189.301 98.9219 189.276 98.8546C189.186 98.5812 189.006 98.3461 188.767 98.1869C188.527 98.0278 188.24 97.9538 187.953 97.977C188.372 97.6989 188.731 97.3409 189.011 96.9236C189.291 96.5064 189.486 96.0379 189.584 95.5452L190.376 90.8359C190.473 90.0668 190.404 89.286 190.175 88.5454L192.8 85.51L193.288 85.8482C193.683 87.1812 193.645 88.6051 193.181 89.9154L190.578 97.4418C190.578 97.4418 191.794 100.387 193.211 103.17C191.086 104.312 188.741 104.985 186.335 105.144C183.928 105.304 181.515 104.946 179.258 104.095C181.633 104.468 184.057 104.391 186.403 103.868Z" fill="#E6E6E6"></path><path d="M199.898 99.7964C196.507 85.9424 193.998 81.3229 189.88 81.3871C188.681 82.8256 189.024 87.1668 190.912 89.7998C190.912 89.7998 195.146 98.7347 195.822 101.911C196.417 104.703 197.107 108.213 197.047 110.615C197.034 111.039 196.866 111.445 196.576 111.754C195.805 112.61 195.801 113.269 195.291 114.199C194.897 114.922 194.469 115.196 194.589 115.359C194.751 115.535 194.974 115.644 195.213 115.661C195.451 115.679 195.688 115.604 195.874 115.453C196.237 115.19 196.562 114.879 196.841 114.528C196.707 115.416 196.449 116.281 196.075 117.097C195.219 119.058 195.415 120.06 198.066 119.362C199.722 118.934 200.763 117.542 201.011 113.556C201.132 112.088 201.146 110.613 201.054 109.142C200.694 105.349 200.437 102.027 199.898 99.7964Z" fill="#FFA8A7"></path><defs><linearGradient id="paint0_linear_305_1053" x1="84.3066" y1="22.0212" x2="-14.6513" y2="38.6841" gradientUnits="userSpaceOnUse"><stop stop-color="#06E8FF"></stop><stop offset="0.495946" stop-color="#B11AFF"></stop><stop offset="1" stop-color="#FF00B8"></stop></linearGradient><linearGradient id="paint1_linear_305_1053" x1="83.083" y1="1.62083" x2="-9.68501" y2="27.0789" gradientUnits="userSpaceOnUse"><stop stop-color="#06E8FF"></stop><stop offset="0.495946" stop-color="#B11AFF"></stop><stop offset="1" stop-color="#FF00B8"></stop></linearGradient><linearGradient id="paint2_linear_305_1053" x1="83.094" y1="2.72506" x2="-7.54105" y2="27.4226" gradientUnits="userSpaceOnUse"><stop stop-color="#06E8FF"></stop><stop offset="0.495946" stop-color="#B11AFF"></stop><stop offset="1" stop-color="#FF00B8"></stop></linearGradient><linearGradient id="paint3_linear_305_1053" x1="175.072" y1="26.6071" x2="53.818" y2="46.7297" gradientUnits="userSpaceOnUse"><stop stop-color="#06E8FF"></stop><stop offset="0.495946" stop-color="#B11AFF"></stop><stop offset="1" stop-color="#FF00B8"></stop></linearGradient><linearGradient id="paint4_linear_305_1053" x1="84.4526" y1="98.2169" x2="82.4127" y2="98.5262" gradientUnits="userSpaceOnUse"><stop stop-color="#06E8FF"></stop><stop offset="0.495946" stop-color="#B11AFF"></stop><stop offset="1" stop-color="#FF00B8"></stop></linearGradient><linearGradient id="paint5_linear_305_1053" x1="84.4526" y1="102.228" x2="82.4127" y2="102.537" gradientUnits="userSpaceOnUse"><stop stop-color="#06E8FF"></stop><stop offset="0.495946" stop-color="#B11AFF"></stop><stop offset="1" stop-color="#FF00B8"></stop></linearGradient><linearGradient id="paint6_linear_305_1053" x1="84.4526" y1="106.233" x2="82.4126" y2="106.542" gradientUnits="userSpaceOnUse"><stop stop-color="#06E8FF"></stop><stop offset="0.495946" stop-color="#B11AFF"></stop><stop offset="1" stop-color="#FF00B8"></stop></linearGradient><linearGradient id="paint7_linear_305_1053" x1="84.4526" y1="110.235" x2="82.4126" y2="110.545" gradientUnits="userSpaceOnUse"><stop stop-color="#06E8FF"></stop><stop offset="0.495946" stop-color="#B11AFF"></stop><stop offset="1" stop-color="#FF00B8"></stop></linearGradient><linearGradient id="paint8_linear_305_1053" x1="84.3758" y1="120.298" x2="82.3406" y2="120.606" gradientUnits="userSpaceOnUse"><stop stop-color="#06E8FF"></stop><stop offset="0.495946" stop-color="#B11AFF"></stop><stop offset="1" stop-color="#FF00B8"></stop></linearGradient><linearGradient id="paint9_linear_305_1053" x1="84.3758" y1="124.309" x2="82.3406" y2="124.617" gradientUnits="userSpaceOnUse"><stop stop-color="#06E8FF"></stop><stop offset="0.495946" stop-color="#B11AFF"></stop><stop offset="1" stop-color="#FF00B8"></stop></linearGradient><linearGradient id="paint10_linear_305_1053" x1="84.3758" y1="128.314" x2="82.3406" y2="128.622" gradientUnits="userSpaceOnUse"><stop stop-color="#06E8FF"></stop><stop offset="0.495946" stop-color="#B11AFF"></stop><stop offset="1" stop-color="#FF00B8"></stop></linearGradient><linearGradient id="paint11_linear_305_1053" x1="84.3758" y1="132.317" x2="82.3406" y2="132.624" gradientUnits="userSpaceOnUse"><stop stop-color="#06E8FF"></stop><stop offset="0.495946" stop-color="#B11AFF"></stop><stop offset="1" stop-color="#FF00B8"></stop></linearGradient><linearGradient id="paint12_linear_305_1053" x1="161.55" y1="37.2219" x2="159.329" y2="37.6022" gradientUnits="userSpaceOnUse"><stop stop-color="#06E8FF"></stop><stop offset="0.495946" stop-color="#B11AFF"></stop><stop offset="1" stop-color="#FF00B8"></stop></linearGradient><linearGradient id="paint13_linear_305_1053" x1="164.84" y1="35.3181" x2="162.637" y2="35.6917" gradientUnits="userSpaceOnUse"><stop stop-color="#06E8FF"></stop><stop offset="0.495946" stop-color="#B11AFF"></stop><stop offset="1" stop-color="#FF00B8"></stop></linearGradient><linearGradient id="paint14_linear_305_1053" x1="168.142" y1="33.4155" x2="165.934" y2="33.7909" gradientUnits="userSpaceOnUse"><stop stop-color="#06E8FF"></stop><stop offset="0.495946" stop-color="#B11AFF"></stop><stop offset="1" stop-color="#FF00B8"></stop></linearGradient><linearGradient id="paint15_linear_305_1053" x1="161.268" y1="48.2674" x2="105.792" y2="64.7935" gradientUnits="userSpaceOnUse"><stop stop-color="#06E8FF"></stop><stop offset="0.495946" stop-color="#B11AFF"></stop><stop offset="1" stop-color="#FF00B8"></stop></linearGradient><linearGradient id="paint16_linear_305_1053" x1="111.22" y1="75.6366" x2="109.137" y2="75.7248" gradientUnits="userSpaceOnUse"><stop stop-color="#06E8FF"></stop><stop offset="0.495946" stop-color="#B11AFF"></stop><stop offset="1" stop-color="#FF00B8"></stop></linearGradient><linearGradient id="paint17_linear_305_1053" x1="161.258" y1="47.0968" x2="106.661" y2="67.8503" gradientUnits="userSpaceOnUse"><stop stop-color="#06E8FF"></stop><stop offset="0.495946" stop-color="#B11AFF"></stop><stop offset="1" stop-color="#FF00B8"></stop></linearGradient><linearGradient id="paint18_linear_305_1053" x1="161.268" y1="57.2101" x2="102.145" y2="65.8986" gradientUnits="userSpaceOnUse"><stop stop-color="#06E8FF"></stop><stop offset="0.495946" stop-color="#B11AFF"></stop><stop offset="1" stop-color="#FF00B8"></stop></linearGradient><linearGradient id="paint19_linear_305_1053" x1="111.22" y1="84.5791" x2="109.133" y2="84.596" gradientUnits="userSpaceOnUse"><stop stop-color="#06E8FF"></stop><stop offset="0.495946" stop-color="#B11AFF"></stop><stop offset="1" stop-color="#FF00B8"></stop></linearGradient><linearGradient id="paint20_linear_305_1053" x1="157.834" y1="74.6636" x2="107.513" y2="84.0389" gradientUnits="userSpaceOnUse"><stop stop-color="#06E8FF"></stop><stop offset="0.495946" stop-color="#B11AFF"></stop><stop offset="1" stop-color="#FF00B8"></stop></linearGradient><linearGradient id="paint21_linear_305_1053" x1="194.818" y1="103.603" x2="169.985" y2="105.604" gradientUnits="userSpaceOnUse"><stop stop-color="#06E8FF"></stop><stop offset="0.495946" stop-color="#B11AFF"></stop><stop offset="1" stop-color="#FF00B8"></stop></linearGradient></defs></svg>