<svg xmlns="http://www.w3.org/2000/svg" width="64" height="50" viewBox="0 0 64 50" fill="none"><path d="M25.792 35.3719L44.2748 10.5665C44.5545 10.1887 44.9574 9.91839 45.4153 9.80124C45.8732 9.68409 46.3578 9.72734 46.7872 9.92367C47.2166 10.12 47.5642 10.4573 47.7713 10.8785C47.9784 11.2997 48.0321 11.7789 47.9235 12.2348L47.8348 12.5217L36.4013 41.2023C36.0903 41.9683 35.6245 42.6632 35.0326 43.2444C34.4407 43.8256 33.7351 44.2809 32.9592 44.5822C32.1833 44.8835 31.3534 45.0245 30.5205 44.9965C29.6876 44.9686 28.8692 44.7723 28.1157 44.4197C27.3621 44.0671 26.6892 43.5656 26.1384 42.9461C25.5875 42.3266 25.1703 41.602 24.9123 40.8169C24.6543 40.0319 24.561 39.2029 24.6381 38.3808C24.7152 37.5587 24.9611 36.7609 25.3606 36.0364L25.5645 35.6968L25.789 35.3749L44.2748 10.5665L25.789 35.3749L25.792 35.3719ZM51.0817 11.9392C53.3624 13.772 55.3732 15.9118 57.0555 18.2964C58.6036 20.4887 60.0986 23.1434 60.9553 25.3151C61.0615 25.5836 61.1131 25.8702 61.1075 26.1584C61.1018 26.4467 61.0389 26.731 60.9223 26.9952C60.8057 27.2594 60.6377 27.4982 60.4279 27.6981C60.2182 27.898 59.9707 28.0549 59.6997 28.1601C59.4287 28.2652 59.1395 28.3164 58.8485 28.3108C58.5575 28.3052 58.2705 28.2428 58.0038 28.1273C57.7372 28.0118 57.4961 27.8454 57.2943 27.6376C57.0926 27.4298 56.9341 27.1846 56.828 26.9161C56.4996 26.1044 56.1268 25.3111 55.7113 24.5395L49.6547 28.002C49.1685 28.2769 48.5954 28.3593 48.0504 28.2326C47.5054 28.106 47.0289 27.7797 46.7169 27.3192C46.4048 26.8588 46.2802 26.2985 46.3681 25.7508C46.456 25.2031 46.7499 24.7086 47.1908 24.3668L47.4419 24.2L53.4039 20.7872L52.7244 19.8682C51.7825 18.6499 50.7367 17.514 49.5986 16.473L50.7213 13.6514C50.8335 13.3705 50.9192 13.0836 50.9783 12.7968L51.0492 12.3665L51.0788 11.9392H51.0817ZM43.3116 7.37032C42.8647 7.62782 42.4602 7.95158 42.1121 8.33034L41.7753 8.74011L40.18 10.8855C38.1068 10.1724 35.9541 9.71048 33.7689 9.50988V17.3305C33.7687 17.8867 33.5555 18.4221 33.1722 18.8285C32.7889 19.2349 32.2642 19.482 31.7041 19.5199C31.144 19.5579 30.5903 19.3837 30.1548 19.0327C29.7193 18.6818 29.4345 18.1801 29.358 17.6291L29.3373 17.3305V9.45719C24.4605 9.80077 19.7703 11.4542 15.7706 14.2397C13.3598 15.9139 11.2563 18.1091 9.51026 20.6936L15.6613 24.2117C16.1472 24.49 16.5083 24.9406 16.6718 25.4725C16.8353 26.0044 16.789 26.5779 16.5422 27.0772C16.2954 27.5766 15.8666 27.9646 15.3422 28.1629C14.8179 28.3611 14.2372 28.3549 13.7173 28.1454L13.4455 28.0137L7.31809 24.5102C6.93992 25.2888 6.5913 26.0908 6.26632 26.9132C6.04625 27.4456 5.62404 27.8711 5.09052 28.0982C4.55701 28.3253 3.95483 28.3358 3.41355 28.1275C2.87227 27.9192 2.43515 27.5088 2.19624 26.9845C1.95733 26.4601 1.93572 25.8639 2.13606 25.3239C4.52026 19.2506 8.28122 14.0758 13.2269 10.6426C17.5589 7.63411 22.5872 5.75722 27.8461 5.18573C33.1049 4.61424 38.4243 5.36664 43.3116 7.37324V7.37032Z" fill="url(#paint0_linear_109_44)"></path><defs><linearGradient id="paint0_linear_109_44" x1="60.774" y1="5.97561" x2="-3.42103" y2="26.7904" gradientUnits="userSpaceOnUse"><stop stop-color="#06E8FF"></stop><stop offset="0.495946" stop-color="#B11AFF"></stop><stop offset="1" stop-color="#FF00B8"></stop></linearGradient></defs></svg>